SplineFontDB: 3.0
FontName: Samim-Bold
FullName: Samim Bold
FamilyName: Samim
Weight: Bold
Copyright: Copyright (c) 2003 by Bitstream, Inc. All Rights Reserved.\nDejaVu changes are in public domain\nCopyright (c) 2015 by Saber Rastikerdar. All Rights Reserved.
Version: 0.9.6
ItalicAngle: 0
UnderlinePosition: -100
UnderlineWidth: 100
Ascent: 1536
Descent: 512
LayerCount: 2
Layer: 0 1 "Back"  1
Layer: 1 1 "Fore"  0
XUID: [1021 502 1027637223 4089234]
UniqueID: 4008865
FSType: 0
OS2Version: 1
OS2_WeightWidthSlopeOnly: 0
OS2_UseTypoMetrics: 1
CreationTime: 1431850356
ModificationTime: 1447644757
PfmFamily: 33
TTFWeight: 700
TTFWidth: 5
LineGap: 0
VLineGap: 0
Panose: 2 11 6 3 3 8 4 2 2 4
OS2TypoAscent: 2250
OS2TypoAOffset: 0
OS2TypoDescent: -750
OS2TypoDOffset: 0
OS2TypoLinegap: 0
OS2WinAscent: 2250
OS2WinAOffset: 0
OS2WinDescent: 750
OS2WinDOffset: 0
HheadAscent: 2250
HheadAOffset: 0
HheadDescent: -750
HheadDOffset: 0
OS2SubXSize: 1331
OS2SubYSize: 1433
OS2SubXOff: 0
OS2SubYOff: 286
OS2SupXSize: 1331
OS2SupYSize: 1433
OS2SupXOff: 0
OS2SupYOff: 983
OS2StrikeYSize: 102
OS2StrikeYPos: 530
OS2Vendor: 'PfEd'
OS2CodePages: 600001ff.dfff0000
Lookup: 1 0 0 "'case' Case-Sensitive Forms in Latin lookup 0"  {"'case' Case-Sensitive Forms in Latin lookup 0 subtable"  } ['case' ('DFLT' <'dflt' > 'latn' <'CAT ' 'ESP ' 'GAL ' 'dflt' > ) ]
Lookup: 6 1 0 "'ccmp' Glyph Composition/Decomposition lookup 2"  {"'ccmp' Glyph Composition/Decomposition lookup 2 subtable"  } ['ccmp' ('arab' <'KUR ' 'SND ' 'URD ' 'dflt' > 'hebr' <'dflt' > 'nko ' <'dflt' > ) ]
Lookup: 6 0 0 "'ccmp' Glyph Composition/Decomposition lookup 3"  {"'ccmp' Glyph Composition/Decomposition lookup 3 subtable"  } ['ccmp' ('cyrl' <'MKD ' 'SRB ' 'dflt' > 'grek' <'dflt' > 'latn' <'ISM ' 'KSM ' 'LSM ' 'MOL ' 'NSM ' 'ROM ' 'SKS ' 'SSM ' 'dflt' > ) ]

StartChar: exclam
Encoding: 33 33 1
Width: 821
GlyphClass: 2
Flags: W
LayerCount: 2
Fore
SplineSet
557.5 226.3 m 2,0,-1
 557.5 64.2998 l 2,1,2
 557.5 0.299805 557.5 0.299805 491.5 0.299805 c 2,3,-1
 334.5 0.299805 l 2,4,5
 264.5 0.299805 264.5 0.299805 264.5 68.2998 c 2,6,-1
 264.5 224.3 l 2,7,8
 264.5 300.3 264.5 300.3 333.5 300.3 c 2,9,-1
 489.5 300.3 l 2,10,11
 557.5 300.3 557.5 300.3 557.5 226.3 c 2,0,-1
266.938 1510 m 1,12,-1
 554.01 1510 l 1,13,-1
 532.555 430 l 1,14,-1
 289.469 430 l 1,15,-1
 266.938 1510 l 1,12,-1
EndSplineSet
EndChar

StartChar: quotedbl
Encoding: 34 34 2
Width: 1067
GlyphClass: 2
Flags: W
LayerCount: 2
Fore
SplineSet
862 1483 m 1,0,-1
 862 948 l 1,1,-1
 645 948 l 1,2,-1
 645 1483 l 1,3,-1
 862 1483 l 1,0,-1
422 1483 m 1,4,-1
 422 948 l 1,5,-1
 205 948 l 1,6,-1
 205 1483 l 1,7,-1
 422 1483 l 1,4,-1
EndSplineSet
EndChar

StartChar: numbersign
Encoding: 35 35 3
Width: 1716
GlyphClass: 2
Flags: W
LayerCount: 2
Fore
SplineSet
898.2 1460 m 1,0,-1
 802.2 1075 l 1,1,-1
 1086.79 1075 l 1,2,-1
 1183.79 1460 l 1,3,-1
 1384.17 1460 l 1,4,-1
 1287.17 1075 l 1,5,-1
 1567 1075 l 1,6,-1
 1567 882 l 1,7,-1
 1239.21 882 l 1,8,-1
 1165.17 588 l 1,9,-1
 1452 588 l 1,10,-1
 1452 393 l 1,11,-1
 1118.2 393 l 1,12,-1
 1022.2 10 l 1,13,-1
 821.816 10 l 1,14,-1
 917.816 393 l 1,15,-1
 633.197 393 l 1,16,-1
 537.197 10 l 1,17,-1
 334.816 10 l 1,18,-1
 430.816 393 l 1,19,-1
 149 393 l 1,20,-1
 149 588 l 1,21,-1
 474.766 588 l 1,22,-1
 549.876 882 l 1,23,-1
 264 882 l 1,24,-1
 264 1075 l 1,25,-1
 599.813 1075 l 1,26,-1
 695.813 1460 l 1,27,-1
 898.2 1460 l 1,0,-1
1036.88 882 m 1,28,-1
 752.234 882 l 1,29,-1
 677.124 588 l 1,30,-1
 961.766 588 l 1,31,-1
 1036.88 882 l 1,28,-1
EndSplineSet
EndChar

StartChar: dollar
Encoding: 36 36 4
Width: 1385
GlyphClass: 2
Flags: W
LayerCount: 2
Fore
SplineSet
762.982 11.4492 m 1,0,-1
 762.982 -291 l 1,1,-1
 625.572 -291 l 1,2,-1
 624.605 9.60938 l 1,3,-1
 615.348 9.99219 l 2,4,5
 495.164 14.9609 495.164 14.9609 381.929 37.8125 c 0,6,7
 269.637 59.8867 269.637 59.8867 162 98.9844 c 1,8,-1
 162 337.744 l 1,9,10
 270.961 283.586 270.961 283.586 381.91 253.841 c 0,11,12
 497.437 222.043 497.437 222.043 615.61 218.006 c 2,13,-1
 625.604 217.664 l 1,14,-1
 625.604 547.346 l 1,15,-1
 585.678 554.849 l 1,16,17
 355.543 596.357 355.543 596.357 257.171 684.449 c 0,18,19
 160 771.466 160 771.466 160 936 c 0,20,21
 160 1110.27 160 1110.27 278.843 1207.77 c 0,22,23
 398.729 1306.13 398.729 1306.13 615.345 1315.01 c 2,24,-1
 624.596 1315.39 l 1,25,-1
 625.562 1546 l 1,26,-1
 762.982 1546 l 1,27,-1
 762.982 1319.77 l 1,28,-1
 771.885 1319.03 l 2,29,30
 868.199 1311.07 868.199 1311.07 964.526 1294.14 c 0,31,32
 1059.03 1277.87 1059.03 1277.87 1156 1252.31 c 1,33,-1
 1156 1020.96 l 1,34,35
 1061.92 1059.23 1061.92 1059.23 969.328 1081.23 c 0,36,37
 871.715 1104.94 871.715 1104.94 773.135 1109.99 c 2,38,-1
 762.982 1110.51 l 1,39,-1
 762.982 804.701 l 1,40,-1
 801.969 797.145 l 1,41,42
 1046.49 757.584 1046.49 757.584 1146.76 666.112 c 0,43,44
 1246 575.58 1246 575.58 1246 397 c 0,45,46
 1246 217.777 1246 217.777 1127.72 122.28 c 0,47,48
 1008.22 25.8018 1008.22 25.8018 772.109 11.9844 c 2,49,-1
 762.982 11.4492 l 1,0,-1
614.82 826.066 m 2,50,-1
 625.604 824.779 l 1,51,-1
 625.604 1107.58 l 1,52,-1
 615.385 1106.98 l 2,53,54
 543.568 1102.8 543.568 1102.8 500.026 1066.26 c 0,55,56
 455.332 1028.76 455.332 1028.76 455.332 971 c 0,57,58
 455.332 907.408 455.332 907.408 496.434 870.914 c 0,59,60
 536.412 835.417 536.412 835.417 614.82 826.066 c 2,50,-1
773.68 519.944 m 2,61,-1
 762.982 521.12 l 1,62,-1
 762.982 221.885 l 1,63,-1
 772.768 222.001 l 2,64,65
 860.129 223.038 860.129 223.038 904.756 258.033 c 0,66,67
 950.668 294.035 950.668 294.035 950.668 365 c 0,68,69
 950.668 437.67 950.668 437.67 908.507 474.166 c 0,70,71
 867.547 509.623 867.547 509.623 773.68 519.944 c 2,61,-1
EndSplineSet
EndChar

StartChar: percent
Encoding: 37 37 5
Width: 2012
GlyphClass: 2
Flags: W
LayerCount: 2
Fore
SplineSet
1675.35 559.807 m 0,0,1
 1634.5 626 1634.5 626 1559.05 626 c 128,-1,2
 1483.63 626 1483.63 626 1442.28 559.855 c 0,3,4
 1402.3 495.903 1402.3 495.903 1402.3 379 c 0,5,6
 1402.3 261.126 1402.3 261.126 1441.76 197.193 c 0,7,8
 1482.61 131 1482.61 131 1559.05 131 c 128,-1,9
 1635.52 131 1635.52 131 1675.87 197.243 c 0,10,11
 1715 261.16 1715 261.16 1715 379 c 0,12,13
 1715 495.876 1715 495.876 1675.35 559.807 c 0,0,1
1276.71 668.462 m 128,-1,15
 1379.8 774 1379.8 774 1559.05 774 c 0,16,17
 1738.82 774 1738.82 774 1842.9 668.962 c 128,-1,18
 1947 563.892 1947 563.892 1947 379 c 128,-1,19
 1947 194.081 1947 194.081 1842.85 87.4893 c 128,-1,20
 1738.8 -19 1738.8 -19 1559.05 -19 c 0,21,22
 1379.82 -19 1379.82 -19 1276.75 87.5059 c 128,-1,23
 1173.59 194.088 1173.59 194.088 1173.59 379 c 0,24,14
 1173.59 562.888 1173.59 562.888 1276.71 668.462 c 128,-1,15
1558.35 1510 m 1,25,-1
 649.491 -19 l 1,26,-1
 454.641 -19 l 1,27,-1
 1362.53 1510 l 1,28,-1
 1558.35 1510 l 1,25,-1
169.637 1404.5 m 128,-1,30
 273.201 1510 273.201 1510 452.967 1510 c 0,31,32
 632.187 1510 632.187 1510 734.282 1404.5 c 128,-1,33
 836.448 1298.92 836.448 1298.92 836.448 1114 c 128,-1,34
 836.448 929.076 836.448 929.076 734.266 822.988 c 128,-1,35
 632.18 717 632.18 717 452.967 717 c 0,36,37
 273.208 717 273.208 717 169.652 822.988 c 128,-1,38
 66 929.076 66 929.076 66 1114 c 128,-1,29
 66 1298.92 66 1298.92 169.637 1404.5 c 128,-1,30
569.751 1295.32 m 0,39,40
 528.402 1362 528.402 1362 452.967 1362 c 0,41,42
 376.544 1362 376.544 1362 335.198 1295.32 c 0,43,44
 295 1230.88 295 1230.88 295 1114 c 0,45,46
 295 996.137 295 996.137 335.18 931.206 c 0,47,48
 376.52 864 376.52 864 452.967 864 c 128,-1,49
 529.453 864 529.453 864 570.293 931.255 c 0,50,51
 609.711 996.169 609.711 996.169 609.711 1114 c 0,52,53
 609.711 1230.89 609.711 1230.89 569.751 1295.32 c 0,39,40
EndSplineSet
EndChar

StartChar: ampersand
Encoding: 38 38 6
Width: 1786
GlyphClass: 2
Flags: W
LayerCount: 2
Fore
SplineSet
791.595 984.28 m 2,0,-1
 1208.7 525.36 l 1,1,-1
 1215.97 534.964 l 2,2,3
 1270.01 606.337 1270.01 606.337 1298.04 694.986 c 0,4,5
 1324.68 779.29 1324.68 779.29 1330.51 885 c 1,6,-1
 1621.1 885 l 1,7,8
 1605.33 710.615 1605.33 710.615 1552.19 574.64 c 0,9,10
 1497.38 434.422 1497.38 434.422 1399.66 328.791 c 2,11,-1
 1393.43 322.056 l 1,12,-1
 1677.38 10 l 1,13,-1
 1280.46 10 l 1,14,-1
 1179.65 122.12 l 1,15,-1
 1172.45 117.321 l 2,16,17
 1068.73 48.1668 1068.73 48.1668 954.187 14.5963 c 128,-1,18
 839.561 -19 839.561 -19 711 -19 c 0,19,20
 451.685 -19 451.685 -19 291.987 117.111 c 0,21,22
 133 252.615 133 252.615 133 467 c 0,23,24
 133 610.088 133 610.088 202.94 720.136 c 0,25,26
 273.276 830.807 273.276 830.807 433.475 935.632 c 2,27,-1
 442.639 941.628 l 1,28,-1
 435.837 950.211 l 2,29,30
 394.808 1001.99 394.808 1001.99 375.356 1053.53 c 0,31,32
 356 1104.82 356 1104.82 356 1161 c 0,33,34
 356 1319.08 356 1319.08 479.109 1414.08 c 0,35,36
 603.399 1510 603.399 1510 811 1510 c 0,37,38
 901.265 1510 901.265 1510 999.04 1495.61 c 0,39,40
 1093.25 1481.74 1093.25 1481.74 1196 1454.33 c 1,41,-1
 1196 1200.22 l 1,42,43
 1108.98 1243.2 1108.98 1243.2 1030.64 1264.65 c 0,44,45
 945.33 1288 945.33 1288 864 1288 c 0,46,47
 783.87 1288 783.87 1288 738.798 1256.71 c 0,48,49
 692 1224.23 692 1224.23 692 1165 c 0,50,51
 692 1128.38 692 1128.38 717.787 1082.59 c 0,52,53
 742.83 1038.13 742.83 1038.13 791.595 984.28 c 2,0,-1
594.141 751.104 m 2,54,55
 527.336 702.8 527.336 702.8 493.255 641.35 c 0,56,57
 459 579.586 459 579.586 459 506 c 0,58,59
 459 386.717 459 386.717 547.101 302.761 c 0,60,61
 634.997 219 634.997 219 758 219 c 0,62,63
 826.718 219 826.718 219 886.332 240.072 c 128,-1,64
 945.991 261.159 945.991 261.159 997.341 303.267 c 2,65,-1
 1005.46 309.925 l 1,66,-1
 601.401 756.354 l 1,67,-1
 594.141 751.104 l 2,54,55
EndSplineSet
EndChar

StartChar: quotesingle
Encoding: 39 39 7
Width: 627
GlyphClass: 2
Flags: W
LayerCount: 2
Fore
SplineSet
422 1483 m 1,0,-1
 422 948 l 1,1,-1
 205 948 l 1,2,-1
 205 1483 l 1,3,-1
 422 1483 l 1,0,-1
EndSplineSet
EndChar

StartChar: parenleft
Encoding: 40 40 8
Width: 936
GlyphClass: 2
Flags: W
GlyphCompositionVertical: 3  uni239D%0,0,44,2703 uni239C%1,44,44,2731 uni239B%0,44,0,2740
LayerCount: 2
Fore
SplineSet
755.263 -260 m 1,0,-1
 480.575 -260 l 1,1,2
 330.301 -16.2232 330.301 -16.2232 258.502 202.617 c 0,3,4
 186 423.6 186 423.6 186 641 c 128,-1,5
 186 858.425 186 858.425 259.004 1081.39 c 0,6,7
 331.3 1302.19 331.3 1302.19 480.57 1544 c 1,8,-1
 755.29 1544 l 1,9,10
 632.649 1313.6 632.649 1313.6 570.377 1093.22 c 0,11,12
 506 865.393 506 865.393 506 643 c 128,-1,13
 506 420.614 506 420.614 569.87 192.306 c 0,14,15
 631.669 -28.5993 631.669 -28.5993 755.263 -260 c 1,0,-1
EndSplineSet
EndChar

StartChar: parenright
Encoding: 41 41 9
Width: 936
GlyphClass: 2
Flags: W
GlyphCompositionVertical: 3  uni23A0%0,0,44,2703 uni239F%1,44,44,2731 uni239E%0,44,0,2740
LayerCount: 2
Fore
SplineSet
180.677 -260 m 1,0,1
 303.363 -28.5469 303.363 -28.5469 365.625 192.286 c 0,2,3
 430 420.615 430 420.615 430 643 c 128,-1,4
 430 865.393 430 865.393 365.623 1093.22 c 0,5,6
 303.351 1313.6 303.351 1313.6 180.71 1544 c 1,7,-1
 455.43 1544 l 1,8,9
 604.7 1302.19 604.7 1302.19 676.996 1081.39 c 0,10,11
 750 858.425 750 858.425 750 641 c 128,-1,12
 750 423.578 750 423.578 677.498 202.617 c 0,13,14
 605.685 -16.2472 605.685 -16.2472 455.425 -260 c 1,15,-1
 180.677 -260 l 1,0,1
EndSplineSet
EndChar

StartChar: asterisk
Encoding: 42 42 10
Width: 1071
GlyphClass: 2
Flags: W
LayerCount: 2
Fore
SplineSet
1016.4 1221.16 m 1,0,-1
 678.511 1044.03 l 1,1,-1
 1016.41 865.861 l 1,2,-1
 949.992 742.64 l 1,3,-1
 611 929.951 l 1,4,-1
 611 579 l 1,5,-1
 461 579 l 1,6,-1
 461 929.926 l 1,7,-1
 121.014 742.628 l 1,8,-1
 54.6148 865.817 l 1,9,-1
 396.693 1044.03 l 1,10,-1
 54.6261 1221.2 l 1,11,-1
 121.036 1344.41 l 1,12,-1
 461 1159.16 l 1,13,-1
 461 1510 l 1,14,-1
 611 1510 l 1,15,-1
 611 1159.14 l 1,16,-1
 949.97 1344.4 l 1,17,-1
 1016.4 1221.16 l 1,0,-1
EndSplineSet
EndChar

StartChar: plus
Encoding: 43 43 11
Width: 1716
GlyphClass: 2
Flags: W
LayerCount: 2
Fore
SplineSet
967 1274 m 1,0,-1
 967 750 l 1,1,-1
 1489 750 l 1,2,-1
 1489 534 l 1,3,-1
 967 534 l 1,4,-1
 967 10 l 1,5,-1
 749 10 l 1,6,-1
 749 534 l 1,7,-1
 227 534 l 1,8,-1
 227 750 l 1,9,-1
 749 750 l 1,10,-1
 749 1274 l 1,11,-1
 967 1274 l 1,0,-1
EndSplineSet
EndChar

StartChar: comma
Encoding: 44 44 12
Width: 778
GlyphClass: 2
Flags: W
LayerCount: 2
Fore
SplineSet
219 377 m 1,0,-1
 559 377 l 1,1,-1
 559 85.0108 l 1,2,-1
 316.628 -281 l 1,3,-1
 122.034 -281 l 1,4,-1
 219 80.6828 l 1,5,-1
 219 377 l 1,0,-1
EndSplineSet
EndChar

StartChar: hyphen
Encoding: 45 45 13
Width: 850
GlyphClass: 2
Flags: W
LayerCount: 2
Fore
SplineSet
121 725 m 1,0,-1
 729 725 l 1,1,-1
 729 454 l 1,2,-1
 121 454 l 1,3,-1
 121 725 l 1,0,-1
EndSplineSet
EndChar

StartChar: period
Encoding: 46 46 14
Width: 651
GlyphClass: 2
Flags: W
LayerCount: 2
Fore
SplineSet
472 226 m 6,0,-1
 472 64 l 6,1,2
 472 0 472 0 406 0 c 6,3,-1
 249 0 l 6,4,5
 179 0 179 0 179 68 c 6,6,-1
 179 224 l 6,7,8
 179 300 179 300 248 300 c 6,9,-1
 404 300 l 6,10,11
 472 300 472 300 472 226 c 6,0,-1
EndSplineSet
EndChar

StartChar: slash
Encoding: 47 47 15
Width: 748
GlyphClass: 2
Flags: W
LayerCount: 2
Fore
SplineSet
533.352 1483 m 1,0,-1
 734.39 1483 l 1,1,-1
 213.653 -180 l 1,2,-1
 13.6024 -180 l 1,3,-1
 533.352 1483 l 1,0,-1
EndSplineSet
EndChar

StartChar: colon
Encoding: 58 58 16
Width: 690
GlyphClass: 2
Flags: W
LayerCount: 2
Fore
SplineSet
491.5 886.3 m 2,0,-1
 491.5 724.3 l 2,1,2
 491.5 660.3 491.5 660.3 425.5 660.3 c 2,3,-1
 268.5 660.3 l 2,4,5
 198.5 660.3 198.5 660.3 198.5 728.3 c 2,6,-1
 198.5 884.3 l 2,7,8
 198.5 960.3 198.5 960.3 267.5 960.3 c 2,9,-1
 423.5 960.3 l 2,10,11
 491.5 960.3 491.5 960.3 491.5 886.3 c 2,0,-1
491.5 226.3 m 2,12,-1
 491.5 64.2998 l 2,13,14
 491.5 0.299805 491.5 0.299805 425.5 0.299805 c 2,15,-1
 268.5 0.299805 l 2,16,17
 198.5 0.299805 198.5 0.299805 198.5 68.2998 c 2,18,-1
 198.5 224.3 l 2,19,20
 198.5 300.3 198.5 300.3 267.5 300.3 c 2,21,-1
 423.5 300.3 l 2,22,23
 491.5 300.3 491.5 300.3 491.5 226.3 c 2,12,-1
EndSplineSet
EndChar

StartChar: semicolon
Encoding: 59 59 17
Width: 819
GlyphClass: 2
Flags: W
LayerCount: 2
Fore
SplineSet
239 377 m 1,0,-1
 580 377 l 1,1,-1
 580 85.021 l 1,2,-1
 336.64 -281 l 1,3,-1
 142.034 -281 l 1,4,-1
 239 80.6828 l 1,5,-1
 239 377 l 1,0,-1
239 1110 m 1,6,-1
 580 1110 l 1,7,-1
 580 743 l 1,8,-1
 239 743 l 1,9,-1
 239 1110 l 1,6,-1
EndSplineSet
EndChar

StartChar: less
Encoding: 60 60 18
Width: 1716
GlyphClass: 2
Flags: W
LayerCount: 2
Fore
SplineSet
1489 980.132 m 1,0,-1
 504.207 640.971 l 1,1,-1
 1489 303.854 l 1,2,-1
 1489 75.2437 l 1,3,-1
 227 531.021 l 1,4,-1
 227 752.979 l 1,5,-1
 1489 1208.76 l 1,6,-1
 1489 980.132 l 1,0,-1
EndSplineSet
EndChar

StartChar: equal
Encoding: 61 61 19
Width: 1716
GlyphClass: 2
Flags: W
GlyphCompositionHorizontal: 2  equal%0,0,44,1433 equal%1,44,0,1433
LayerCount: 2
Fore
SplineSet
227 977 m 1,0,-1
 1489 977 l 1,1,-1
 1489 762 l 1,2,-1
 227 762 l 1,3,-1
 227 977 l 1,0,-1
227 522 m 1,4,-1
 1489 522 l 1,5,-1
 1489 305 l 1,6,-1
 227 305 l 1,7,-1
 227 522 l 1,4,-1
EndSplineSet
EndChar

StartChar: greater
Encoding: 62 62 20
Width: 1716
GlyphClass: 2
Flags: W
LayerCount: 2
Fore
SplineSet
227 980.135 m 1,0,-1
 227 1208.76 l 1,1,-1
 1489 752.979 l 1,2,-1
 1489 531.021 l 1,3,-1
 227 75.2437 l 1,4,-1
 227 303.851 l 1,5,-1
 1212.82 640.971 l 1,6,-1
 227 980.135 l 1,0,-1
EndSplineSet
EndChar

StartChar: question
Encoding: 63 63 21
Width: 1188
GlyphClass: 2
Flags: W
LayerCount: 2
Fore
SplineSet
699 514 m 1,0,-1
 358 514 l 1,1,-1
 358 553 l 2,2,3
 358 632.555 358 632.555 389.873 693.889 c 0,4,5
 422.069 755.842 422.069 755.842 526.715 852.59 c 1,6,-1
 590.74 910.612 l 2,7,8
 648.885 963.656 648.885 963.656 676.165 1011.01 c 0,9,10
 704 1059.32 704 1059.32 704 1108 c 0,11,12
 704 1182.72 704 1182.72 652.354 1225.22 c 0,13,14
 601.582 1267 601.582 1267 512 1267 c 0,15,16
 429.273 1267 429.273 1267 333.643 1232.92 c 0,17,18
 245.866 1201.64 245.866 1201.64 151 1142.23 c 1,19,-1
 151 1430.87 l 1,20,21
 267.686 1470.93 267.686 1470.93 363.961 1490.19 c 0,22,23
 462.966 1510 462.966 1510 555 1510 c 0,24,25
 795.584 1510 795.584 1510 920.863 1412.6 c 0,26,27
 1045 1316.1 1045 1316.1 1045 1130 c 0,28,29
 1045 1034.37 1045 1034.37 1007.07 958.995 c 0,30,31
 968.849 883.053 968.849 883.053 876.236 795.367 c 1,32,-1
 812.304 738.427 l 1,33,34
 743.063 675.294 743.063 675.294 721.275 636.386 c 0,35,36
 699 596.608 699 596.608 699 549 c 2,37,-1
 699 514 l 1,0,-1
358 346 m 1,38,-1
 699 346 l 1,39,-1
 699 10 l 1,40,-1
 358 10 l 1,41,-1
 358 346 l 1,38,-1
EndSplineSet
EndChar

StartChar: at
Encoding: 64 64 22
Width: 2048
GlyphClass: 2
Flags: W
LayerCount: 2
Fore
SplineSet
821 539 m 0,0,1
 821 412.704 821 412.704 875.459 339.055 c 0,2,3
 930.958 264 930.958 264 1026 264 c 0,4,5
 1120.04 264 1120.04 264 1176.03 339.545 c 0,6,7
 1231 413.701 1231 413.701 1231 539 c 0,8,9
 1231 663.365 1231 663.365 1175.47 736.545 c 0,10,11
 1118.96 811 1118.96 811 1024 811 c 0,12,13
 930.98 811 930.98 811 875.48 736.473 c 0,14,15
 821 663.316 821 663.316 821 539 c 0,0,1
1231.79 241.892 m 2,16,17
 1203.07 173.923 1203.07 173.923 1139.39 136.098 c 0,18,19
 1075.25 98 1075.25 98 989 98 c 0,20,21
 821.58 98 821.58 98 717.069 219.035 c 0,22,23
 612 340.716 612 340.716 612 537 c 128,-1,24
 612 733.268 612 733.268 717.567 855.462 c 0,25,26
 822.567 977 822.567 977 989 977 c 0,27,28
 1075.22 977 1075.22 977 1139.35 938.431 c 0,29,30
 1203.06 900.106 1203.06 900.106 1231.79 832.108 c 2,31,-1
 1251 786.641 l 1,32,-1
 1251 957 l 1,33,-1
 1440 957 l 1,34,-1
 1440 262.351 l 1,35,-1
 1451.51 264.115 l 2,36,37
 1579.71 283.76 1579.71 283.76 1653.17 387.73 c 0,38,39
 1726 490.82 1726 490.82 1726 651 c 0,40,41
 1726 752.607 1726 752.607 1696.49 841.646 c 128,-1,42
 1666.93 930.853 1666.93 930.853 1606.83 1005.22 c 1,43,44
 1510.41 1129.04 1510.41 1129.04 1365.7 1196.07 c 0,45,46
 1221.22 1263 1221.22 1263 1053 1263 c 0,47,48
 935.599 1263 935.599 1263 828.235 1232.11 c 128,-1,49
 720.797 1201.2 720.797 1201.2 629.479 1141.34 c 0,50,51
 479.355 1041.93 479.355 1041.93 395.666 884.187 c 128,-1,52
 312 726.486 312 726.486 312 543 c 0,53,54
 312 392.026 312 392.026 366.247 259.707 c 128,-1,55
 420.514 127.34 420.514 127.34 523.001 25.8579 c 0,56,57
 624.439 -73.5488 624.439 -73.5488 755.805 -125.792 c 128,-1,58
 887.081 -178 887.081 -178 1036 -178 c 0,59,60
 1163.81 -178 1163.81 -178 1291.49 -130.369 c 0,61,62
 1412.69 -85.1592 1412.69 -85.1592 1500.99 -9.10147 c 1,63,-1
 1596.53 -153.744 l 1,64,65
 1475.51 -245.718 1475.51 -245.718 1334.2 -295.059 c 0,66,67
 1188.31 -346 1188.31 -346 1038 -346 c 0,68,69
 854.916 -346 854.916 -346 692.709 -281.213 c 128,-1,70
 530.56 -216.45 530.56 -216.45 403.987 -92.8456 c 128,-1,71
 277.479 30.6941 277.479 30.6941 211.261 193.272 c 128,-1,72
 145 355.957 145 355.957 145 543 c 0,73,74
 145 723.019 145 723.019 212.246 886.19 c 128,-1,75
 279.493 1049.37 279.493 1049.37 404.014 1172.87 c 0,76,77
 528.622 1295.5 528.622 1295.5 694.262 1362.73 c 128,-1,78
 859.981 1430 859.981 1430 1038 1430 c 0,79,80
 1259.8 1430 1259.8 1430 1440.77 1345.44 c 128,-1,81
 1621.57 1260.96 1621.57 1260.96 1743.06 1101.92 c 0,82,83
 1817.04 1005.27 1817.04 1005.27 1855.02 892.313 c 128,-1,84
 1893 779.367 1893 779.367 1893 655 c 0,85,86
 1893 388.388 1893 388.388 1733.23 241.358 c 0,87,88
 1573.1 94 1573.1 94 1280 94 c 2,89,-1
 1251 94 l 1,90,-1
 1251 287.359 l 1,91,-1
 1231.79 241.892 l 2,16,17
EndSplineSet
EndChar

StartChar: bracketleft
Encoding: 91 91 23
Width: 936
GlyphClass: 2
Flags: W
GlyphCompositionVertical: 3  uni23A3%0,0,44,2703 uni23A2%1,44,44,2731 uni23A1%0,44,0,2699
LayerCount: 2
Fore
SplineSet
186 1546 m 1,0,-1
 787 1546 l 1,1,-1
 787 1341 l 1,2,-1
 506 1341 l 1,3,-1
 506 -55 l 1,4,-1
 787 -55 l 1,5,-1
 787 -260 l 1,6,-1
 186 -260 l 1,7,-1
 186 1546 l 1,0,-1
EndSplineSet
EndChar

StartChar: backslash
Encoding: 92 92 24
Width: 748
GlyphClass: 2
Flags: W
LayerCount: 2
Fore
SplineSet
533.352 -180 m 1,0,-1
 13.6024 1483 l 1,1,-1
 213.653 1483 l 1,2,-1
 734.39 -180 l 1,3,-1
 533.352 -180 l 1,0,-1
EndSplineSet
EndChar

StartChar: bracketright
Encoding: 93 93 25
Width: 936
GlyphClass: 2
Flags: W
GlyphCompositionVertical: 3  uni23A6%0,0,44,2687 uni23A5%1,44,44,2713 uni23A4%0,44,0,2699
LayerCount: 2
Fore
SplineSet
750 -260 m 1,0,-1
 149 -260 l 1,1,-1
 149 -55 l 1,2,-1
 430 -55 l 1,3,-1
 430 1341 l 1,4,-1
 149 1341 l 1,5,-1
 149 1546 l 1,6,-1
 750 1546 l 1,7,-1
 750 -260 l 1,0,-1
EndSplineSet
EndChar

StartChar: asciicircum
Encoding: 94 94 26
Width: 1716
GlyphClass: 2
Flags: W
LayerCount: 2
Fore
SplineSet
976.701 1483 m 1,0,-1
 1485.74 946 l 1,1,-1
 1271.28 946 l 1,2,-1
 857.993 1249.41 l 1,3,-1
 445.717 946 l 1,4,-1
 230.258 946 l 1,5,-1
 739.299 1483 l 1,6,-1
 976.701 1483 l 1,0,-1
EndSplineSet
EndChar

StartChar: underscore
Encoding: 95 95 27
Width: 1024
GlyphClass: 2
Flags: W
GlyphCompositionHorizontal: 2  underscore%0,0,44,1188 underscore%1,44,0,1188
LayerCount: 2
Fore
SplineSet
1014 -303 m 1,0,-1
 1014 -473 l 1,1,-1
 10 -473 l 1,2,-1
 10 -303 l 1,3,-1
 1014 -303 l 1,0,-1
EndSplineSet
EndChar

StartChar: grave
Encoding: 96 96 28
Width: 1024
GlyphClass: 2
Flags: W
LayerCount: 2
Fore
SplineSet
372 1628 m 1,0,-1
 639 1272 l 1,1,-1
 467.197 1272 l 1,2,-1
 117.825 1628 l 1,3,-1
 372 1628 l 1,0,-1
EndSplineSet
EndChar

StartChar: braceleft
Encoding: 123 123 29
Width: 1458
GlyphClass: 2
Flags: W
GlyphCompositionVertical: 5  uni23A9%0,0,44,2700 uni23AA%1,44,44,2742 uni23A8%0,44,44,2727 uni23AA%1,44,44,2742 uni23A7%0,44,0,2719
LayerCount: 2
Fore
SplineSet
1192 -119 m 1,0,-1
 1192 -324 l 1,1,-1
 985 -324 l 2,2,3
 770.776 -324 770.776 -324 673.606 -238.493 c 0,4,5
 577 -153.481 577 -153.481 577 35 c 2,6,-1
 577 227 l 2,7,8
 577 380.91 577 380.91 520.348 442.283 c 0,9,10
 463.378 504 463.378 504 317 504 c 2,11,-1
 266 504 l 1,12,-1
 266 707 l 1,13,-1
 317 707 l 2,14,15
 463.353 707 463.353 707 520.319 768.186 c 0,16,17
 577 829.066 577 829.066 577 983 c 2,18,-1
 577 1188 l 2,19,20
 577 1376.47 577 1376.47 673.585 1460.97 c 0,21,22
 770.764 1546 770.764 1546 985 1546 c 2,23,-1
 1192 1546 l 1,24,-1
 1192 1341 l 1,25,-1
 1133 1341 l 2,26,27
 987.787 1341 987.787 1341 942.347 1294.49 c 128,-1,28
 897 1248.07 897 1248.07 897 1102 c 2,29,-1
 897 936 l 2,30,31
 897 781.904 897 781.904 853.554 713.353 c 0,32,33
 810.762 645.836 810.762 645.836 704.784 621.751 c 2,34,-1
 663.332 612.33 l 1,35,-1
 704.636 602.283 l 2,36,37
 811.684 576.248 811.684 576.248 854.027 508.689 c 0,38,39
 897 440.125 897 440.125 897 287 c 2,40,-1
 897 121 l 2,41,42
 897 -26.0754 897 -26.0754 942.347 -72.4884 c 128,-1,43
 987.791 -119 987.791 -119 1133 -119 c 2,44,-1
 1192 -119 l 1,0,-1
EndSplineSet
EndChar

StartChar: bar
Encoding: 124 124 30
Width: 748
GlyphClass: 2
Flags: W
GlyphCompositionVertical: 2  bar%0,0,44,2287 bar%1,44,0,2287
LayerCount: 2
Fore
SplineSet
477 1555 m 1,0,-1
 477 -473 l 1,1,-1
 270 -473 l 1,2,-1
 270 1555 l 1,3,-1
 477 1555 l 1,0,-1
EndSplineSet
EndChar

StartChar: braceright
Encoding: 125 125 31
Width: 1458
GlyphClass: 2
Flags: W
GlyphCompositionVertical: 5  uni23AD%0,0,44,2700 uni23AA%1,44,44,2742 uni23AC%0,44,44,2727 uni23AA%1,44,44,2742 uni23AB%0,44,0,2719
LayerCount: 2
Fore
SplineSet
266 -119 m 1,0,-1
 326 -119 l 2,1,2
 470.209 -119 470.209 -119 515.653 -72.4884 c 128,-1,3
 561 -26.0753 561 -26.0753 561 121 c 2,4,-1
 561 287 l 2,5,6
 561 440.099 561 440.099 604.446 508.647 c 0,7,8
 647.288 576.241 647.288 576.241 754.364 602.283 c 2,9,-1
 795.849 612.375 l 1,10,-1
 754.197 621.756 l 2,11,12
 647.231 645.847 647.231 645.847 604.446 713.353 c 0,13,14
 561 781.904 561 781.904 561 936 c 2,15,-1
 561 1102 l 2,16,17
 561 1248.07 561 1248.07 515.653 1294.49 c 128,-1,18
 470.213 1341 470.213 1341 326 1341 c 2,19,-1
 266 1341 l 1,20,-1
 266 1546 l 1,21,-1
 473 1546 l 2,22,23
 687.236 1546 687.236 1546 784.415 1460.97 c 0,24,25
 881 1376.47 881 1376.47 881 1188 c 2,26,-1
 881 983 l 2,27,28
 881 829.066 881 829.066 937.681 768.186 c 0,29,30
 994.647 707 994.647 707 1141 707 c 2,31,-1
 1192 707 l 1,32,-1
 1192 504 l 1,33,-1
 1141 504 l 2,34,35
 994.622 504 994.622 504 937.652 442.283 c 0,36,37
 881 380.91 881 380.91 881 227 c 2,38,-1
 881 35 l 2,39,40
 881 -153.481 881 -153.481 784.394 -238.493 c 0,41,42
 687.224 -324 687.224 -324 473 -324 c 2,43,-1
 266 -324 l 1,44,-1
 266 -119 l 1,0,-1
EndSplineSet
EndChar

StartChar: asciitilde
Encoding: 126 126 32
Width: 1716
GlyphClass: 2
Flags: W
LayerCount: 2
Fore
SplineSet
1489 828.987 m 1,0,-1
 1489 610.993 l 1,1,2
 1386.15 534.077 1386.15 534.077 1299.9 500.831 c 0,3,4
 1212.14 467 1212.14 467 1118 467 c 0,5,6
 1012.95 467 1012.95 467 871.85 524.23 c 0,7,8
 858.359 530.012 858.359 530.012 849.721 533.285 c 0,9,10
 842.189 536.495 842.189 536.495 827.662 542.305 c 0,11,12
 670.896 604 670.896 604 575 604 c 0,13,14
 484.871 604 484.871 604 396.914 564.627 c 0,15,16
 317.076 528.889 317.076 528.889 227 455.331 c 1,17,-1
 227 672.98 l 1,18,19
 330.822 749.918 330.822 749.918 416.614 783.176 c 0,20,21
 503.867 817 503.867 817 598 817 c 0,22,23
 703.046 817 703.046 817 844.286 759.715 c 0,24,25
 859.177 753.758 859.177 753.758 866.061 750.809 c 0,26,27
 873.157 747.768 873.157 747.768 888.338 741.695 c 0,28,29
 1045.1 680 1045.1 680 1141 680 c 0,30,31
 1229.12 680 1229.12 680 1315.56 718.36 c 0,32,33
 1394.49 753.39 1394.49 753.39 1489 828.987 c 1,0,-1
EndSplineSet
EndChar

StartChar: afii57388
Encoding: 1548 1548 34
Width: 664
GlyphClass: 2
Flags: W
LayerCount: 2
Fore
SplineSet
363.19 343.883 m 1,0,1
 471.472 338.939 471.472 338.939 496.842 308.077 c 0,2,3
 522.258 279.092 522.258 279.092 522.258 234.32 c 2,4,-1
 522.258 114.65 l 2,5,6
 522.258 61.6777 522.258 61.6777 491.533 30.6445 c 0,7,8
 460.341 -0.859375 460.341 -0.859375 406.357 -0.859375 c 2,9,-1
 315.147 -0.859375 l 2,10,11
 246.495 -0.859375 246.495 -0.859375 211.969 39.1992 c 0,12,13
 185.327 70.1094 185.327 70.1094 185.327 117.881 c 2,14,-1
 185.327 256.672 l 1,15,-1
 185.543 259.015 l 2,16,17
 206.182 483.056 206.182 483.056 412.729 658.691 c 2,18,-1
 438.406 680.525 l 1,19,-1
 564.269 606.1 l 1,20,21
 414.182 518.003 414.182 518.003 363.19 343.883 c 1,0,1
EndSplineSet
EndChar

StartChar: uni0615
Encoding: 1557 1557 35
Width: 0
GlyphClass: 4
Flags: W
LayerCount: 2
Fore
SplineSet
466.096 1456.96 m 1,0,-1
 552.12 1456.96 l 2,1,2
 639.138 1456.96 639.138 1456.96 665.862 1472.75 c 0,3,4
 697.288 1492.32 697.288 1492.32 713.059 1508.3 c 128,-1,5
 728.83 1524.27 728.83 1524.27 728.83 1541.65 c 0,6,7
 728.83 1583.09 728.83 1583.09 689.03 1604.94 c 1,8,9
 681.399 1607.6 681.399 1607.6 672.751 1605.46 c 128,-1,10
 664.102 1603.31 664.102 1603.31 640.309 1592.64 c 128,-1,11
 616.515 1581.97 616.515 1581.97 601.865 1576.19 c 0,12,13
 543.049 1552.44 543.049 1552.44 483.147 1478.12 c 2,14,-1
 466.096 1456.96 l 1,0,-1
576.73 1374.89 m 2,15,-1
 282.64 1374.89 l 1,16,-1
 282.64 1456.96 l 1,17,-1
 369.31 1456.96 l 1,18,-1
 369.31 1883.89 l 1,19,-1
 452.45 1883.89 l 1,20,-1
 452.45 1497.67 l 1,21,-1
 477.109 1547.67 l 2,22,23
 513.381 1621.22 513.381 1621.22 619.878 1662.18 c 0,24,25
 682.718 1686.12 682.718 1686.12 752.956 1660.03 c 0,26,27
 814.11 1636.51 814.11 1636.51 814.11 1557.7 c 0,28,29
 814.11 1466.67 814.11 1466.67 750.648 1417.09 c 0,30,31
 696.384 1374.89 696.384 1374.89 576.73 1374.89 c 2,15,-1
EndSplineSet
EndChar

StartChar: uni061B
Encoding: 1563 1563 36
Width: 654
GlyphClass: 2
Flags: W
LayerCount: 2
Fore
SplineSet
478.5 226.3 m 2,0,-1
 478.5 64.2998 l 2,1,2
 478.5 0.299805 478.5 0.299805 412.5 0.299805 c 2,3,-1
 255.5 0.299805 l 2,4,5
 185.5 0.299805 185.5 0.299805 185.5 68.2998 c 2,6,-1
 185.5 224.3 l 2,7,8
 185.5 300.3 185.5 300.3 254.5 300.3 c 2,9,-1
 410.5 300.3 l 2,10,11
 478.5 300.3 478.5 300.3 478.5 226.3 c 2,0,-1
344.138 770.653 m 1,12,13
 437.662 766.463 437.662 766.463 462.745 752.271 c 4,14,15
 503.205 730.77 503.205 730.77 503.205 666.091 c 2,16,-1
 503.205 546.421 l 2,17,18
 503.205 430.911 503.205 430.911 387.305 430.911 c 2,19,-1
 296.095 430.911 l 2,20,21
 166.274 430.911 166.274 430.911 166.274 549.651 c 2,22,-1
 166.274 688.442 l 1,23,-1
 166.49 690.785 l 2,24,25
 187.129 914.826 187.129 914.826 393.677 1090.46 c 2,26,-1
 419.354 1112.3 l 1,27,-1
 545.216 1037.87 l 1,28,29
 396.904 949.773 396.904 949.773 344.138 770.653 c 1,12,13
EndSplineSet
EndChar

StartChar: uni061F
Encoding: 1567 1567 37
Width: 1087
GlyphClass: 2
Flags: W
LayerCount: 2
Fore
SplineSet
745 226 m 2,0,-1
 745 64 l 2,1,2
 745 0 745 0 679 0 c 2,3,-1
 522 0 l 2,4,5
 452 0 452 0 452 68 c 2,6,-1
 452 224 l 2,7,8
 452 300 452 300 521 300 c 2,9,-1
 677 300 l 2,10,11
 745 300 745 300 745 226 c 2,0,-1
452 430 m 1,12,-1
 452 467 l 2,13,14
 452 516.46 452 516.46 449.253 543.926 c 0,15,16
 446.801 568.448 446.801 568.448 442.188 585.189 c 0,17,18
 436.52 602.116 436.52 602.116 422.424 621.272 c 0,19,20
 402.581 648.236 402.581 648.236 361.354 688.525 c 2,21,-1
 273.558 774.326 l 1,22,23
 177.735 865.89 177.735 865.89 137.854 941.774 c 0,24,25
 96 1021.42 96 1021.42 96 1110 c 0,26,27
 96 1292.23 96 1292.23 225.026 1404.48 c 0,28,29
 350.915 1514 350.915 1514 554 1514 c 0,30,31
 664.259 1514 664.259 1514 767.712 1483.98 c 0,32,33
 870.698 1454.09 870.698 1454.09 970.443 1393.61 c 2,34,-1
 1010.65 1369.23 l 1,35,-1
 895.223 1138.54 l 1,36,-1
 849.069 1163.06 l 2,37,38
 690.881 1247.12 690.881 1247.12 588.78 1248 c 0,39,40
 499.57 1248 499.57 1248 448.296 1204.94 c 0,41,42
 401 1165.23 401 1165.23 401 1100 c 0,43,44
 401 1063.94 401 1063.94 420.327 1028.32 c 0,45,46
 441.846 988.662 441.846 988.662 493.303 940.814 c 1,47,-1
 583.538 851.582 l 1,48,49
 680.895 758.332 680.895 758.332 712.839 684.177 c 0,50,51
 745 609.521 745 609.521 745 498 c 2,52,-1
 745 430 l 1,53,-1
 452 430 l 1,12,-1
EndSplineSet
EndChar

StartChar: uni0621
Encoding: 1569 1569 38
Width: 802
VWidth: 2232
GlyphClass: 2
Flags: W
AnchorPoint: "Anchor-7" 450 -188 basechar 0
AnchorPoint: "Anchor-10" 379.5 1140.5 basechar 0
LayerCount: 2
Fore
SplineSet
129.809 223.73 m 2,0,1
 183 235.887 183 235.887 240.774 257.136 c 1,2,-1
 243.53 258.203 l 1,3,4
 169.827 296.014 169.827 296.014 131.798 361.051 c 128,-1,5
 93.7676 426.088 93.7676 426.088 93.7676 511.414 c 0,6,7
 93.7676 604.663 93.7676 604.663 131.983 677.736 c 128,-1,8
 170.199 750.81 170.199 750.81 244.423 796.546 c 0,9,10
 388.432 885.283 388.432 885.283 604.049 837.568 c 2,11,-1
 644.029 828.722 l 1,12,-1
 644.029 591.146 l 1,13,-1
 579.175 609.453 l 2,14,15
 509.547 629.107 509.547 629.107 461.146 627.725 c 0,16,17
 326.592 625.194 326.592 625.194 327.684 503.243 c 1,18,19
 337.768 348.676 337.768 348.676 563.062 396.587 c 4,20,21
 590.348 401.911 590.348 401.911 638.864 427.102 c 2,22,-1
 713.365 465.784 l 1,23,-1
 713.365 226.348 l 1,24,-1
 689.84 211.305 l 2,25,26
 607.406 158.592 607.406 158.592 434.491 91.1133 c 0,27,28
 248.783 18.7559 248.783 18.7559 150.24 0.947266 c 2,29,-1
 90.1709 -9.9082 l 1,30,-1
 90.1709 214.673 l 1,31,-1
 129.809 223.73 l 2,0,1
EndSplineSet
EndChar

StartChar: uni0627
Encoding: 1575 1575 44
Width: 544
VWidth: 2232
GlyphClass: 2
Flags: W
AnchorPoint: "Anchor-10" 246.5 1543 basechar 0
AnchorPoint: "Anchor-7" 265.5 -206.5 basechar 0
LayerCount: 2
Fore
SplineSet
115.752 1357.87 m 5,0,-1
 375.94 1470.65 l 5,1,-1
 375.94 1.5 l 5,2,-1
 169.99 1.5 l 5,3,-1
 115.752 1357.87 l 5,0,-1
EndSplineSet
Substitution2: "'fina' Terminal Forms in Arabic lookup 9 subtable" uniFE8E
EndChar

StartChar: uni062D
Encoding: 1581 1581 50
Width: 1458
VWidth: 2232
GlyphClass: 2
Flags: W
AnchorPoint: "Anchor-10" 555.5 1347 basechar 0
AnchorPoint: "Anchor-7" 487.84 -712.5 basechar 0
LayerCount: 2
Fore
SplineSet
1247.94 793.67 m 5,0,-1
 1211.55 569.358 l 5,1,-1
 1175.07 563.602 l 6,2,3
 1070.69 547.126 1070.69 547.126 871.974 491.492 c 4,4,5
 571.82 406.559 571.82 406.559 429.714 277.935 c 132,-1,6
 287.608 149.312 287.608 149.312 287.691 -21.5801 c 4,7,8
 287.738 -111.713 287.738 -111.713 323.062 -176.307 c 132,-1,9
 358.385 -240.899 358.385 -240.899 432.204 -286.65 c 4,10,11
 568.401 -371.062 568.401 -371.062 809.879 -351.507 c 4,12,13
 1056.81 -331.511 1056.81 -331.511 1254.82 -179.755 c 6,14,-1
 1309.44 -137.895 l 5,15,-1
 1400.51 -385.81 l 5,16,-1
 1367.48 -408.179 l 6,17,18
 1148.89 -556.22 1148.89 -556.22 908.607 -586.477 c 5,19,20
 667.079 -615.836 667.079 -615.836 484.504 -576.699 c 5,21,22
 283.146 -532.325 283.146 -532.325 169.455 -412.014 c 132,-1,23
 55.7637 -291.703 55.7637 -291.703 39.8691 -102.858 c 4,24,25
 16.5137 176.214 16.5137 176.214 190.594 375.244 c 132,-1,26
 364.674 574.275 364.674 574.275 720.749 688.812 c 5,27,28
 714.83 690.473 714.83 690.473 708.835 692.172 c 4,29,30
 606.048 721.313 606.048 721.313 539.246 728.029 c 4,31,32
 419.35 739.372 419.35 739.372 299.422 584.724 c 6,33,-1
 268.291 544.58 l 5,34,-1
 87.25 683.842 l 5,35,-1
 111.943 723.121 l 6,36,37
 180.033 831.432 180.033 831.432 294.925 917.009 c 4,38,39
 389.2 986.212 389.2 986.212 551.809 974.66 c 4,40,41
 645.362 968.014 645.362 968.014 890.658 875.988 c 4,42,43
 1034.03 822.2 1034.03 822.2 1179.47 802.273 c 4,44,45
 1187.42 801.184 1187.42 801.184 1195.4 800.192 c 6,46,-1
 1247.94 793.67 l 5,0,-1
EndSplineSet
Substitution2: "'fina' Terminal Forms in Arabic lookup 9 subtable" uniFEA2
Substitution2: "'medi' Medial Forms in Arabic lookup 11 subtable" uniFEA4
Substitution2: "'init' Initial Forms in Arabic lookup 13 subtable" uniFEA3
EndChar

StartChar: uni062F
Encoding: 1583 1583 52
Width: 1013
VWidth: 2232
GlyphClass: 2
Flags: W
AnchorPoint: "Anchor-10" 367.935 1264.81 basechar 0
AnchorPoint: "Anchor-7" 393.059 -235.422 basechar 0
LayerCount: 2
Fore
SplineSet
412.632 260.228 m 0,0,1
 579.16 260.228 579.16 260.228 644.107 316.652 c 0,2,3
 664.841 334.359 664.841 334.359 668.473 354.012 c 128,-1,4
 672.104 373.665 672.104 373.665 658.211 412.519 c 1,5,6
 573.844 623.588 573.844 623.588 362.511 813.595 c 2,7,-1
 329.162 843.578 l 1,8,-1
 488.062 1073.82 l 1,9,-1
 531.327 1031.32 l 2,10,11
 884.061 684.866 884.061 684.866 916.7 417.173 c 0,12,13
 933.83 276.684 933.83 276.684 852.288 158.151 c 1,14,15
 743.015 -4.15527 743.015 -4.15527 419.735 -9.4248 c 0,16,17
 200.153 -13.6465 200.153 -13.6465 67.9551 34.6582 c 2,18,-1
 34.458 46.8975 l 1,19,-1
 34.458 323.627 l 1,20,-1
 100.966 302.399 l 2,21,22
 236.081 259.271 236.081 259.271 412.632 260.228 c 0,0,1
EndSplineSet
Substitution2: "'fina' Terminal Forms in Arabic lookup 9 subtable" uniFEAA
EndChar

StartChar: uni0631
Encoding: 1585 1585 54
Width: 955
VWidth: 2237
GlyphClass: 2
Flags: W
AnchorPoint: "Anchor-7" 568 -646.5 basechar 0
AnchorPoint: "Anchor-10" 500.81 993.01 basechar 0
LayerCount: 2
Fore
SplineSet
843.107 92.4199 m 0,0,1
 801.674 -199.028 801.674 -199.028 625.734 -351.103 c 128,-1,2
 449.794 -503.177 449.794 -503.177 152.218 -505.229 c 2,3,-1
 121.783 -505.438 l 1,4,-1
 0.868164 -284.945 l 1,5,-1
 80.2871 -279.355 l 2,6,7
 330.221 -261.77 330.221 -261.77 454.869 -162.515 c 128,-1,8
 579.518 -63.2598 579.518 -63.2598 595.879 122.303 c 0,9,10
 604.227 216.253 604.227 216.253 526.381 501.786 c 2,11,-1
 516.875 536.652 l 1,12,-1
 742.475 692.315 l 1,13,-1
 764.684 629.501 l 2,14,15
 874.985 317.558 874.985 317.558 843.107 92.4199 c 0,0,1
EndSplineSet
PairPos2: "'kern' Horizontal Kerning lookup 15-1" uniFB58 dx=70 dy=0 dh=70 dv=0 dx=0 dy=0 dh=0 dv=0
PairPos2: "'kern' Horizontal Kerning lookup 15-1" uniFEF3 dx=70 dy=0 dh=70 dv=0 dx=0 dy=0 dh=0 dv=0
PairPos2: "'kern' Horizontal Kerning lookup 15-1" uniFBFE dx=70 dy=0 dh=70 dv=0 dx=0 dy=0 dh=0 dv=0
PairPos2: "'kern' Horizontal Kerning lookup 15-1" uniFEDF dx=-150 dy=0 dh=-150 dv=0 dx=0 dy=0 dh=0 dv=0
PairPos2: "'kern' Horizontal Kerning lookup 15-1" uniFBAC dx=-150 dy=0 dh=-150 dv=0 dx=0 dy=0 dh=0 dv=0
PairPos2: "'kern' Horizontal Kerning lookup 15-1" uniFB90 dx=-150 dy=0 dh=-150 dv=0 dx=0 dy=0 dh=0 dv=0
PairPos2: "'kern' Horizontal Kerning lookup 15-1" uni06A9 dx=-150 dy=0 dh=-150 dv=0 dx=0 dy=0 dh=0 dv=0
PairPos2: "'kern' Horizontal Kerning lookup 15-1" uni0649 dx=-100 dy=0 dh=-100 dv=0 dx=0 dy=0 dh=0 dv=0
PairPos2: "'kern' Horizontal Kerning lookup 15-1" uni0647 dx=-150 dy=0 dh=-150 dv=0 dx=0 dy=0 dh=0 dv=0
PairPos2: "'kern' Horizontal Kerning lookup 15-1" uniFEE7 dx=-150 dy=0 dh=-150 dv=0 dx=0 dy=0 dh=0 dv=0
PairPos2: "'kern' Horizontal Kerning lookup 15-1" uniFEE3 dx=-150 dy=0 dh=-150 dv=0 dx=0 dy=0 dh=0 dv=0
PairPos2: "'kern' Horizontal Kerning lookup 15-1" uni0645 dx=-150 dy=0 dh=-150 dv=0 dx=0 dy=0 dh=0 dv=0
PairPos2: "'kern' Horizontal Kerning lookup 15-1" uni0644 dx=-70 dy=0 dh=-70 dv=0 dx=0 dy=0 dh=0 dv=0
PairPos2: "'kern' Horizontal Kerning lookup 15-1" uniFEDB dx=-150 dy=0 dh=-150 dv=0 dx=0 dy=0 dh=0 dv=0
PairPos2: "'kern' Horizontal Kerning lookup 15-1" uniFED7 dx=-150 dy=0 dh=-150 dv=0 dx=0 dy=0 dh=0 dv=0
PairPos2: "'kern' Horizontal Kerning lookup 15-1" uni0642 dx=-70 dy=0 dh=-70 dv=0 dx=0 dy=0 dh=0 dv=0
PairPos2: "'kern' Horizontal Kerning lookup 15-1" uniFED3 dx=-150 dy=0 dh=-150 dv=0 dx=0 dy=0 dh=0 dv=0
PairPos2: "'kern' Horizontal Kerning lookup 15-1" uni0641 dx=-150 dy=0 dh=-150 dv=0 dx=0 dy=0 dh=0 dv=0
PairPos2: "'kern' Horizontal Kerning lookup 15-1" uniFECF dx=-70 dy=0 dh=-70 dv=0 dx=0 dy=0 dh=0 dv=0
PairPos2: "'kern' Horizontal Kerning lookup 15-1" uniFECB dx=-70 dy=0 dh=-70 dv=0 dx=0 dy=0 dh=0 dv=0
PairPos2: "'kern' Horizontal Kerning lookup 15-1" uniFEC7 dx=-150 dy=0 dh=-150 dv=0 dx=0 dy=0 dh=0 dv=0
PairPos2: "'kern' Horizontal Kerning lookup 15-1" uni0638 dx=-150 dy=0 dh=-150 dv=0 dx=0 dy=0 dh=0 dv=0
PairPos2: "'kern' Horizontal Kerning lookup 15-1" uniFEC3 dx=-150 dy=0 dh=-150 dv=0 dx=0 dy=0 dh=0 dv=0
PairPos2: "'kern' Horizontal Kerning lookup 15-1" uni0637 dx=-150 dy=0 dh=-150 dv=0 dx=0 dy=0 dh=0 dv=0
PairPos2: "'kern' Horizontal Kerning lookup 15-1" uniFEBF dx=-150 dy=0 dh=-150 dv=0 dx=0 dy=0 dh=0 dv=0
PairPos2: "'kern' Horizontal Kerning lookup 15-1" uni0636 dx=-150 dy=0 dh=-150 dv=0 dx=0 dy=0 dh=0 dv=0
PairPos2: "'kern' Horizontal Kerning lookup 15-1" uniFEBB dx=-150 dy=0 dh=-150 dv=0 dx=0 dy=0 dh=0 dv=0
PairPos2: "'kern' Horizontal Kerning lookup 15-1" uni0635 dx=-150 dy=0 dh=-150 dv=0 dx=0 dy=0 dh=0 dv=0
PairPos2: "'kern' Horizontal Kerning lookup 15-1" uniFEB7 dx=-150 dy=0 dh=-150 dv=0 dx=0 dy=0 dh=0 dv=0
PairPos2: "'kern' Horizontal Kerning lookup 15-1" uni0634 dx=-150 dy=0 dh=-150 dv=0 dx=0 dy=0 dh=0 dv=0
PairPos2: "'kern' Horizontal Kerning lookup 15-1" uniFEB3 dx=-150 dy=0 dh=-150 dv=0 dx=0 dy=0 dh=0 dv=0
PairPos2: "'kern' Horizontal Kerning lookup 15-1" uni0633 dx=-150 dy=0 dh=-150 dv=0 dx=0 dy=0 dh=0 dv=0
PairPos2: "'kern' Horizontal Kerning lookup 15-1" uni0630 dx=-150 dy=0 dh=-150 dv=0 dx=0 dy=0 dh=0 dv=0
PairPos2: "'kern' Horizontal Kerning lookup 15-1" uni062F dx=-150 dy=0 dh=-150 dv=0 dx=0 dy=0 dh=0 dv=0
PairPos2: "'kern' Horizontal Kerning lookup 15-1" uniFEA7 dx=-70 dy=0 dh=-70 dv=0 dx=0 dy=0 dh=0 dv=0
PairPos2: "'kern' Horizontal Kerning lookup 15-1" uniFEA3 dx=-70 dy=0 dh=-70 dv=0 dx=0 dy=0 dh=0 dv=0
PairPos2: "'kern' Horizontal Kerning lookup 15-1" uniFE9F dx=-70 dy=0 dh=-70 dv=0 dx=0 dy=0 dh=0 dv=0
PairPos2: "'kern' Horizontal Kerning lookup 15-1" uniFE9B dx=-150 dy=0 dh=-150 dv=0 dx=0 dy=0 dh=0 dv=0
PairPos2: "'kern' Horizontal Kerning lookup 15-1" uni062B dx=-150 dy=0 dh=-150 dv=0 dx=0 dy=0 dh=0 dv=0
PairPos2: "'kern' Horizontal Kerning lookup 15-1" uniFE97 dx=-150 dy=0 dh=-150 dv=0 dx=0 dy=0 dh=0 dv=0
PairPos2: "'kern' Horizontal Kerning lookup 15-1" uni062A dx=-150 dy=0 dh=-150 dv=0 dx=0 dy=0 dh=0 dv=0
PairPos2: "'kern' Horizontal Kerning lookup 15-1" uni0629 dx=-150 dy=0 dh=-150 dv=0 dx=0 dy=0 dh=0 dv=0
PairPos2: "'kern' Horizontal Kerning lookup 15-1" uniFE91 dx=-70 dy=0 dh=-70 dv=0 dx=0 dy=0 dh=0 dv=0
PairPos2: "'kern' Horizontal Kerning lookup 15-1" uni0628 dx=-150 dy=0 dh=-150 dv=0 dx=0 dy=0 dh=0 dv=0
PairPos2: "'kern' Horizontal Kerning lookup 15-1" uni0627 dx=-170 dy=0 dh=-170 dv=0 dx=0 dy=0 dh=0 dv=0
PairPos2: "'kern' Horizontal Kerning lookup 15-1" uni0622 dx=-170 dy=0 dh=-170 dv=0 dx=0 dy=0 dh=0 dv=0
PairPos2: "'kern' Horizontal Kerning lookup 15-1" uniFB94 dx=-150 dy=0 dh=-150 dv=0 dx=0 dy=0 dh=0 dv=0
PairPos2: "'kern' Horizontal Kerning lookup 15-1" afii57509 dx=-150 dy=0 dh=-150 dv=0 dx=0 dy=0 dh=0 dv=0
PairPos2: "'kern' Horizontal Kerning lookup 15-1" uniFB56 dx=-150 dy=0 dh=-150 dv=0 dx=0 dy=0 dh=0 dv=0
PairPos2: "'kern' Horizontal Kerning lookup 15-1" afii57506 dx=-150 dy=0 dh=-150 dv=0 dx=0 dy=0 dh=0 dv=0
Substitution2: "'fina' Terminal Forms in Arabic lookup 9 subtable" uniFEAE
EndChar

StartChar: uni0633
Encoding: 1587 1587 56
Width: 2312
VWidth: 2237
GlyphClass: 2
Flags: W
AnchorPoint: "Anchor-10" 492.51 897.5 basechar 0
AnchorPoint: "Anchor-7" 350.5 -669.03 basechar 0
LayerCount: 2
Fore
SplineSet
1868.39 273.023 m 0,0,1
 1943.6 266.681 1943.6 266.681 1957.44 312 c 0,2,3
 1976.16 376.375 1976.16 376.375 1965.16 467.659 c 0,4,5
 1958.94 519.315 1958.94 519.315 1928.59 686.862 c 2,6,-1
 1920.62 730.871 l 1,7,-1
 2153.58 805.527 l 1,8,-1
 2169.93 758.536 l 2,9,10
 2211.55 638.933 2211.55 638.933 2221.65 499.55 c 0,11,12
 2238.5 255.275 2238.5 255.275 2147.27 128.311 c 0,13,14
 2057.85 2.42773 2057.85 2.42773 1875.65 0.00488281 c 0,15,16
 1733.04 -1.93555 1733.04 -1.93555 1650.16 94.4219 c 1,17,18
 1576.67 3.91211 1576.67 3.91211 1432.95 1.54785 c 0,19,20
 1332.77 -0.0996094 1332.77 -0.0996094 1269.13 24.7188 c 1,21,22
 1242.42 -224.215 1242.42 -224.215 1087.19 -354.506 c 128,-1,23
 931.964 -484.797 931.964 -484.797 662.907 -488.246 c 0,24,25
 375.918 -491.925 375.918 -491.925 216.217 -352.588 c 128,-1,26
 56.5146 -213.252 56.5146 -213.252 40.4854 57.8438 c 0,27,28
 35.6602 139.457 35.6602 139.457 57.4072 251.545 c 0,29,30
 80.1027 368.52 80.1027 368.52 130.537 475.282 c 2,31,-1
 150.035 516.557 l 1,32,-1
 388.593 434.662 l 1,33,-1
 368.021 384.608 l 2,34,35
 284.623 181.697 284.623 181.697 301.347 55.3281 c 0,36,37
 320.672 -90.7041 320.672 -90.7041 405.854 -159.657 c 128,-1,38
 491.035 -228.611 491.035 -228.611 657.067 -229.072 c 0,39,40
 835.598 -229.558 835.598 -229.558 925.854 -159.755 c 128,-1,41
 1016.11 -89.9521 1016.11 -89.9521 1034.52 57.3262 c 0,42,43
 1058.79 251.534 1058.79 251.534 939.628 403.696 c 2,44,-1
 911.079 440.15 l 1,45,-1
 1131.13 649.653 l 1,46,-1
 1159.93 581.947 l 2,47,48
 1189.53 498.565 1189.53 498.565 1252.37 357.588 c 0,49,50
 1262.76 334.271 1262.76 334.271 1277.19 317.252 c 0,51,52
 1320.45 266.216 1320.45 266.216 1399.5 266.216 c 0,53,54
 1496.35 266.214 1496.35 266.214 1511.58 405.027 c 6,55,-1
 1537.61 642.361 l 5,56,-1
 1747.55 642.361 l 1,57,-1
 1776.78 436.598 l 2,58,59
 1799.21 278.732 1799.21 278.732 1868.39 273.023 c 0,0,1
EndSplineSet
Substitution2: "'fina' Terminal Forms in Arabic lookup 9 subtable" uniFEB2
Substitution2: "'medi' Medial Forms in Arabic lookup 11 subtable" uniFEB4
Substitution2: "'init' Initial Forms in Arabic lookup 13 subtable" uniFEB3
EndChar

StartChar: uni0635
Encoding: 1589 1589 58
Width: 2458
VWidth: 2232
GlyphClass: 2
Flags: W
AnchorPoint: "Anchor-10" 382.84 897.5 basechar 0
AnchorPoint: "Anchor-7" 347.84 -650.5 basechar 0
LayerCount: 2
Fore
SplineSet
1546.39 282.009 m 1,0,-1
 1616.12 282.009 l 2,1,2
 1905.66 282.009 1905.66 282.009 2006.45 321.487 c 0,3,4
 2092.89 355.343 2092.89 355.343 2106.91 414.065 c 1,5,6
 2112.5 462.722 2112.5 462.722 2092.59 489.83 c 0,7,8
 2068.22 523.641 2068.22 523.641 2013.21 531.622 c 0,9,10
 1899.82 547.972 1899.82 547.972 1779.28 473.025 c 1,11,12
 1649.33 393.686 1649.33 393.686 1546.39 282.009 c 1,0,-1
1674.04 0 m 1,13,-1
 1371.56 -1.6543 l 2,14,15
 1317.45 -2.00488 1317.45 -2.00488 1269.47 27.9287 c 1,16,17
 1243.42 -222.669 1243.42 -222.669 1088.14 -353.728 c 128,-1,18
 932.862 -484.785 932.862 -484.785 662.903 -488.246 c 0,19,20
 375.914 -491.925 375.914 -491.925 216.212 -352.589 c 128,-1,21
 56.5098 -213.253 56.5098 -213.253 40.4805 57.8428 c 0,22,23
 35.6553 139.456 35.6553 139.456 57.4033 251.545 c 0,24,25
 80.0996 368.524 80.0996 368.524 130.533 475.282 c 2,26,-1
 150.031 516.557 l 1,27,-1
 388.589 434.662 l 1,28,-1
 368.017 384.608 l 2,29,30
 284.618 181.699 284.618 181.699 301.343 55.3281 c 0,31,32
 320.668 -90.7041 320.668 -90.7041 405.85 -159.657 c 128,-1,33
 491.031 -228.611 491.031 -228.611 657.063 -229.072 c 0,34,35
 835.601 -229.558 835.601 -229.558 925.854 -159.756 c 128,-1,36
 1016.11 -89.9551 1016.11 -89.9551 1034.51 57.3262 c 0,37,38
 1058.79 251.538 1058.79 251.538 939.624 403.696 c 2,39,-1
 911.075 440.15 l 1,40,-1
 1131.12 649.651 l 1,41,-1
 1159.93 581.946 l 2,42,43
 1194.52 500.637 1194.52 500.637 1251.87 358.812 c 1,44,45
 1260.4 342.539 1260.4 342.539 1273.27 336.143 c 1,46,47
 1496.78 648.504 1496.78 648.504 1746.3 756.263 c 0,48,49
 2007.53 869.092 2007.53 869.092 2209.17 748.736 c 0,50,51
 2304.53 691.82 2304.53 691.82 2344.03 595.281 c 128,-1,52
 2383.53 498.741 2383.53 498.741 2366.55 373.209 c 0,53,54
 2346.32 220.54 2346.32 220.54 2198.95 116.786 c 0,55,56
 2034.18 0 2034.18 0 1674.04 0 c 1,13,-1
EndSplineSet
Substitution2: "'fina' Terminal Forms in Arabic lookup 9 subtable" uniFEBA
Substitution2: "'medi' Medial Forms in Arabic lookup 11 subtable" uniFEBC
Substitution2: "'init' Initial Forms in Arabic lookup 13 subtable" uniFEBB
EndChar

StartChar: uni0637
Encoding: 1591 1591 60
Width: 1539
VWidth: 2232
GlyphClass: 2
Flags: W
AnchorPoint: "Anchor-10" 284.72 1531.47 basechar 0
AnchorPoint: "Anchor-7" 620.72 -255 basechar 0
LayerCount: 2
Fore
SplineSet
627.443 282.009 m 1,0,-1
 697.165 282.009 l 2,1,2
 986.699 282.009 986.699 282.009 1087.5 321.487 c 0,3,4
 1173.94 355.346 1173.94 355.346 1187.96 414.067 c 1,5,6
 1193.56 462.714 1193.56 462.714 1173.65 489.821 c 0,7,8
 1149.28 523.64 1149.28 523.64 1094.22 531.628 c 0,9,10
 980.867 547.972 980.867 547.972 860.325 473.024 c 1,11,12
 730.391 393.687 730.391 393.687 627.443 282.009 c 1,0,-1
754.948 -0.00195312 m 2,13,-1
 40.75 0 l 1,14,-1
 40.75 270.978 l 1,15,-1
 206.564 270.979 l 1,16,-1
 166.121 1367.07 l 1,17,-1
 428.166 1470.98 l 1,18,-1
 428.072 432.826 l 1,19,20
 618.545 666.079 618.545 666.079 827.352 756.26 c 0,21,22
 1088.59 869.085 1088.59 869.085 1290.22 748.733 c 0,23,24
 1385.57 691.817 1385.57 691.817 1425.07 595.277 c 128,-1,25
 1464.57 498.738 1464.57 498.738 1447.6 373.212 c 0,26,27
 1427.39 220.533 1427.39 220.533 1280.01 116.794 c 0,28,29
 1115.25 -0.00293846 1115.25 -0.00293846 754.948 -0.00195312 c 2,13,-1
EndSplineSet
Substitution2: "'fina' Terminal Forms in Arabic lookup 9 subtable" uniFEC2
Substitution2: "'medi' Medial Forms in Arabic lookup 11 subtable" uniFEC4
Substitution2: "'init' Initial Forms in Arabic lookup 13 subtable" uniFEC3
EndChar

StartChar: uni0639
Encoding: 1593 1593 62
Width: 1311
VWidth: 2232
GlyphClass: 2
Flags: W
AnchorPoint: "Anchor-10" 484.325 1350.51 basechar 0
AnchorPoint: "Anchor-7" 289.235 -739.76 basechar 0
LayerCount: 2
Fore
SplineSet
665.962 -347.471 m 0,0,1
 915.929 -335.68 915.929 -335.68 1106.92 -238.793 c 2,2,-1
 1166.03 -208.807 l 1,3,-1
 1221 -466.314 l 1,4,-1
 1184.59 -483.607 l 2,5,6
 995.357 -573.465 995.357 -573.465 805.989 -594.408 c 0,7,8
 668.823 -610.234 668.823 -610.234 574.855 -603.617 c 0,9,10
 280.42 -584.979 280.42 -584.979 146.994 -421.377 c 1,11,12
 12.0801 -257.609 12.0801 -257.609 45.3252 -6.20312 c 1,13,14
 79.4072 260.074 79.4072 260.074 315.57 420.604 c 1,15,16
 156.077 518.724 156.077 518.724 146.966 701.617 c 0,17,18
 139.681 841.102 139.681 841.102 200.896 940.463 c 128,-1,19
 262.112 1039.82 262.112 1039.82 386.592 1087.82 c 0,20,21
 579.613 1161.77 579.613 1161.77 846.816 1030.22 c 2,22,-1
 885.343 1011.25 l 1,23,-1
 818.774 785.176 l 1,24,-1
 765.48 809.076 l 2,25,26
 645.829 862.735 645.829 862.735 552.65 865.017 c 0,27,28
 467.644 867.098 467.644 867.098 432.091 836.896 c 128,-1,29
 396.538 806.693 396.538 806.693 392.835 733.425 c 0,30,31
 390.554 688.309 390.554 688.309 418.624 651.522 c 128,-1,32
 446.694 614.737 446.694 614.737 515.94 582.506 c 0,33,34
 558.729 562.589 558.729 562.589 619.193 570.015 c 2,35,-1
 994.041 616.038 l 1,36,-1
 994.041 361.654 l 1,37,-1
 948.199 356.994 l 2,38,39
 684.417 330.179 684.417 330.179 535.829 245.358 c 0,40,41
 308.971 114.3 308.971 114.3 301.544 -54.0576 c 0,42,43
 294.984 -205.929 294.984 -205.929 387.64 -277.671 c 0,44,45
 488.541 -355.84 488.541 -355.84 665.962 -347.471 c 0,0,1
EndSplineSet
Substitution2: "'fina' Terminal Forms in Arabic lookup 9 subtable" uniFECA
Substitution2: "'medi' Medial Forms in Arabic lookup 11 subtable" uniFECC
Substitution2: "'init' Initial Forms in Arabic lookup 13 subtable" uniFECB
EndChar

StartChar: afii57440
Encoding: 1600 1600 64
Width: 642
VWidth: 2232
GlyphClass: 2
Flags: W
AnchorPoint: "Anchor-10" 321 1325.5 basechar 0
AnchorPoint: "Anchor-7" 321 -65.5 basechar 0
LayerCount: 2
Fore
SplineSet
-54.4004 0 m 1,0,-1
 -54.4004 270.979 l 1,1,-1
 696.4 270.979 l 5,2,-1
 696.4 0 l 1,3,-1
 -54.4004 0 l 1,0,-1
EndSplineSet
EndChar

StartChar: uni0643
Encoding: 1603 1603 67
Width: 1785
VWidth: 2232
GlyphClass: 2
Flags: W
AnchorPoint: "Anchor-10" 531 1445.5 basechar 0
AnchorPoint: "Anchor-7" 484 -232.5 basechar 0
LayerCount: 2
Fore
SplineSet
1095.77 1286.4 m 1,0,-1
 1095.77 1132.74 l 1,1,-1
 1048.51 1129.26 l 2,2,3
 986.002 1124.66 986.002 1124.66 954.382 1113 c 0,4,5
 934.38 1105.5 934.38 1105.5 918.909 1096.74 c 128,-1,6
 903.438 1087.98 903.438 1087.98 897.602 1083.03 c 128,-1,7
 891.765 1078.07 891.765 1078.07 890.334 1075.59 c 1,8,9
 890.605 1058.7 890.605 1058.7 897.26 1049.07 c 1,10,11
 913.426 1039.41 913.426 1039.41 962.711 1032.16 c 0,12,13
 1027.56 1022.62 1027.56 1022.62 1064.01 989.321 c 0,14,15
 1105.05 951.844 1105.05 951.844 1105.05 889.298 c 0,16,17
 1105.05 828.158 1105.05 828.158 1075.02 778.82 c 128,-1,18
 1044.98 729.482 1044.98 729.482 989.944 698.358 c 0,19,20
 909.612 652.928 909.612 652.928 801.926 651.929 c 0,21,22
 737.523 651.929 737.523 651.929 680.746 661.412 c 2,23,-1
 638.148 668.526 l 1,24,-1
 638.148 828.331 l 1,25,-1
 695.812 820.729 l 2,26,27
 753.256 813.158 753.256 813.158 792.059 813.158 c 0,28,29
 857.19 813.158 857.19 813.158 896.611 828.678 c 0,30,31
 948.45 848.587 948.45 848.587 948.45 867.898 c 1,32,33
 949.605 884.885 949.605 884.885 893.576 894.014 c 0,34,35
 820.173 905.199 820.173 905.199 777.499 948.845 c 0,36,37
 731.684 995.704 731.684 995.704 733.387 1074.08 c 0,38,39
 734.652 1125.26 734.652 1125.26 761.045 1165.93 c 128,-1,40
 787.438 1206.59 787.438 1206.59 833.85 1230.11 c 0,41,42
 923.539 1275.48 923.539 1275.48 1041.54 1282.96 c 2,43,-1
 1095.77 1286.4 l 1,0,-1
805.019 271.8 m 0,44,45
 1007.29 265.872 1007.29 265.872 1125.87 278.187 c 0,46,47
 1296.26 295.878 1296.26 295.878 1375.65 338.69 c 128,-1,48
 1455.04 381.512 1455.04 381.512 1460.89 437.366 c 2,49,-1
 1466.29 488.951 l 1,50,-1
 1419.63 1418.27 l 5,51,-1
 1684.3 1520.27 l 5,52,-1
 1684.3 457.814 l 2,53,54
 1684.3 438.454 1684.3 438.454 1681.53 398.023 c 0,55,56
 1672.96 272.935 1672.96 272.935 1584.98 185.058 c 128,-1,57
 1497 97.1807 1497 97.1807 1341.35 48.5928 c 0,58,59
 1185.4 -0.0830078 1185.4 -0.0830078 910.636 2.00195 c 0,60,61
 563.242 4.87207 563.242 4.87207 437.353 40.2139 c 0,62,63
 264.073 89.5752 264.073 89.5752 164.489 206.016 c 128,-1,64
 64.9043 322.456 64.9043 322.456 46.2568 498.153 c 0,65,66
 32.7963 625.215 32.7963 625.215 83.2178 766.416 c 2,67,-1
 97.9902 807.785 l 1,68,-1
 346.467 758.908 l 1,69,-1
 334.544 707.522 l 2,70,71
 304.867 579.62 304.867 579.62 312.465 530.996 c 0,72,73
 327.259 432.853 327.259 432.853 381.102 375.436 c 128,-1,74
 434.944 318.02 434.944 318.02 535.776 293.72 c 0,75,76
 602.031 277.753 602.031 277.753 805.019 271.8 c 0,44,45
EndSplineSet
Substitution2: "'fina' Terminal Forms in Arabic lookup 9 subtable" uniFEDA
Substitution2: "'medi' Medial Forms in Arabic lookup 11 subtable" uniFEDC
Substitution2: "'init' Initial Forms in Arabic lookup 13 subtable" uniFEDB
EndChar

StartChar: uni0644
Encoding: 1604 1604 68
Width: 1309
VWidth: 2232
GlyphClass: 2
Flags: W
AnchorPoint: "Anchor-10" 439.01 1171.5 basechar 0
AnchorPoint: "Anchor-7" 416.15 -525.616 basechar 0
LayerCount: 2
Fore
SplineSet
1212.43 228.11 m 1,0,1
 1209.15 46.5932 1209.15 46.5932 1152.53 -93.0938 c 0,2,3
 1094.6 -236.01 1094.6 -236.01 955.144 -314.852 c 0,4,5
 818.725 -391.975 818.725 -391.975 623.096 -399.958 c 0,6,7
 316.033 -412.591 316.033 -412.591 162.659 -250.132 c 1,8,9
 22.4248 -103.526 22.4248 -103.526 26.377 142.841 c 0,10,11
 29.8466 375.837 29.8466 375.837 119.196 553.305 c 2,12,-1
 137.483 589.627 l 1,13,-1
 392.771 526.634 l 1,14,-1
 364.404 469.645 l 2,15,16
 275.766 291.572 275.766 291.572 280.031 146.612 c 0,17,18
 284.041 -4.34473 284.041 -4.34473 362.132 -72.5498 c 0,19,20
 459.094 -156.841 459.094 -156.841 638.747 -147.021 c 0,21,22
 778.504 -139.992 778.504 -139.992 878.584 -69.3398 c 0,23,24
 993.213 11.593 993.213 11.593 991.54 257.471 c 2,25,-1
 989.915 496.246 l 1,26,-1
 957.691 1362.6 l 5,27,-1
 1217.79 1470.36 l 5,28,-1
 1217.79 497.318 l 2,29,30
 1217.79 304.103 1217.79 304.103 1212.43 228.11 c 1,0,1
EndSplineSet
Substitution2: "'fina' Terminal Forms in Arabic lookup 9 subtable" uniFEDE
Substitution2: "'medi' Medial Forms in Arabic lookup 11 subtable" uniFEE0
Substitution2: "'init' Initial Forms in Arabic lookup 13 subtable" uniFEDF
EndChar

StartChar: uni0645
Encoding: 1605 1605 69
Width: 1113
VWidth: 2232
GlyphClass: 2
Flags: W
AnchorPoint: "Anchor-10" 544.5 1057.31 basechar 0
AnchorPoint: "Anchor-7" 161.631 -744.952 basechar 0
LayerCount: 2
Fore
SplineSet
503.204 410.947 m 0,0,1
 618.835 405.167 618.835 405.167 630.123 404.999 c 0,2,3
 747.256 405.07 747.256 405.07 787.252 416.199 c 1,4,5
 795.336 421.176 795.336 421.176 805.645 443.551 c 0,6,7
 810.199 453.503 810.199 453.503 810.392 464.109 c 128,-1,8
 810.584 474.716 810.584 474.716 805.858 488.099 c 128,-1,9
 801.134 501.48 801.134 501.48 787.555 516.393 c 128,-1,10
 773.977 531.305 773.977 531.305 752.745 547.821 c 128,-1,11
 731.514 564.338 731.514 564.338 696.821 583.396 c 128,-1,12
 662.129 602.454 662.129 602.454 616.931 622.082 c 1,13,14
 572.747 639.742 572.747 639.742 549.395 635.661 c 128,-1,15
 526.042 631.581 526.042 631.581 504.822 606.581 c 1,16,17
 465.645 549 465.645 549 472.509 413.031 c 1,18,19
 485.484 411.766 485.484 411.766 503.204 410.947 c 0,0,1
376 154 m 0,20,21
 276.748 154 276.748 154 252.515 106.583 c 0,22,23
 225.454 53.3643 225.454 53.3643 233.95 -66.6523 c 2,24,-1
 268.22 -550.709 l 1,25,-1
 15 -694.656 l 1,26,-1
 15 -24 l 2,27,28
 15 181.005 15 181.005 100.879 289.482 c 0,29,30
 149.415 351.344 149.415 351.344 221.688 375.48 c 1,31,32
 215.344 666.758 215.344 666.758 341.471 785.787 c 0,33,34
 424.621 864.923 424.621 864.923 524.395 880.17 c 128,-1,35
 624.168 895.417 624.168 895.417 728.77 845.272 c 0,36,37
 1108.9 664.011 1108.9 664.011 1046.76 423.234 c 0,38,39
 1017.44 310.079 1017.44 310.079 993.531 254.69 c 128,-1,40
 969.623 199.303 969.623 199.303 927.07 177.284 c 0,41,42
 914.301 170.677 914.301 170.677 900.205 168.937 c 1,43,44
 826.094 143.061 826.094 143.061 655.573 148.021 c 0,45,46
 477.262 154 477.262 154 376 154 c 0,20,21
EndSplineSet
Substitution2: "'init' Initial Forms in Arabic lookup 13 subtable" uniFEE3
Substitution2: "'medi' Medial Forms in Arabic lookup 11 subtable" uniFEE4
Substitution2: "'fina' Terminal Forms in Arabic lookup 9 subtable" uniFEE2
EndChar

StartChar: uni0647
Encoding: 1607 1607 71
Width: 966
VWidth: 2283
GlyphClass: 2
Flags: W
AnchorPoint: "Anchor-10" 438.924 1251.58 basechar 0
AnchorPoint: "Anchor-7" 333.864 -233.56 basechar 0
LayerCount: 2
Fore
SplineSet
316.06 399.097 m 0,0,1
 296.593 345.171 296.593 345.171 311.434 317.492 c 0,2,3
 329.675 283.471 329.675 283.471 388.299 259.618 c 0,4,5
 453.22 233.51 453.22 233.51 541.515 253.076 c 0,6,7
 571.873 259.539 571.873 259.539 586.65 272.439 c 128,-1,8
 601.428 285.339 601.428 285.339 608.3 309.027 c 0,9,10
 620.256 350.236 620.256 350.236 592.875 428.229 c 1,11,12
 541.568 530.586 541.568 530.586 459.217 608.195 c 1,13,14
 346.504 487.813 346.504 487.813 316.06 399.097 c 0,0,1
119.864 580.982 m 0,15,16
 181.29 680.905 181.29 680.905 265.993 773.065 c 1,17,-1
 228.856 804.997 l 1,18,-1
 397.855 985.773 l 1,19,-1
 434.286 959.45 l 2,20,21
 721.366 752.009 721.366 752.009 818.047 545.576 c 0,22,23
 867.418 441.06 867.418 441.06 874.295 349.976 c 128,-1,24
 881.171 258.892 881.171 258.892 842.396 183.44 c 128,-1,25
 803.621 107.988 803.621 107.988 719.244 56.8438 c 0,26,27
 628.827 2.03809 628.827 2.03809 467.82 3.53125 c 0,28,29
 318.652 4.93457 318.652 4.93457 233.754 45.5 c 0,30,31
 74.9082 121.536 74.9082 121.536 47.2197 267.543 c 0,32,33
 18.9189 416.771 18.9189 416.771 119.864 580.982 c 0,15,16
EndSplineSet
Substitution2: "'fina' Terminal Forms in Arabic lookup 9 subtable" uniFEEA
Substitution2: "'medi' Medial Forms in Arabic lookup 11 subtable" uniFEEC
Substitution2: "'init' Initial Forms in Arabic lookup 13 subtable" uniFEEB
EndChar

StartChar: uni0648
Encoding: 1608 1608 72
Width: 939
VWidth: 2232
GlyphClass: 2
Flags: W
AnchorPoint: "Anchor-10" 412.282 1083.17 basechar 0
AnchorPoint: "Anchor-7" 439.191 -679.443 basechar 0
LayerCount: 2
Fore
SplineSet
468.552 516.805 m 0,0,1
 423.083 515.529 423.083 515.529 392.679 484.877 c 128,-1,2
 362.274 454.225 362.274 454.225 343.307 380.225 c 0,3,4
 340.04 367.613 340.04 367.613 338.018 356.128 c 0,5,6
 327.982 299.157 327.982 299.157 343.61 275.64 c 128,-1,7
 359.238 252.121 359.238 252.121 410.76 243.199 c 0,8,9
 525.52 223.183 525.52 223.183 609.455 276.808 c 1,10,11
 608.218 306.743 608.218 306.743 597.313 365.105 c 0,12,13
 580.814 451.334 580.814 451.334 549.561 484.776 c 128,-1,14
 518.306 518.219 518.306 518.219 468.552 516.805 c 0,0,1
833.278 16.8789 m 0,15,16
 806.152 -141.492 806.152 -141.492 714.285 -259.872 c 0,17,18
 525.095 -503.688 525.095 -503.688 148.428 -506.998 c 2,19,-1
 117.695 -507.268 l 1,20,-1
 -2.87695 -283.857 l 1,21,-1
 76.9375 -279.091 l 2,22,23
 291.312 -266.284 291.312 -266.284 412.3 -194.176 c 128,-1,24
 533.287 -122.066 533.287 -122.066 573.577 7.7041 c 1,25,26
 518.171 -6.8125 518.171 -6.8125 442.915 -8.24219 c 0,27,28
 243.207 -11.7061 243.207 -11.7061 157.557 107.347 c 0,29,30
 83.3096 211.937 83.3096 211.937 101.742 346.756 c 1,31,32
 128.672 555.734 128.672 555.734 229.635 660.293 c 0,33,34
 298.55 730.755 298.55 730.755 380.312 758.263 c 128,-1,35
 462.076 785.771 462.076 785.771 550.418 766.62 c 0,36,37
 690.663 736.979 690.663 736.979 764.411 600.958 c 1,38,39
 833.019 472.085 833.019 472.085 847.876 311.448 c 0,40,41
 859.886 175.524 859.886 175.524 833.278 16.8789 c 0,15,16
EndSplineSet
Substitution2: "'fina' Terminal Forms in Arabic lookup 9 subtable" uniFEEE
EndChar

StartChar: uni0649
Encoding: 1609 1609 73
Width: 1580
VWidth: 2232
GlyphClass: 2
Flags: W
AnchorPoint: "Anchor-10" 578.722 1133.33 basechar 0
AnchorPoint: "Anchor-7" 441.423 -564.472 basechar 0
LayerCount: 2
Fore
SplineSet
1305.99 -198.141 m 0,0,1
 1031.29 -424.038 1031.29 -424.038 659.89 -436.706 c 0,2,3
 237.331 -450.357 237.331 -450.357 98.1621 -185.514 c 0,4,5
 14.4727 -27.1865 14.4727 -27.1865 60.4414 227.403 c 0,6,7
 101.409 454.305 101.409 454.305 240.101 654.085 c 2,8,-1
 264.699 689.518 l 1,9,-1
 489.751 583.529 l 1,10,-1
 459.205 534.804 l 2,11,12
 376.185 402.372 376.185 402.372 333.961 241.401 c 0,13,14
 284.897 54.3555 284.897 54.3555 340.033 -46.5439 c 0,15,16
 413.607 -181.186 413.607 -181.186 674.656 -169.374 c 0,17,18
 933.318 -158.539 933.318 -158.539 1128.46 -33.3037 c 0,19,20
 1186.52 3.96303 1186.52 3.96303 1220.14 37.7336 c 0,21,22
 1246.88 64.595 1246.88 64.595 1211.14 67.5586 c 0,23,24
 1187.15 69.5484 1187.15 69.5484 1154.77 68.9912 c 0,25,26
 956.146 65.5693 956.146 65.5693 869.582 137.71 c 0,27,28
 811.924 185.757 811.924 185.757 799.01 261.749 c 128,-1,29
 786.095 337.741 786.095 337.741 814.552 421.21 c 1,30,31
 874.966 614.229 874.966 614.229 1023.33 716.42 c 0,32,33
 1137.36 794.239 1137.36 794.239 1247.52 798.843 c 128,-1,34
 1357.69 803.447 1357.69 803.447 1457.84 730.903 c 1,35,-1
 1488.51 708.066 l 1,36,-1
 1398.63 466.336 l 1,37,38
 1374.11 476.669 1374.11 476.669 1349.58 487 c 0,39,40
 1282.18 515.402 1282.18 515.402 1225.28 506.183 c 128,-1,41
 1168.38 496.963 1168.38 496.963 1113 448.648 c 0,42,43
 1055.35 397.83 1055.35 397.83 1045.81 351.167 c 0,44,45
 1041.22 328.663 1041.22 328.663 1061.5 324.239 c 0,46,47
 1082.51 319.655 1082.51 319.655 1118.98 319.997 c 0,48,49
 1285.4 321.704 1285.4 321.704 1347.56 291.86 c 0,50,51
 1419.51 258.166 1419.51 258.166 1450.9 194.258 c 128,-1,52
 1482.3 130.349 1482.3 130.349 1468.25 49.2891 c 0,53,54
 1445.21 -83.6357 1445.21 -83.6357 1305.99 -198.141 c 0,0,1
EndSplineSet
Substitution2: "'fina' Terminal Forms in Arabic lookup 9 subtable" uniFEF0
Substitution2: "'medi' Medial Forms in Arabic lookup 11 subtable" uniFBE9
Substitution2: "'init' Initial Forms in Arabic lookup 13 subtable" uniFBE8
EndChar

StartChar: uni064B
Encoding: 1611 1611 75
Width: 0
VWidth: 2186
GlyphClass: 4
Flags: W
AnchorPoint: "Anchor-10" 547.84 1041.5 mark 0
AnchorPoint: "Anchor-9" 547.84 1041.5 mark 0
AnchorPoint: "Anchor-1" 547.84 1576.5 basemark 0
AnchorPoint: "Anchor-1" 547.84 1041.5 mark 0
LayerCount: 2
Fore
SplineSet
269.4 977.41 m 1,0,-1
 269.4 1104.48 l 1,1,-1
 827.28 1332.79 l 1,2,-1
 827.28 1205.72 l 1,3,-1
 269.4 977.41 l 1,0,-1
269.4 1234.21 m 1,4,-1
 269.4 1361.28 l 1,5,-1
 827.28 1589.59 l 1,6,-1
 827.28 1462.52 l 1,7,-1
 269.4 1234.21 l 1,4,-1
EndSplineSet
EndChar

StartChar: uni064C
Encoding: 1612 1612 76
Width: 0
VWidth: 2186
GlyphClass: 4
Flags: W
AnchorPoint: "Anchor-10" 554.386 1155.44 mark 0
AnchorPoint: "Anchor-9" 554.386 1155.44 mark 0
AnchorPoint: "Anchor-1" 546.386 1810.94 basemark 0
AnchorPoint: "Anchor-1" 554.386 1155.44 mark 0
LayerCount: 2
Fore
SplineSet
567.219 1298.72 m 0,0,1
 608.391 1338.78 608.391 1338.78 631.845 1385.69 c 2,2,-1
 639.364 1400.73 l 1,3,-1
 622.913 1404.22 l 2,4,5
 589.558 1411.29 589.558 1411.29 566.532 1424.31 c 0,6,7
 457.736 1481.73 457.736 1481.73 457.736 1574.47 c 0,8,9
 457.736 1661.08 457.736 1661.08 526.365 1712.8 c 0,10,11
 552.86 1732.67 552.86 1732.67 615.937 1732.67 c 0,12,13
 688.759 1732.67 688.759 1732.67 727.738 1694.66 c 0,14,15
 782.696 1640.71 782.696 1640.71 782.696 1561.63 c 0,16,17
 782.696 1521.9 782.696 1521.9 770.46 1483.15 c 2,18,-1
 765.402 1467.14 l 1,19,-1
 782.175 1466.26 l 2,20,21
 802.247 1465.2 802.247 1465.2 817.806 1465.17 c 0,22,23
 831.205 1464.45 831.205 1464.45 845.826 1464.2 c 1,24,-1
 845.826 1372.44 l 1,25,26
 806.232 1372.69 806.232 1372.69 788.381 1374.48 c 2,27,-1
 723.27 1380.74 l 1,28,-1
 719.537 1371.99 l 2,29,30
 692.652 1308.91 692.652 1308.91 614.12 1227.24 c 1,31,32
 527.043 1139.14 527.043 1139.14 431.896 1139.14 c 0,33,34
 319.02 1139.14 319.02 1139.14 262.205 1295.39 c 0,35,36
 247.89 1334.51 247.89 1334.51 246.994 1442.7 c 1,37,-1
 317.299 1442.7 l 1,38,39
 318.143 1347.11 318.143 1347.11 331.307 1318.59 c 0,40,41
 372.26 1230.84 372.26 1230.84 431.896 1230.84 c 0,42,43
 497.076 1230.84 497.076 1230.84 567.219 1298.72 c 0,0,1
669.292 1482.64 m 1,44,-1
 680.316 1508.36 l 2,45,46
 690.996 1533.28 690.996 1533.28 690.996 1561.63 c 0,47,48
 690.996 1604.15 690.996 1604.15 668.07 1623.02 c 0,49,50
 646.28 1640.97 646.28 1640.97 620.217 1640.97 c 0,51,52
 591.787 1640.97 591.787 1640.97 575.875 1628.63 c 0,53,54
 551.576 1610.34 551.576 1610.34 551.576 1574.47 c 0,55,56
 551.576 1526.08 551.576 1526.08 607.898 1503.55 c 0,57,58
 629.803 1494.79 629.803 1494.79 658.123 1486.08 c 2,59,-1
 669.292 1482.64 l 1,44,-1
EndSplineSet
EndChar

StartChar: uni064D
Encoding: 1613 1613 77
Width: 0
VWidth: 2186
GlyphClass: 4
Flags: W
AnchorPoint: "Anchor-7" 531.84 75.5 mark 0
AnchorPoint: "Anchor-6" 531.84 75.5 mark 0
AnchorPoint: "Anchor-0" 547.84 -439.5 basemark 0
AnchorPoint: "Anchor-0" 531.84 75.5 mark 0
LayerCount: 2
Fore
SplineSet
270.96 -512.18 m 5,0,-1
 270.96 -385.109 l 5,1,-1
 828.84 -156.8 l 5,2,-1
 828.84 -283.87 l 5,3,-1
 270.96 -512.18 l 5,0,-1
270.96 -255.38 m 5,4,-1
 270.96 -128.31 l 5,5,-1
 828.84 100 l 5,6,-1
 828.84 -27.0703 l 5,7,-1
 270.96 -255.38 l 5,4,-1
EndSplineSet
EndChar

StartChar: uni064E
Encoding: 1614 1614 78
Width: 0
VWidth: 2186
GlyphClass: 4
Flags: W
AnchorPoint: "Anchor-10" 517.84 1279.5 mark 0
AnchorPoint: "Anchor-9" 517.84 1279.5 mark 0
AnchorPoint: "Anchor-1" 517.84 1600.5 basemark 0
AnchorPoint: "Anchor-1" 517.84 1279.5 mark 0
LayerCount: 2
Fore
SplineSet
237.4 1237.41 m 1,0,-1
 237.4 1364.48 l 1,1,-1
 795.28 1592.79 l 5,2,-1
 795.28 1465.72 l 1,3,-1
 237.4 1237.41 l 1,0,-1
EndSplineSet
EndChar

StartChar: uni064F
Encoding: 1615 1615 79
Width: 0
VWidth: 2186
GlyphClass: 4
Flags: W
AnchorPoint: "Anchor-10" 531.84 1205.5 mark 0
AnchorPoint: "Anchor-9" 531.84 1205.5 mark 0
AnchorPoint: "Anchor-1" 547.84 1825 basemark 0
AnchorPoint: "Anchor-1" 531.84 1205.5 mark 0
LayerCount: 2
Fore
SplineSet
594.529 1426.81 m 6,0,1
 586.598 1428.57 586.598 1428.57 567.734 1438.5 c 4,2,3
 459.19 1494.78 459.19 1494.78 459.19 1588.53 c 4,4,5
 459.19 1675.14 459.19 1675.14 527.819 1726.86 c 4,6,7
 554.314 1746.73 554.314 1746.73 617.39 1746.73 c 4,8,9
 690.212 1746.73 690.212 1746.73 729.192 1708.72 c 4,10,11
 784.15 1654.77 784.15 1654.77 784.15 1575.69 c 4,12,13
 784.15 1543.43 784.15 1543.43 769.757 1497.16 c 6,14,-1
 764.821 1481.3 l 5,15,-1
 781.407 1480.32 l 6,16,17
 799.81 1479.24 799.81 1479.24 819.259 1478.7 c 4,18,19
 832.229 1478.34 832.229 1478.34 847.28 1478.21 c 5,20,-1
 847.28 1386.53 l 5,21,22
 817.029 1386.85 817.029 1386.85 789.455 1388.57 c 4,23,24
 757.6 1390.7 757.6 1390.7 727.915 1393.88 c 6,25,-1
 720.312 1394.69 l 5,26,-1
 715.905 1388.44 l 6,27,28
 671.45 1325.37 671.45 1325.37 599.88 1281.81 c 4,29,30
 398.294 1157.85 398.294 1157.85 248.4 1152.36 c 5,31,-1
 248.4 1244.01 l 5,32,33
 408.671 1248.65 408.671 1248.65 554.781 1363.22 c 4,34,35
 580.142 1383.07 580.142 1383.07 601.135 1405.16 c 6,36,-1
 616.962 1421.83 l 5,37,-1
 594.529 1426.81 l 6,0,1
670.746 1496.7 m 5,38,-1
 681.77 1522.42 l 6,39,40
 692.45 1547.34 692.45 1547.34 692.45 1575.69 c 4,41,42
 692.45 1618.21 692.45 1618.21 669.524 1637.08 c 4,43,44
 647.734 1655.03 647.734 1655.03 621.67 1655.03 c 4,45,46
 593.241 1655.03 593.241 1655.03 577.329 1642.69 c 4,47,48
 553.03 1624.4 553.03 1624.4 553.03 1588.53 c 4,49,50
 553.03 1540.14 553.03 1540.14 609.352 1517.61 c 4,51,52
 631.256 1508.85 631.256 1508.85 659.577 1500.14 c 6,53,-1
 670.746 1496.7 l 5,38,-1
EndSplineSet
EndChar

StartChar: uni0650
Encoding: 1616 1616 80
Width: 0
VWidth: 2186
GlyphClass: 4
Flags: W
AnchorPoint: "Anchor-7" 467.84 -12.5 mark 0
AnchorPoint: "Anchor-6" 467.84 -12.5 mark 0
AnchorPoint: "Anchor-0" 556.84 -311.5 basemark 0
AnchorPoint: "Anchor-0" 467.84 -12.5 mark 0
LayerCount: 2
Fore
SplineSet
267.96 -356.836 m 1,0,-1
 267.96 -229.766 l 1,1,-1
 825.84 -1.45605 l 1,2,-1
 825.84 -128.526 l 1,3,-1
 267.96 -356.836 l 1,0,-1
EndSplineSet
EndChar

StartChar: uni0651
Encoding: 1617 1617 81
Width: 0
VWidth: 2186
GlyphClass: 4
Flags: W
AnchorPoint: "Anchor-10" 547.84 1316.5 mark 0
AnchorPoint: "Anchor-9" 547.84 1316.5 mark 0
AnchorPoint: "Anchor-1" 535.84 1818.5 basemark 0
AnchorPoint: "Anchor-1" 547.84 1316.5 mark 0
LayerCount: 2
Fore
SplineSet
398.84 1305.99 m 4,0,1
 306.498 1302.93 306.498 1302.93 261.261 1355.91 c 4,2,3
 227 1396.24 227 1396.24 227 1486.07 c 4,4,5
 227 1527.41 227 1527.41 242.222 1626.56 c 5,6,-1
 320.73 1626.56 l 5,7,8
 307.674 1502.98 307.674 1502.98 307.674 1479 c 4,9,10
 307.674 1394.91 307.674 1394.91 398.84 1393.09 c 4,11,12
 497.128 1391.16 497.128 1391.16 506.266 1518.54 c 4,13,14
 508.184 1545.08 508.184 1545.08 508.4 1680.83 c 5,15,-1
 589.06 1680.83 l 5,16,17
 588.775 1624.49 588.775 1624.49 589.34 1597.53 c 4,18,19
 594.84 1448.99 594.84 1448.99 700.84 1452.09 c 5,20,21
 790.089 1453.28 790.089 1453.28 783.674 1604 c 4,22,23
 779.218 1710.94 779.218 1710.94 774.521 1770.1 c 5,24,-1
 857.705 1770.1 l 5,25,26
 868.68 1694.87 868.68 1694.87 868.68 1580.87 c 4,27,28
 868.68 1504.29 868.68 1504.29 843.84 1449.99 c 4,29,30
 804.992 1364.89 804.992 1364.89 713.84 1360.49 c 4,31,32
 611.451 1355.49 611.451 1355.49 554.84 1431.09 c 5,33,34
 519.173 1310.01 519.173 1310.01 398.84 1305.99 c 4,0,1
EndSplineSet
EndChar

StartChar: uni0652
Encoding: 1618 1618 82
Width: 0
VWidth: 2186
GlyphClass: 4
Flags: W
AnchorPoint: "Anchor-10" 565.84 1128.5 mark 0
AnchorPoint: "Anchor-9" 565.84 1128.5 mark 0
AnchorPoint: "Anchor-1" 551.84 1702 basemark 0
AnchorPoint: "Anchor-1" 565.84 1128.5 mark 0
LayerCount: 2
Fore
SplineSet
674.569 1383.62 m 0,0,1
 674.569 1428.15 674.569 1428.15 643.439 1459.28 c 128,-1,2
 612.312 1490.41 612.312 1490.41 567.126 1490.41 c 0,3,4
 521.285 1490.41 521.285 1490.41 490.485 1459.61 c 128,-1,5
 459.685 1428.81 459.685 1428.81 459.685 1383.62 c 0,6,7
 459.685 1337.78 459.685 1337.78 490.485 1306.98 c 128,-1,8
 521.285 1276.18 521.285 1276.18 567.126 1276.18 c 0,9,10
 612.314 1276.18 612.314 1276.18 643.439 1307.31 c 128,-1,11
 674.569 1338.44 674.569 1338.44 674.569 1383.62 c 0,0,1
750.396 1383.73 m 128,-1,13
 750.396 1306.88 750.396 1306.88 697.316 1253.46 c 128,-1,14
 644.259 1200.07 644.259 1200.07 567.436 1200.07 c 128,-1,15
 490.613 1200.07 490.613 1200.07 437.557 1253.46 c 128,-1,16
 384.476 1306.88 384.476 1306.88 384.476 1383.73 c 128,-1,17
 384.476 1460.56 384.476 1460.56 437.537 1513.63 c 128,-1,18
 490.596 1566.69 490.596 1566.69 567.436 1566.69 c 128,-1,19
 644.276 1566.69 644.276 1566.69 697.335 1513.63 c 128,-1,12
 750.396 1460.56 750.396 1460.56 750.396 1383.73 c 128,-1,13
EndSplineSet
EndChar

StartChar: uni0653
Encoding: 1619 1619 83
Width: 0
VWidth: 2186
GlyphClass: 4
Flags: W
AnchorPoint: "Anchor-10" 442.84 1264.52 mark 0
AnchorPoint: "Anchor-9" 442.84 1264.52 mark 0
AnchorPoint: "Anchor-1" 442.84 1600.5 basemark 0
AnchorPoint: "Anchor-1" 442.84 1264.52 mark 0
LayerCount: 2
Fore
SplineSet
98.4551 1375.05 m 2,0,1
 207.784 1497.34 207.784 1497.34 292.743 1467.63 c 0,2,3
 444.005 1413.19 444.005 1413.19 513.591 1420.88 c 0,4,5
 564.945 1426.45 564.945 1426.45 645.579 1491.79 c 6,6,-1
 659.476 1503.05 l 1,7,-1
 725.278 1404.79 l 1,8,-1
 713.97 1396.25 l 2,9,10
 620.592 1325.72 620.592 1325.72 563.692 1309.8 c 1,11,12
 477.213 1283.72 477.213 1283.72 288.939 1342.41 c 1,13,14
 243.798 1355.31 243.798 1355.31 175.337 1291.41 c 2,15,-1
 164.077 1280.9 l 1,16,-1
 98.405 1355.11 l 2,17,18
 89.563 1365.1 89.563 1365.1 89.5623 1365.1 c 1,19,-1
 98.4551 1375.05 l 2,0,1
EndSplineSet
EndChar

StartChar: uni0657
Encoding: 1623 1623 86
Width: 0
VWidth: 2186
GlyphClass: 4
Flags: W
AnchorPoint: "Anchor-10" 547.84 1279.5 mark 0
AnchorPoint: "Anchor-9" 547.84 1279.5 mark 0
AnchorPoint: "Anchor-1" 547.84 1975 basemark 0
AnchorPoint: "Anchor-1" 547.84 1279.5 mark 0
LayerCount: 2
Fore
SplineSet
501.148 1675.55 m 2,0,1
 509.083 1673.79 509.083 1673.79 527.945 1663.86 c 0,2,3
 636.49 1607.58 636.49 1607.58 636.49 1513.83 c 0,4,5
 636.49 1427.22 636.49 1427.22 567.86 1375.5 c 0,6,7
 541.366 1355.63 541.366 1355.63 478.29 1355.63 c 0,8,9
 405.468 1355.63 405.468 1355.63 366.487 1393.64 c 0,10,11
 311.53 1447.59 311.53 1447.59 311.53 1526.67 c 0,12,13
 311.53 1558.94 311.53 1558.94 325.923 1605.2 c 2,14,-1
 330.858 1621.06 l 1,15,-1
 314.272 1622.04 l 2,16,17
 295.871 1623.12 295.871 1623.12 276.421 1623.66 c 0,18,19
 263.452 1624.02 263.452 1624.02 248.4 1624.15 c 1,20,-1
 248.4 1715.83 l 1,21,22
 278.631 1715.51 278.631 1715.51 306.226 1713.79 c 0,23,24
 338.082 1711.66 338.082 1711.66 367.766 1708.48 c 2,25,-1
 375.369 1707.67 l 1,26,-1
 379.775 1713.92 l 2,27,28
 424.231 1776.99 424.231 1776.99 495.801 1820.55 c 0,29,30
 697.387 1944.51 697.387 1944.51 847.28 1950 c 1,31,-1
 847.28 1858.35 l 1,32,33
 687.009 1853.71 687.009 1853.71 540.898 1739.14 c 0,34,35
 515.54 1719.29 515.54 1719.29 494.545 1697.2 c 2,36,-1
 478.72 1680.54 l 1,37,-1
 501.148 1675.55 l 2,0,1
424.935 1605.66 m 1,38,-1
 413.911 1579.94 l 2,39,40
 403.23 1555.02 403.23 1555.02 403.23 1526.67 c 0,41,42
 403.23 1484.16 403.23 1484.16 426.155 1465.28 c 0,43,44
 447.946 1447.33 447.946 1447.33 474.01 1447.33 c 0,45,46
 502.438 1447.33 502.438 1447.33 518.352 1459.67 c 0,47,48
 542.65 1477.96 542.65 1477.96 542.65 1513.83 c 0,49,50
 542.65 1562.22 542.65 1562.22 486.328 1584.75 c 0,51,52
 464.442 1593.51 464.442 1593.51 436.104 1602.22 c 2,53,-1
 424.935 1605.66 l 1,38,-1
EndSplineSet
EndChar

StartChar: uni065A
Encoding: 1626 1626 87
Width: 1095
VWidth: 2186
GlyphClass: 4
Flags: W
AnchorPoint: "Anchor-10" 547.84 1279.5 mark 0
AnchorPoint: "Anchor-9" 547.84 1279.5 mark 0
AnchorPoint: "Anchor-1" 545.7 1761 basemark 0
AnchorPoint: "Anchor-1" 547.84 1279.5 mark 0
LayerCount: 2
Fore
SplineSet
476.032 1358.84 m 1,0,-1
 282.934 1681.66 l 1,1,-1
 401.783 1681.66 l 1,2,-1
 547.84 1462.57 l 1,3,-1
 693.896 1681.66 l 1,4,-1
 812.746 1681.66 l 1,5,-1
 619.646 1358.84 l 1,6,-1
 476.032 1358.84 l 1,0,-1
EndSplineSet
EndChar

StartChar: afii57392
Encoding: 1632 1632 88
Width: 1177
VWidth: 2232
GlyphClass: 2
Flags: W
LayerCount: 2
Fore
SplineSet
491.319 653.908 m 132,-1,1
 491.319 610.762 491.319 610.762 522.657 579.424 c 132,-1,2
 553.998 548.083 553.998 548.083 597.144 548.083 c 132,-1,3
 640.285 548.083 640.285 548.083 671.626 579.424 c 132,-1,4
 702.969 610.767 702.969 610.767 702.969 653.908 c 132,-1,5
 702.969 697.048 702.969 697.048 671.624 728.392 c 132,-1,6
 640.285 759.732 640.285 759.732 597.144 759.732 c 132,-1,7
 554 759.732 554 759.732 522.66 728.392 c 132,-1,0
 491.319 697.052 491.319 697.052 491.319 653.908 c 132,-1,1
306.267 651.562 m 128,-1,9
 306.267 774.352 306.267 774.352 392.935 861.525 c 128,-1,10
 479.678 948.775 479.678 948.775 601.947 948.775 c 128,-1,11
 724.221 948.775 724.221 948.775 810.961 861.524 c 128,-1,12
 897.626 774.35 897.626 774.35 897.626 651.562 c 128,-1,13
 897.626 528.765 897.626 528.765 810.959 441.599 c 128,-1,14
 724.211 354.351 724.211 354.351 601.947 354.351 c 128,-1,15
 479.677 354.351 479.677 354.351 392.936 441.599 c 128,-1,8
 306.267 528.771 306.267 528.771 306.267 651.562 c 128,-1,9
EndSplineSet
EndChar

StartChar: afii57393
Encoding: 1633 1633 89
Width: 1177
VWidth: 2334
GlyphClass: 2
Flags: W
LayerCount: 2
Fore
SplineSet
523.386 59.4033 m 2,0,1
 522.569 490.753 522.569 490.753 480.407 752.816 c 1,2,3
 434.906 1056.21 434.906 1056.21 309.577 1325.1 c 2,4,-1
 288.395 1370.55 l 1,5,-1
 514.66 1480.73 l 1,6,-1
 538.768 1440.92 l 2,7,8
 651.363 1255 651.363 1255 728.639 899.483 c 0,9,10
 779.775 664.223 779.775 664.223 781.99 59.6865 c 2,11,-1
 782.177 8.5 l 1,12,-1
 523.482 8.5 l 1,13,-1
 523.386 59.4033 l 2,0,1
EndSplineSet
EndChar

StartChar: afii57394
Encoding: 1634 1634 90
Width: 1177
VWidth: 2283
GlyphClass: 2
Flags: W
LayerCount: 2
Fore
SplineSet
335.69 1434.49 m 6,0,1
 395.073 1295.1 395.073 1295.1 403.362 1277.43 c 6,2,-1
 404.503 1275.12 l 6,3,4
 435.188 1212.96 435.188 1212.96 478.131 1182.94 c 132,-1,5
 521.073 1152.93 521.073 1152.93 582.08 1149.42 c 4,6,7
 753.231 1139.73 753.231 1139.73 799.262 1229.59 c 4,8,9
 837.228 1303.72 837.228 1303.72 852.563 1420.96 c 6,10,-1
 859.984 1477.7 l 5,11,12
 869.808 1475.2 869.808 1475.2 888.75 1470.55 c 132,-1,13
 907.692 1465.9 907.692 1465.9 915.499 1463.82 c 6,14,-1
 1106.01 1416.2 l 5,15,-1
 1097.28 1369.06 l 6,16,17
 1086.86 1312.78 1086.86 1312.78 1066.24 1238.57 c 4,18,19
 1018.71 1070.56 1018.71 1070.56 910.543 978.443 c 132,-1,20
 802.376 886.324 802.376 886.324 641.32 879.545 c 4,21,22
 580.68 876.993 580.68 876.993 517.092 889.188 c 5,23,24
 540.507 789.854 540.507 789.854 557.872 631.046 c 0,25,26
 566.194 554.986 566.194 554.986 572.266 60.124 c 2,27,-1
 572.897 8.5 l 1,28,-1
 313.753 8.5 l 1,29,-1
 313.663 59.4102 l 2,30,31
 312.896 493.292 312.896 493.292 274.515 726.373 c 0,32,33
 222.792 1040.48 222.792 1040.48 103.934 1295.99 c 6,34,-1
 85.8955 1334.76 l 5,35,-1
 311.045 1492.34 l 5,36,-1
 335.69 1434.49 l 6,0,1
EndSplineSet
EndChar

StartChar: afii57395
Encoding: 1635 1635 91
Width: 1177
VWidth: 2283
GlyphClass: 2
Flags: W
LayerCount: 2
Fore
SplineSet
358.829 1276.43 m 0,0,1
 418.54 1146.97 418.54 1146.97 487.329 1142.57 c 0,2,3
 607.297 1134.9 607.297 1134.9 607.297 1421.13 c 1,4,-1
 776.798 1419.5 l 1,5,6
 778.894 1197.09 778.894 1197.09 818.913 1162.17 c 0,7,8
 835.987 1147.27 835.987 1147.27 862.913 1146.17 c 0,9,10
 886.966 1145.27 886.966 1145.27 901.992 1151.84 c 8,11,12
 953.884 1174.54 953.884 1174.54 959.789 1462.72 c 1,13,-1
 1147.93 1434.17 l 5,14,15
 1156.29 1367.98 1156.29 1367.98 1137.91 1210.17 c 0,16,17
 1102.25 913.202 1102.25 913.202 900.401 896.046 c 0,18,19
 810.818 888.581 810.818 888.581 723.286 959.123 c 1,20,21
 653.48 894.013 653.48 894.013 555.156 887.848 c 0,22,23
 513.722 885.278 513.722 885.278 469.937 891.638 c 1,24,25
 495.441 774.015 495.441 774.015 524.043 533.908 c 0,26,27
 533.386 455.493 533.386 455.493 529.269 58.9707 c 2,28,-1
 528.745 8.5 l 1,29,-1
 268.755 8.5 l 1,30,-1
 268.665 59.4102 l 2,31,32
 267.898 493.278 267.898 493.278 229.516 726.373 c 0,33,34
 177.78 1040.55 177.78 1040.55 58.9346 1295.99 c 2,35,-1
 40.8965 1334.76 l 1,36,-1
 266.045 1492.34 l 1,37,38
 351.157 1292.56 351.157 1292.56 358.829 1276.43 c 0,0,1
EndSplineSet
EndChar

StartChar: afii57396
Encoding: 1636 1636 92
Width: 1177
VWidth: 2232
GlyphClass: 2
Flags: W
LayerCount: 2
Fore
SplineSet
794.634 1468.61 m 1,0,-1
 794.811 1231.12 l 1,1,-1
 742.36 1236.11 l 2,2,3
 628.862 1246.91 628.862 1246.91 560.416 1214.99 c 0,4,5
 482.709 1178.75 482.709 1178.75 488.72 1102.09 c 0,6,7
 500.18 957.838 500.18 957.838 747.884 954.464 c 2,8,-1
 793.77 953.839 l 1,9,-1
 793.77 722.097 l 1,10,-1
 752.285 714.218 l 2,11,12
 615.781 688.292 615.781 688.292 526.396 633.254 c 0,13,14
 416.21 565.408 416.21 565.408 408.08 466.251 c 0,15,16
 403.705 412.893 403.705 412.893 412.437 380.783 c 0,17,18
 455.933 211.749 455.933 211.749 745.567 262.086 c 0,19,20
 840.244 278.54 840.244 278.54 936.985 325.93 c 2,21,-1
 1009.91 361.652 l 1,22,-1
 1009.91 77.4717 l 1,23,-1
 977.729 64.6953 l 2,24,25
 846.872 12.7424 846.872 12.7424 675.291 0.873047 c 0,26,27
 473.259 -12.6064 473.259 -12.6064 343.777 53.4102 c 128,-1,28
 214.275 119.437 214.275 119.437 174.639 267.055 c 0,29,30
 104.265 531.332 104.265 531.332 253.359 719.08 c 0,31,32
 307.359 787.08 307.359 787.08 385.479 835.259 c 1,33,34
 259.426 910.74 259.426 910.74 239.523 1060.67 c 0,35,36
 222.717 1187.28 222.717 1187.28 274.505 1282.43 c 128,-1,37
 326.293 1377.59 326.293 1377.59 440.943 1429.8 c 0,38,39
 561.687 1484.78 561.687 1484.78 758.022 1471.15 c 2,40,-1
 794.634 1468.61 l 1,0,-1
EndSplineSet
EndChar

StartChar: afii57397
Encoding: 1637 1637 93
Width: 1177
VWidth: 2232
GlyphClass: 2
Flags: W
LayerCount: 2
Fore
SplineSet
570.648 1027.55 m 1,0,1
 467.065 948 467.065 948 392.666 807.608 c 0,2,3
 318.203 664.37 318.203 664.37 312.913 550.451 c 0,4,5
 306.055 402.752 306.055 402.752 382.011 340.285 c 0,6,7
 458.491 277.373 458.491 277.373 613.091 278.155 c 0,8,9
 774.065 278 774.065 278 830.749 366.331 c 0,10,11
 879.614 445.006 879.614 445.006 868.601 580.229 c 0,12,13
 857.891 718.864 857.891 718.864 738.846 876.802 c 0,14,15
 657.936 984.157 657.936 984.157 570.648 1027.55 c 1,0,1
315.065 1233 m 5,16,-1
 474.46 1441.9 l 1,17,18
 697.371 1309.07 697.371 1309.07 849.46 1145.95 c 0,19,20
 1122.65 852.939 1122.65 852.939 1137.94 571.32 c 0,21,22
 1152.75 296.682 1152.75 296.682 1033.13 169.602 c 0,23,24
 888.075 16.835 888.075 16.835 594.154 17.958 c 1,25,26
 295.991 17.958 295.991 17.958 155.078 169.913 c 0,27,28
 9.26074 328.21 9.26074 328.21 39.8691 574.7 c 0,29,30
 61.648 748.155 61.648 748.155 158.592 925.315 c 0,31,32
 238.584 1071.5 238.584 1071.5 378.46 1198.07 c 1,33,-1
 315.065 1233 l 5,16,-1
EndSplineSet
EndChar

StartChar: afii57398
Encoding: 1638 1638 94
Width: 1177
VWidth: 2232
GlyphClass: 2
Flags: W
LayerCount: 2
Fore
SplineSet
938.271 1409.99 m 2,0,1
 939.711 1107.55 939.711 1107.55 977.631 745.786 c 0,2,3
 1007.5 460.518 1007.5 460.518 1106.89 72.1445 c 2,4,-1
 1123.18 8.5 l 1,5,-1
 845.407 8.5 l 1,6,-1
 835.517 46.7256 l 2,7,8
 746.732 389.872 746.732 389.872 714.006 739.261 c 0,9,10
 687.841 1017.67 687.841 1017.67 682.809 1162.22 c 1,11,12
 587.781 1141.4 587.781 1141.4 460.1 1141.4 c 0,13,14
 272.177 1141.4 272.177 1141.4 94.8613 1192.36 c 2,15,-1
 57.9502 1202.97 l 1,16,-1
 57.9502 1475.08 l 1,17,-1
 121.88 1458.32 l 2,18,19
 298.618 1412 298.618 1412 460.1 1412 c 0,20,21
 669.139 1412 669.139 1412 875.861 1459.46 c 2,22,-1
 937.968 1473.71 l 1,23,-1
 938.271 1409.99 l 2,0,1
EndSplineSet
EndChar

StartChar: afii57399
Encoding: 1639 1639 95
Width: 1177
VWidth: 2283
GlyphClass: 2
Flags: W
LayerCount: 2
Fore
SplineSet
337.174 632.484 m 0,0,1
 230.972 1021.17 230.972 1021.17 63.1396 1309.87 c 2,2,-1
 36.0176 1356.53 l 1,3,-1
 285.661 1483.34 l 1,4,-1
 308.487 1437.06 l 2,5,6
 471.243 1107.03 471.243 1107.03 566.73 772.816 c 0,7,8
 578.862 730.326 578.862 730.326 588.5 696.391 c 1,9,10
 598.237 730.685 598.237 730.685 610.27 772.816 c 0,11,12
 705.772 1107.08 705.772 1107.08 868.514 1437.06 c 2,13,-1
 891.349 1483.36 l 1,14,-1
 1141 1356.42 l 1,15,-1
 1113.62 1309.71 l 2,16,17
 948.058 1027.3 948.058 1027.3 839.675 631.976 c 0,18,19
 752.152 312.734 752.152 312.734 719.478 53.1309 c 2,20,-1
 713.86 8.5 l 1,21,-1
 461.792 8.5 l 1,22,-1
 458.076 55.4795 l 2,23,24
 443.107 244.785 443.107 244.785 337.174 632.484 c 0,0,1
EndSplineSet
EndChar

StartChar: afii57400
Encoding: 1640 1640 96
Width: 1177
VWidth: 2283
GlyphClass: 2
Flags: W
LayerCount: 2
Fore
SplineSet
461.791 1465.5 m 1,0,-1
 713.86 1465.5 l 1,1,-1
 719.478 1420.87 l 2,2,3
 754.874 1139.63 754.874 1139.63 839.534 842.531 c 0,4,5
 963.459 407.635 963.459 407.635 1125.79 149.659 c 2,6,-1
 1159.12 96.6729 l 1,7,-1
 888.919 -4.43262 l 1,8,-1
 868.514 36.9414 l 2,9,10
 705.771 366.921 705.771 366.921 610.27 701.184 c 0,11,12
 598.608 741.997 598.608 741.997 588.5 779.427 c 1,13,14
 578.39 741.994 578.39 741.994 566.73 701.184 c 0,15,16
 471.229 366.92 471.229 366.92 308.486 36.9414 c 2,17,-1
 288.087 -4.4209 l 1,18,-1
 19.1914 96.1064 l 1,19,-1
 50.3994 148.572 l 2,20,21
 173.811 356.046 173.811 356.046 338.012 844.246 c 0,22,23
 435.438 1132.2 435.438 1132.2 458.076 1418.52 c 2,24,-1
 461.791 1465.5 l 1,0,-1
EndSplineSet
EndChar

StartChar: afii57401
Encoding: 1641 1641 97
Width: 1177
VWidth: 2232
GlyphClass: 2
Flags: W
LayerCount: 2
Fore
SplineSet
722.822 647.396 m 1,0,1
 542.645 648.782 542.645 648.782 460.183 667.122 c 0,2,3
 262.705 711.471 262.705 711.471 173.884 809.457 c 0,4,5
 74 919.648 74 919.648 74 1052.65 c 0,6,7
 74 1225.38 74 1225.38 183.322 1334.79 c 0,8,9
 327.646 1480.33 327.646 1480.33 499.862 1479.2 c 1,10,11
 701.504 1479.2 701.504 1479.2 799.716 1384.51 c 0,12,13
 932.439 1255.4 932.439 1255.4 947.759 1049.74 c 0,14,15
 958.395 906.118 958.395 906.118 977.572 746.297 c 0,16,17
 1015.67 430.119 1015.67 430.119 1106.91 72.0938 c 2,18,-1
 1123.12 8.5 l 1,19,-1
 844.444 8.5 l 1,20,-1
 835.636 48.543 l 2,21,22
 747.433 449.502 747.433 449.502 722.822 647.396 c 1,0,1
693.53 907.146 m 1,23,-1
 693.53 967.05 l 2,24,25
 693.53 1078.9 693.53 1078.9 655.654 1130.55 c 0,26,27
 622.486 1177.13 622.486 1177.13 586.235 1197.56 c 128,-1,28
 549.985 1218 549.985 1218 505.264 1217.6 c 0,29,30
 433.838 1217.6 433.838 1217.6 382.424 1168 c 0,31,32
 332.6 1119.96 332.6 1119.96 332.6 1058 c 0,33,34
 332.6 1012.08 332.6 1012.08 385.384 967.047 c 1,35,36
 418.343 941.206 418.343 941.206 489.185 924.244 c 0,37,38
 553.601 908.82 553.601 908.82 693.53 907.146 c 1,23,-1
EndSplineSet
EndChar

StartChar: afii57381
Encoding: 1642 1642 98
Width: 1177
VWidth: 2237
GlyphClass: 2
Flags: W
LayerCount: 2
Fore
SplineSet
788.04 352 m 1,0,-1
 1056.64 352 l 1,1,-1
 1056.64 8.5 l 1,2,-1
 788.04 8.5 l 1,3,-1
 788.04 352 l 1,0,-1
119.29 1475.5 m 1,4,-1
 387.89 1475.5 l 1,5,-1
 387.89 1132 l 1,6,-1
 119.29 1132 l 1,7,-1
 119.29 1475.5 l 1,4,-1
840.389 1475.5 m 1,8,-1
 1097.2 1475.5 l 1,9,-1
 336.611 8.5 l 1,10,-1
 79.8047 8.5 l 1,11,-1
 840.389 1475.5 l 1,8,-1
EndSplineSet
EndChar

StartChar: uni066B
Encoding: 1643 1643 99
Width: 711
VWidth: 2186
GlyphClass: 2
Flags: W
LayerCount: 2
Fore
SplineSet
443.218 502.139 m 1,0,-1
 568.799 501.203 l 1,1,2
 342.799 113.203 342.799 113.203 130 -230.265 c 1,3,-1
 1.59766 -228.502 l 1,4,5
 94.7988 -78.7969 94.7988 -78.7969 443.218 502.139 c 1,0,-1
EndSplineSet
EndChar

StartChar: uni066C
Encoding: 1644 1644 100
Width: 696
GlyphClass: 2
Flags: W
LayerCount: 2
Fore
SplineSet
291.2 1580.01 m 1,0,-1
 490.97 1580.01 l 1,1,-1
 490.97 1433.52 l 1,2,-1
 320.557 1102.04 l 1,3,-1
 207.225 1102.04 l 1,4,-1
 291.2 1428.73 l 1,5,-1
 291.2 1580.01 l 1,0,-1
EndSplineSet
EndChar

StartChar: afii63167
Encoding: 1645 1645 101
Width: 1194
GlyphClass: 2
Flags: W
LayerCount: 2
Fore
SplineSet
-23.2812 896.63 m 1,0,-1
 449.703 896.63 l 1,1,-1
 597.062 1345.28 l 1,2,-1
 744.417 896.63 l 1,3,-1
 1217.4 896.63 l 1,4,-1
 835.389 617.365 l 1,5,-1
 981.707 167.859 l 1,6,-1
 597.061 445.808 l 1,7,-1
 212.413 167.86 l 1,8,-1
 358.731 617.365 l 1,9,-1
 -23.2812 896.63 l 1,0,-1
EndSplineSet
EndChar

StartChar: uni066E
Encoding: 1646 1646 102
Width: 1806
VWidth: 2232
GlyphClass: 2
Flags: W
AnchorPoint: "Anchor-10" 763.22 1102.5 basechar 0
AnchorPoint: "Anchor-7" 763.22 -128 basechar 0
LayerCount: 2
Fore
SplineSet
871.342 0.987305 m 0,0,1
 527.645 -0.03125 527.645 -0.03125 359.331 70.3232 c 0,2,3
 218.717 129.1 218.717 129.1 138.948 237.435 c 128,-1,4
 59.1807 345.77 59.1807 345.77 45.5898 496.569 c 0,5,6
 34.5693 614.426 34.5693 614.426 78.751 767.869 c 2,7,-1
 92.5498 815.794 l 1,8,-1
 314.134 757.327 l 1,9,-1
 306.833 711.732 l 2,10,11
 285.816 580.478 285.816 580.478 288.471 528.857 c 0,12,13
 293.739 426.411 293.739 426.411 360.14 366.613 c 128,-1,14
 426.54 306.815 426.54 306.815 569.563 284.78 c 0,15,16
 642.216 273.56 642.216 273.56 814.039 273.017 c 1,17,18
 1035.01 274.204 1035.01 274.204 1061.48 276.766 c 0,19,20
 1415.07 310.776 1415.07 310.776 1436.93 370.72 c 1,21,22
 1444.87 431.354 1444.87 431.354 1439.09 491.241 c 0,23,24
 1420.58 670.563 1420.58 670.563 1398.49 740.18 c 2,25,-1
 1385.4 781.414 l 1,26,-1
 1640.42 911.327 l 1,27,-1
 1655.66 848.659 l 2,28,29
 1682.88 736.724 1682.88 736.724 1695.87 601.484 c 0,30,31
 1720.07 349.469 1720.07 349.469 1664.36 228.051 c 0,32,33
 1608.1 105.331 1608.1 105.331 1411.38 53.5723 c 128,-1,34
 1214.67 1.81445 1214.67 1.81445 871.342 0.987305 c 0,0,1
EndSplineSet
Substitution2: "'init' Initial Forms in Arabic lookup 13 subtable" uni066E.init
Substitution2: "'medi' Medial Forms in Arabic lookup 11 subtable" uni066E.medi
Substitution2: "'fina' Terminal Forms in Arabic lookup 9 subtable" uni066E.fina
EndChar

StartChar: uni066F
Encoding: 1647 1647 103
Width: 1554
VWidth: 2283
GlyphClass: 2
Flags: W
AnchorPoint: "Anchor-10" 315 1147.5 basechar 0
AnchorPoint: "Anchor-7" 442 -537 basechar 0
LayerCount: 2
Fore
SplineSet
1106.1 686.834 m 0,0,1
 1019.23 685.028 1019.23 685.028 978.11 568.715 c 0,2,3
 965.586 532.529 965.586 532.529 963.686 504.84 c 0,4,5
 960.651 460.646 960.651 460.646 985.555 439.135 c 128,-1,6
 1010.46 417.622 1010.46 417.622 1086.37 412.592 c 0,7,8
 1139.81 409.012 1139.81 409.012 1216.95 424.962 c 1,9,10
 1215.06 506.834 1215.06 506.834 1202.49 568.057 c 0,11,12
 1188.62 637.248 1188.62 637.248 1165.15 662.439 c 128,-1,13
 1141.69 687.631 1141.69 687.631 1106.1 686.834 c 0,0,1
1460.83 220.723 m 0,14,15
 1438.47 -59.3926 1438.47 -59.3926 1266.89 -227.708 c 1,16,17
 1058.81 -420.595 1058.81 -420.595 685.667 -411.732 c 0,18,19
 370.529 -404.402 370.529 -404.402 207.959 -238.546 c 0,20,21
 39.1377 -67.7061 39.1377 -67.7061 42.8555 220.253 c 0,22,23
 45.7627 437.738 45.7627 437.738 141.155 630.792 c 2,24,-1
 159.44 667.795 l 1,25,-1
 404.5 605.501 l 1,26,-1
 384.087 552 l 2,27,28
 301.95 336.728 301.95 336.728 302.782 209.432 c 0,29,30
 304.082 19.2197 304.082 19.2197 406.332 -69.4648 c 128,-1,31
 508.581 -158.148 508.581 -158.148 730.992 -155.857 c 0,32,33
 1003.48 -153.45 1003.48 -153.45 1125.12 -10.3262 c 0,34,35
 1188.73 64.5283 1188.73 64.5283 1204.15 165.433 c 1,36,37
 1143.79 157.795 1143.79 157.795 1092.06 157.703 c 0,38,39
 897.996 157.448 897.996 157.448 803.964 262.729 c 0,40,41
 710.429 367.452 710.429 367.452 730.913 531.832 c 0,42,43
 754.874 724.12 754.874 724.12 872.683 838.264 c 0,44,45
 987.298 949.323 987.298 949.323 1124.14 940.931 c 0,46,47
 1214.59 935.511 1214.59 935.511 1283.4 889.429 c 128,-1,48
 1352.21 843.346 1352.21 843.346 1392.63 761.316 c 0,49,50
 1451.95 640.994 1451.95 640.994 1459.86 483.096 c 0,51,52
 1467.96 313.005 1467.96 313.005 1460.83 220.723 c 0,14,15
EndSplineSet
Substitution2: "'init' Initial Forms in Arabic lookup 13 subtable" uni066F.init
Substitution2: "'medi' Medial Forms in Arabic lookup 11 subtable" uni066F.medi
Substitution2: "'fina' Terminal Forms in Arabic lookup 9 subtable" uni066F.fina
EndChar

StartChar: uni0670
Encoding: 1648 1648 104
Width: 0
VWidth: 2186
GlyphClass: 4
Flags: W
AnchorPoint: "Anchor-10" 547.84 1279.5 mark 0
AnchorPoint: "Anchor-9" 547.84 1279.5 mark 0
AnchorPoint: "Anchor-1" 557.84 1911 basemark 0
AnchorPoint: "Anchor-1" 547.84 1279.5 mark 0
LayerCount: 2
Fore
SplineSet
525.99 1327.81 m 5,0,-1
 501.99 1781.69 l 5,1,-1
 593.69 1835.69 l 5,2,-1
 593.69 1327.81 l 5,3,-1
 525.99 1327.81 l 5,0,-1
EndSplineSet
EndChar

StartChar: uni0674
Encoding: 1652 1652 105
Width: 639
VWidth: 2186
GlyphClass: 2
Flags: W
LayerCount: 2
Fore
SplineSet
143.54 1515.26 m 1,0,-1
 254.306 1540.82 l 1,1,-1
 219.379 1556.7 l 2,2,3
 176.794 1576.05 176.794 1576.05 161.706 1610 c 0,4,5
 145.68 1647.06 145.68 1647.06 145.68 1692.52 c 0,6,7
 145.68 1788.83 145.68 1788.83 200.568 1830.98 c 0,8,9
 259.108 1876.4 259.108 1876.4 353.1 1876.4 c 0,10,11
 411.842 1876.4 411.842 1876.4 462.08 1846.81 c 1,12,-1
 462.08 1769.8 l 1,13,14
 412.732 1795.4 412.732 1795.4 353.1 1795.4 c 0,15,16
 276.875 1795.4 276.875 1795.4 254.747 1771.97 c 0,17,18
 220.26 1733.92 220.26 1733.92 220.26 1701.08 c 0,19,20
 220.26 1608.9 220.26 1608.9 330.161 1577.33 c 0,21,22
 366.368 1566.36 366.368 1566.36 484.55 1593.69 c 1,23,-1
 484.55 1511.4 l 1,24,-1
 143.54 1434.84 l 1,25,-1
 143.54 1515.26 l 1,0,-1
EndSplineSet
EndChar

StartChar: uni06A1
Encoding: 1697 1697 109
Width: 1757
VWidth: 2232
GlyphClass: 2
Flags: W
AnchorPoint: "Anchor-10" 515.55 1276.28 basechar 0
AnchorPoint: "Anchor-7" 467.55 -211.88 basechar 0
LayerCount: 2
Fore
SplineSet
354.331 70.3232 m 0,0,1
 213.717 129.1 213.717 129.1 133.948 237.435 c 128,-1,2
 54.1807 345.77 54.1807 345.77 40.5898 496.568 c 0,3,4
 29.5693 614.425 29.5693 614.425 73.751 767.868 c 2,5,-1
 87.5498 815.793 l 1,6,-1
 308.657 757.452 l 1,7,-1
 301.916 712.269 l 2,8,9
 283.13 586.34 283.13 586.34 285.496 528.316 c 0,10,11
 289.71 425.043 289.71 425.043 355.433 365.487 c 128,-1,12
 421.154 305.931 421.154 305.931 564.22 284.831 c 0,13,14
 601.271 279.367 601.271 279.367 801.731 272.989 c 0,15,16
 1125.88 262.593 1125.88 262.593 1308.96 317.992 c 0,17,18
 1372.39 337.163 1372.39 337.163 1407.86 374.887 c 1,19,20
 1363.9 367.149 1363.9 367.149 1309.04 366.146 c 0,21,22
 1120.15 362.803 1120.15 362.803 1038.27 477.855 c 1,23,24
 966.348 576.684 966.348 576.684 983.684 723.201 c 0,25,26
 1004.91 907.242 1004.91 907.242 1104.89 1012.21 c 0,27,28
 1168.96 1079.47 1168.96 1079.47 1247.03 1105.87 c 128,-1,29
 1325.1 1132.28 1325.1 1132.28 1410.58 1114.29 c 0,30,31
 1537.33 1087.63 1537.33 1087.63 1611.41 960.814 c 0,32,33
 1677.45 847.754 1677.45 847.754 1694.99 695.27 c 1,34,35
 1717.34 511.515 1717.34 511.515 1679.89 357.233 c 0,36,37
 1652.58 244.981 1652.58 244.981 1573.39 167.055 c 128,-1,38
 1494.2 89.127 1494.2 89.127 1369.81 48.9629 c 0,39,40
 1208.95 -2.97852 1208.95 -2.97852 852.353 0.00195312 c 0,41,42
 515.837 2.81445 515.837 2.81445 354.331 70.3232 c 0,0,1
1336.65 863.924 m 0,43,44
 1296.63 862.778 1296.63 862.778 1269.5 834.852 c 128,-1,45
 1242.36 806.926 1242.36 806.926 1225.07 738.016 c 0,46,47
 1222.33 726.956 1222.33 726.956 1220.59 716.736 c 0,48,49
 1211.72 664.499 1211.72 664.499 1225.13 644.17 c 128,-1,50
 1238.54 623.84 1238.54 623.84 1283.83 616.187 c 0,51,52
 1389.71 597.836 1389.71 597.836 1462.43 642.883 c 1,53,54
 1461.05 670.83 1461.05 670.83 1451.27 723.772 c 0,55,56
 1436.17 804.338 1436.17 804.338 1408.29 834.766 c 128,-1,57
 1380.42 865.193 1380.42 865.193 1336.65 863.924 c 0,43,44
EndSplineSet
Substitution2: "'init' Initial Forms in Arabic lookup 13 subtable" uni06A1.init
Substitution2: "'medi' Medial Forms in Arabic lookup 11 subtable" uni06A1.medi
Substitution2: "'fina' Terminal Forms in Arabic lookup 9 subtable" uni06A1.fina
EndChar

StartChar: uni06A9
Encoding: 1705 1705 110
Width: 1767
VWidth: 2232
GlyphClass: 2
Flags: W
AnchorPoint: "Anchor-10" 369 1253.34 basechar 0
AnchorPoint: "Anchor-7" 475 -229.68 basechar 0
LayerCount: 2
Fore
SplineSet
844.779 0 m 2,0,1
 526.573 0 526.573 0 358.333 70.3242 c 0,2,3
 217.718 129.1 217.718 129.1 137.949 237.436 c 128,-1,4
 58.1816 345.771 58.1816 345.771 44.5908 496.569 c 0,5,6
 33.5706 614.421 33.5706 614.421 77.752 767.869 c 2,7,-1
 91.5508 815.794 l 1,8,-1
 314.14 757.062 l 1,9,-1
 305.643 710.618 l 2,10,11
 280.792 574.782 280.792 574.782 283.479 528.761 c 0,12,13
 287.635 426.534 287.635 426.534 354.743 366.816 c 128,-1,14
 421.852 307.098 421.852 307.098 568.511 284.789 c 0,15,16
 636.006 274.357 636.006 274.357 804.387 273.016 c 2,17,-1
 1056.95 271.004 l 1,18,-1
 1191.21 271.004 l 2,19,20
 1429.81 271.004 1429.81 271.004 1446.33 376.699 c 0,21,22
 1454.71 430.299 1454.71 430.299 1435.11 473.292 c 128,-1,23
 1415.52 516.291 1415.52 516.291 1362.54 555.607 c 2,24,-1
 1001.87 823.27 l 2,25,26
 914.168 888.356 914.168 888.356 905.533 989.106 c 0,27,28
 902.855 1020.34 902.855 1020.34 905.907 1048.63 c 0,29,30
 912.419 1109.01 912.419 1109.01 945.971 1156.02 c 128,-1,31
 979.521 1203.03 979.521 1203.03 1035.42 1231.4 c 2,32,-1
 1756.09 1597.17 l 1,33,-1
 1756.09 1317.53 l 1,34,-1
 1193.2 1023.34 l 1,35,36
 1378.97 883.984 1378.97 883.984 1553.85 739.123 c 1,37,38
 1723.59 596.671 1723.59 596.671 1697.24 338.283 c 0,39,40
 1679.91 172.11 1679.91 172.11 1542.24 81.2832 c 4,41,42
 1419.03 0 1419.03 0 1232.54 -0 c 2,43,-1
 844.779 0 l 2,0,1
EndSplineSet
Substitution2: "'init' Initial Forms in Arabic lookup 13 subtable" uniFB90
Substitution2: "'medi' Medial Forms in Arabic lookup 11 subtable" uniFB91
Substitution2: "'fina' Terminal Forms in Arabic lookup 9 subtable" uniFB8F
EndChar

StartChar: afii57514
Encoding: 1722 1722 112
Width: 1420
VWidth: 2232
GlyphClass: 2
Flags: W
AnchorPoint: "Anchor-10" 594.734 1199.15 basechar 0
AnchorPoint: "Anchor-7" 572.58 -494.02 basechar 0
LayerCount: 2
Fore
SplineSet
1334.76 375.433 m 0,0,1
 1333.71 57.4609 1333.71 57.4609 1159.24 -112.491 c 128,-1,2
 984.771 -282.443 984.771 -282.443 675.324 -281.997 c 0,3,4
 382.917 -281.576 382.917 -281.576 219.919 -141.486 c 128,-1,5
 56.9209 -1.39648 56.9209 -1.39648 40.6602 274.391 c 0,6,7
 35.624 359.558 35.624 359.558 58.3906 476.901 c 0,8,9
 81.6572 596.812 81.6572 596.812 132.891 706.763 c 2,10,-1
 153.021 749.965 l 1,11,-1
 380.851 662.012 l 1,12,-1
 361.307 613.925 l 2,13,14
 277.832 408.539 277.832 408.539 293.142 269.522 c 0,15,16
 310.247 114.205 310.247 114.205 401.575 41.2061 c 128,-1,17
 492.904 -31.792 492.904 -31.792 674.729 -30.7588 c 0,18,19
 875.061 -29.2764 875.061 -29.2764 971.247 56.3945 c 128,-1,20
 1067.43 142.065 1067.43 142.065 1075.81 322.831 c 0,21,22
 1083.32 485.13 1083.32 485.13 974.256 638.31 c 2,23,-1
 948.652 674.269 l 1,24,-1
 1162.91 878.983 l 1,25,-1
 1195.71 824.169 l 2,26,27
 1335.44 590.706 1335.44 590.706 1334.76 375.433 c 0,0,1
EndSplineSet
Substitution2: "'init' Initial Forms in Arabic lookup 13 subtable" uni06BA.init
Substitution2: "'medi' Medial Forms in Arabic lookup 11 subtable" uni06BA.medi
Substitution2: "'fina' Terminal Forms in Arabic lookup 9 subtable" uniFB9F
EndChar

StartChar: uni06F4
Encoding: 1780 1780 119
Width: 1177
VWidth: 2334
GlyphClass: 2
Flags: W
LayerCount: 2
Fore
SplineSet
394.545 1263.03 m 1,0,1
 472.212 1417.42 472.212 1417.42 604.548 1455.98 c 0,2,3
 762.989 1502.03 762.989 1502.03 968.225 1459.34 c 2,4,-1
 1008.84 1450.89 l 1,5,-1
 1008.84 1212.39 l 1,6,-1
 943.992 1230.69 l 2,7,8
 907.821 1240.89 907.821 1240.89 827.775 1251.03 c 0,9,10
 688.772 1268.65 688.772 1268.65 622.195 1200.71 c 0,11,12
 576.789 1154.66 576.789 1154.66 569.782 1116.02 c 128,-1,13
 562.775 1077.37 562.775 1077.37 588.243 1038.92 c 0,14,15
 603.31 1014.98 603.31 1014.98 653.327 998.475 c 128,-1,16
 703.345 981.968 703.345 981.968 791.291 981.86 c 0,17,18
 841.314 981.814 841.314 981.814 1007.99 1006.32 c 2,19,-1
 1065.5 1014.77 l 1,20,-1
 1069.21 775.513 l 1,21,-1
 1024.17 769.585 l 2,22,23
 826.645 743.59 826.645 743.59 761.84 743.59 c 0,24,25
 627.028 743.59 627.028 743.59 528.736 784.815 c 1,26,27
 528.49 783.799 528.49 783.799 536.596 727.699 c 0,28,29
 575.732 474.125 575.732 474.125 572.439 59.0957 c 2,30,-1
 572.038 8.5 l 1,31,-1
 313.754 8.5 l 1,32,-1
 313.664 59.4102 l 2,33,34
 312.915 483.829 312.915 483.829 274.477 726.61 c 0,35,36
 228.902 1010.55 228.902 1010.55 99.625 1300.44 c 2,37,-1
 81.9854 1340 l 1,38,-1
 314.417 1493.01 l 1,39,-1
 336.035 1431.38 l 2,40,41
 372.066 1328.67 372.066 1328.67 394.545 1263.03 c 1,0,1
EndSplineSet
EndChar

StartChar: uni06F5
Encoding: 1781 1781 120
Width: 1177
VWidth: 2232
GlyphClass: 2
Flags: W
LayerCount: 2
Fore
SplineSet
699.484 370.299 m 2,0,1
 712.231 322.028 712.231 322.028 735.881 303.556 c 128,-1,2
 759.53 285.083 759.53 285.083 804.814 286.373 c 0,3,4
 836.884 287.139 836.884 287.139 858.807 294.777 c 0,5,6
 877.567 301.316 877.567 301.316 888.971 313.711 c 128,-1,7
 900.375 326.105 900.375 326.105 906.103 349.224 c 128,-1,8
 911.831 372.342 911.831 372.342 905.368 411.596 c 128,-1,9
 898.906 450.85 898.906 450.85 879.938 505.06 c 0,10,11
 774.529 804.396 774.529 804.396 589.421 1049.51 c 1,12,13
 399.875 782.53 399.875 782.53 308.484 500.959 c 0,14,15
 285.365 429.235 285.365 429.235 285.327 380.975 c 0,16,17
 285.285 330.13 285.285 330.13 308.015 310.037 c 128,-1,18
 330.744 289.945 330.744 289.945 395.245 289.945 c 0,19,20
 431.318 289.945 431.318 289.945 454.3 308.472 c 128,-1,21
 477.282 326.999 477.282 326.999 493.842 374.171 c 2,22,-1
 505.815 408.276 l 1,23,-1
 689.456 408.278 l 1,24,-1
 699.484 370.299 l 2,0,1
366.972 8.36426 m 0,25,26
 213.318 8.36426 213.318 8.36426 125.26 91.4092 c 128,-1,27
 37.2012 174.453 37.2012 174.453 29.0723 327.291 c 0,28,29
 18.7305 521.723 18.7305 521.723 138.86 775.857 c 128,-1,30
 258.991 1029.99 258.991 1029.99 507.887 1352.6 c 0,31,32
 519.535 1367.7 519.535 1367.7 532.108 1378.02 c 0,33,34
 558.212 1399.46 558.212 1399.46 588.545 1400.61 c 0,35,36
 636.723 1402.44 636.723 1402.44 676.57 1353.57 c 0,37,38
 930.792 1041.8 930.792 1041.8 1049.43 787.317 c 128,-1,39
 1168.06 532.839 1168.06 532.839 1147.75 328.965 c 0,40,41
 1132.83 178.641 1132.83 178.641 1048.35 95.1104 c 128,-1,42
 963.874 11.5801 963.874 11.5801 820.697 8.87402 c 0,43,44
 669.771 5.81152 669.771 5.81152 591.341 107.402 c 1,45,46
 514.932 8.36621 514.932 8.36621 366.972 8.36426 c 0,25,26
EndSplineSet
EndChar

StartChar: uni06F6
Encoding: 1782 1782 121
Width: 1177
VWidth: 2283
GlyphClass: 2
Flags: W
LayerCount: 2
Fore
SplineSet
382.162 533.291 m 0,0,1
 449.073 647.976 449.073 647.976 510.175 718.315 c 1,2,3
 410.037 753.2 410.037 753.2 352.271 833.27 c 128,-1,4
 294.508 913.339 294.508 913.339 281.877 1030.04 c 0,5,6
 261.562 1217.51 261.562 1217.51 392.067 1353.33 c 0,7,8
 511.15 1477.27 511.15 1477.27 689.08 1477.27 c 0,9,10
 813.505 1477.27 813.505 1477.27 909.141 1446.76 c 0,11,12
 926.891 1441.1 926.891 1441.1 944.64 1435.43 c 1,13,-1
 944.64 1181.22 l 1,14,-1
 879.849 1199.42 l 2,15,16
 682.245 1254.92 682.245 1254.92 600.334 1194.48 c 0,17,18
 540.18 1150.64 540.18 1150.64 540.18 1048.37 c 0,19,20
 540.18 980.383 540.18 980.383 588.479 935.598 c 0,21,22
 625.869 900.759 625.869 900.759 722.209 900.541 c 1,23,24
 759.399 905.658 759.399 905.658 964.679 979.025 c 2,25,-1
 1032.84 1003.39 l 1,26,-1
 1032.84 741.923 l 1,27,-1
 999.09 729.794 l 2,28,29
 783.859 652.448 783.859 652.448 641.875 458.562 c 0,30,31
 506.74 274.022 506.74 274.022 450.49 47.2236 c 2,32,-1
 440.887 8.5 l 1,33,-1
 178.528 8.5 l 1,34,-1
 196.749 73.3047 l 2,35,36
 273.714 347.032 273.714 347.032 382.162 533.291 c 0,0,1
EndSplineSet
EndChar

StartChar: uniFB8F
Encoding: 64399 64399 136
Width: 2024
VWidth: 2232
GlyphClass: 2
Flags: W
AnchorPoint: "Anchor-10" 450 1225.5 basechar 0
AnchorPoint: "Anchor-7" 499 -239 basechar 0
LayerCount: 2
Fore
SplineSet
360.365 70.3086 m 0,0,1
 219.263 129.053 219.263 129.053 139.213 237.391 c 128,-1,2
 59.1631 345.729 59.1631 345.729 45.584 496.629 c 0,3,4
 34.8184 614.609 34.8184 614.609 79.8193 768.105 c 2,5,-1
 93.7822 815.732 l 1,6,-1
 315.134 757.327 l 1,7,-1
 307.833 711.732 l 2,8,9
 286.816 580.478 286.816 580.478 289.471 528.857 c 0,10,11
 294.739 426.413 294.739 426.413 361.141 366.614 c 128,-1,12
 427.541 306.814 427.541 306.814 570.559 284.781 c 0,13,14
 643.506 273.522 643.506 273.522 802.718 271.479 c 1,15,-1
 1252.65 271.63 l 2,16,17
 1348.79 271.662 1348.79 271.662 1392.91 296.633 c 128,-1,18
 1437.02 321.603 1437.02 321.603 1446.72 368.75 c 0,19,20
 1457.67 422.004 1457.67 422.004 1397.78 488.498 c 2,21,-1
 1136.83 778.217 l 2,22,23
 1033.85 892.531 1033.85 892.531 1030.27 980.854 c 0,24,25
 1029.28 1005.35 1029.28 1005.35 1033.24 1028.43 c 0,26,27
 1051.72 1136.13 1051.72 1136.13 1171.95 1201.23 c 2,28,-1
 1922.05 1607.37 l 1,29,-1
 1922.05 1324.58 l 1,30,-1
 1292.94 983.551 l 1,31,-1
 1865.23 348.276 l 2,32,33
 1934.5 271.381 1934.5 271.381 2024.29 271.79 c 2,34,-1
 2094.95 272.113 l 1,35,-1
 2094.95 1 l 1,36,-1
 1994.21 1 l 2,37,38
 1827.05 1 1827.05 1 1649.02 203.704 c 1,39,40
 1554.37 0.5 1554.37 0.5 1172.67 0.5 c 2,41,-1
 810.445 0.5 l 2,42,43
 528.617 -0.0195312 528.617 -0.0195312 360.365 70.3086 c 0,0,1
EndSplineSet
EndChar

StartChar: uniFB9F
Encoding: 64415 64415 144
Width: 1441
VWidth: 2237
GlyphClass: 2
Flags: W
AnchorPoint: "Anchor-10" 527.924 888.593 basechar 0
AnchorPoint: "Anchor-7" 399.494 -670.601 basechar 0
LayerCount: 2
Fore
SplineSet
1263.6 18.1328 m 1,0,1
 1244.86 -170.944 1244.86 -170.944 1143.54 -290.816 c 0,2,3
 985.616 -479.554 985.616 -479.554 656.59 -488.232 c 0,4,5
 393.871 -495.146 393.871 -495.146 224.302 -360.553 c 0,6,7
 49.8057 -222.105 49.8057 -222.105 33.4795 57.8652 c 0,8,9
 28.6553 139.456 28.6553 139.456 50.4033 251.545 c 0,10,11
 73.0996 368.524 73.0996 368.524 123.533 475.282 c 2,12,-1
 143.031 516.557 l 1,13,-1
 381.59 434.66 l 1,14,-1
 361.017 384.607 l 2,15,16
 249.62 113.578 249.62 113.578 317.573 -51.1953 c 1,17,18
 360.815 -140.643 360.815 -140.643 441.478 -184.682 c 128,-1,19
 522.14 -228.721 522.14 -228.721 650.063 -229.072 c 0,20,21
 828.592 -229.562 828.592 -229.562 918.849 -159.758 c 128,-1,22
 1009.11 -89.9521 1009.11 -89.9521 1027.51 57.3262 c 0,23,24
 1051.79 251.538 1051.79 251.538 932.624 403.696 c 2,25,-1
 904.075 440.15 l 1,26,-1
 1127.21 652.595 l 1,27,28
 1131.72 640.225 1131.72 640.225 1140.62 616.043 c 128,-1,29
 1149.53 591.86 1149.53 591.86 1153.91 579.468 c 0,30,31
 1207.12 433.695 1207.12 433.695 1256.91 341.17 c 0,32,33
 1259.22 336.872 1259.22 336.872 1261.75 332.879 c 0,34,35
 1300.74 271.38 1300.74 271.38 1406.28 271.38 c 2,36,-1
 1499.53 271.38 l 1,37,-1
 1499.53 0.5 l 1,38,-1
 1350.43 0.5 l 2,39,40
 1303.14 0.5 1303.14 0.5 1263.6 18.1328 c 1,0,1
EndSplineSet
EndChar

StartChar: uniFBE8
Encoding: 64488 64488 147
Width: 591
VWidth: 2237
GlyphClass: 2
Flags: W
AnchorPoint: "Anchor-10" 253.93 1067.5 basechar 0
AnchorPoint: "Anchor-7" 299.93 -231.5 basechar 0
LayerCount: 2
Fore
SplineSet
373.7 87.2578 m 0,0,1
 318.316 40.2119 318.316 40.2119 228.483 20.1064 c 128,-1,2
 138.651 0 138.651 0 7.64941 0 c 2,3,-1
 -50.4004 0 l 1,4,-1
 -50.4004 270.98 l 1,5,-1
 21.0498 270.98 l 2,6,7
 77.2471 270.98 77.2471 270.98 118.098 276.354 c 0,8,9
 200.263 286.956 200.263 286.956 218.193 329.256 c 0,10,11
 241.504 383.795 241.504 383.795 229.174 530.07 c 0,12,13
 220.113 633.601 220.113 633.601 198.72 719.926 c 2,14,-1
 186.023 771.158 l 1,15,-1
 426.102 821.974 l 1,16,17
 481.02 684.992 481.02 684.992 487.949 539.873 c 4,18,19
 496.478 372.158 496.478 372.158 470.08 259.381 c 128,-1,20
 443.684 146.604 443.684 146.604 373.7 87.2578 c 0,0,1
EndSplineSet
EndChar

StartChar: uniFBE9
Encoding: 64489 64489 148
Width: 697
VWidth: 2232
GlyphClass: 2
Flags: W
AnchorPoint: "Anchor-10" 326.93 1015.5 basechar 0
AnchorPoint: "Anchor-7" 308.93 -234.5 basechar 0
LayerCount: 2
Fore
SplineSet
335.286 87.1436 m 1,0,1
 239.117 0 239.117 0 89.9004 -0 c 2,2,-1
 -71.4014 0 l 1,3,-1
 -71.4014 270.98 l 1,4,-1
 43.0488 270.98 l 2,5,6
 137.401 270.98 137.401 270.98 168.762 302.129 c 0,7,8
 209.341 342.438 209.341 342.438 210.473 394.884 c 2,9,-1
 215.905 646.602 l 1,10,-1
 453.708 687.695 l 1,11,-1
 464.362 395.643 l 2,12,13
 466.373 340.553 466.373 340.553 507.991 304.096 c 0,14,15
 545.792 270.98 545.792 270.98 662.811 270.98 c 2,16,-1
 768.659 270.98 l 1,17,-1
 768.659 0 l 1,18,-1
 603.959 0 l 2,19,20
 435.739 0 435.739 0 335.286 87.1436 c 1,0,1
EndSplineSet
EndChar

StartChar: uniFE73
Encoding: 65139 65139 156
Width: 573
VWidth: 2186
GlyphClass: 2
Flags: W
AnchorPoint: "Anchor-10" 210.79 1279.5 basechar 0
AnchorPoint: "Anchor-7" 210.79 -111.5 basechar 0
LayerCount: 2
Fore
SplineSet
296.23 350.74 m 2,0,1
 296.23 286.506 296.23 286.506 352.468 230.268 c 0,2,3
 403.354 179.38 403.354 179.38 514.67 179.38 c 2,4,-1
 581.92 179.38 l 1,5,-1
 581.92 8.5 l 1,6,-1
 455.82 8.5 l 2,7,8
 309.266 8.5 309.266 8.5 214.633 103.133 c 0,9,10
 125.35 192.415 125.35 192.415 125.35 337.9 c 2,11,-1
 125.35 370.91 l 1,12,-1
 296.23 370.91 l 1,13,-1
 296.23 350.74 l 2,0,1
EndSplineSet
EndChar

StartChar: uniFE8E
Encoding: 65166 65166 182
Width: 634
VWidth: 2232
GlyphClass: 2
Flags: W
AnchorPoint: "Anchor-10" 253.95 1522 basechar 0
AnchorPoint: "Anchor-7" 268.95 -239.5 basechar 0
LayerCount: 2
Fore
SplineSet
146.49 454.52 m 2,0,-1
 108.26 1355.76 l 1,1,-1
 368.419 1470.19 l 1,2,-1
 367.989 467.761 l 2,3,4
 367.954 386.487 367.954 386.487 389.159 345.818 c 0,5,6
 428.18 270.98 428.18 270.98 540.83 270.98 c 2,7,-1
 654.08 270.98 l 1,8,-1
 654.08 0 l 1,9,-1
 520.98 0 l 2,10,11
 316.162 0 316.162 0 217.494 146.512 c 0,12,13
 155.661 238.321 155.661 238.321 146.49 454.52 c 2,0,-1
EndSplineSet
EndChar

StartChar: uniFEA2
Encoding: 65186 65186 202
Width: 1446
VWidth: 2232
GlyphClass: 2
Flags: W
AnchorPoint: "Anchor-10" 680.5 1224.5 basechar 0
AnchorPoint: "Anchor-7" 250.84 -762.64 basechar 0
LayerCount: 2
Fore
SplineSet
1255.94 793.67 m 1,0,-1
 1219.54 569.358 l 1,1,-1
 1183.07 563.602 l 2,2,3
 1136.01 556.173 1136.01 556.173 1069.28 540.659 c 1,4,5
 1101.51 400.01 1101.51 400.01 1177.34 335.694 c 128,-1,6
 1253.18 271.38 1253.18 271.38 1383.13 271.38 c 2,7,-1
 1517.94 271.38 l 1,8,-1
 1517.94 0.5 l 1,9,-1
 1389.51 0.5 l 2,10,11
 1169.09 0.5 1169.09 0.5 1028.57 123.128 c 128,-1,12
 888.047 245.756 888.047 245.756 836.573 478.843 c 1,13,14
 558.077 394.206 558.077 394.206 426.842 269.167 c 128,-1,15
 295.607 144.129 295.607 144.129 295.688 -21.5791 c 0,16,17
 295.735 -111.713 295.735 -111.713 331.059 -176.306 c 128,-1,18
 366.383 -240.899 366.383 -240.899 440.202 -286.65 c 0,19,20
 581.321 -374.113 581.321 -374.113 817.211 -351.565 c 0,21,22
 1019.67 -332.832 1019.67 -332.832 1189.33 -211.332 c 2,23,-1
 1243.79 -172.325 l 1,24,-1
 1334.32 -418.77 l 1,25,-1
 1302.59 -441.351 l 2,26,27
 1134.36 -561.049 1134.36 -561.049 894.508 -590.488 c 0,28,29
 658.3 -619.372 658.3 -619.372 488.106 -580.612 c 0,30,31
 288.088 -535.47 288.088 -535.47 175.009 -414.642 c 128,-1,32
 61.9297 -293.814 61.9297 -293.814 45.8682 -104.895 c 0,33,34
 22.4326 174.436 22.4326 174.436 197.252 373.977 c 128,-1,35
 372.072 573.518 372.072 573.518 729.227 688.676 c 1,36,37
 722.816 690.463 722.816 690.463 716.831 692.171 c 0,38,39
 614.046 721.312 614.046 721.312 547.235 728.029 c 0,40,41
 427.346 739.371 427.346 739.371 307.419 584.725 c 2,42,-1
 276.288 544.58 l 1,43,-1
 95.2471 683.842 l 1,44,-1
 119.94 723.121 l 2,45,46
 188.03 831.432 188.03 831.432 302.922 917.009 c 0,47,48
 397.197 986.212 397.197 986.212 559.805 974.66 c 0,49,50
 653.359 968.014 653.359 968.014 898.655 875.988 c 0,51,52
 1042.03 822.2 1042.03 822.2 1187.46 802.273 c 0,53,54
 1195.42 801.184 1195.42 801.184 1203.4 800.192 c 2,55,-1
 1255.94 793.67 l 1,0,-1
EndSplineSet
EndChar

StartChar: uniFEA3
Encoding: 65187 65187 203
Width: 1335
VWidth: 2232
GlyphClass: 2
Flags: W
AnchorPoint: "Anchor-10" 457 1103.73 basechar 0
AnchorPoint: "Anchor-7" 696 -225.5 basechar 0
LayerCount: 2
Fore
SplineSet
639.071 94.5762 m 4,0,1
 443.656 0 443.656 0 43.2549 0 c 6,2,-1
 -71.4004 0 l 5,3,-1
 -71.4004 270.981 l 5,4,-1
 14.6006 270.979 l 6,5,6
 353.731 270.975 353.731 270.975 482.543 317.454 c 4,7,8
 639.473 374.08 639.473 374.08 775.933 434.383 c 5,9,10
 729.998 450.971 729.998 450.971 675.572 475.259 c 4,11,12
 490.232 557.97 490.232 557.97 399.765 570.928 c 4,13,14
 314.717 583.527 314.717 583.527 206.706 441.521 c 6,15,-1
 175.662 400.707 l 5,16,-1
 -7.78418 541.819 l 5,17,-1
 20.4512 581.811 l 6,18,19
 115.589 716.558 115.589 716.558 179.979 764.146 c 4,20,21
 322.936 867.873 322.936 867.873 511.214 816.767 c 4,22,23
 568.603 801.189 568.603 801.189 884.147 664.336 c 4,24,25
 1076.9 580.726 1076.9 580.726 1230.75 590.889 c 6,26,-1
 1294.95 595.13 l 5,27,-1
 1256.74 364.784 l 5,28,-1
 1222.77 357.522 l 6,29,30
 1193.16 351.192 1193.16 351.192 1037.43 281.598 c 132,-1,31
 881.699 212.002 881.699 212.002 639.071 94.5762 c 4,0,1
EndSplineSet
EndChar

StartChar: uniFEA4
Encoding: 65188 65188 204
Width: 1394
VWidth: 2232
GlyphClass: 2
Flags: W
AnchorPoint: "Anchor-10" 455 1123.69 basechar 0
AnchorPoint: "Anchor-7" 591 -313.5 basechar 0
LayerCount: 2
Fore
SplineSet
808.226 175.147 m 1,0,1
 730.38 138.382 730.38 138.382 638.985 94.5352 c 0,2,3
 443.44 0 443.44 0 43.2549 0 c 2,4,-1
 -71.4004 0 l 1,5,-1
 -71.4004 270.979 l 1,6,-1
 14.5996 270.979 l 2,7,8
 353.746 270.979 353.746 270.979 482.543 317.454 c 0,9,10
 639.468 374.077 639.468 374.077 775.933 434.383 c 1,11,12
 730.005 450.969 730.005 450.969 675.572 475.26 c 0,13,14
 490.236 557.969 490.236 557.969 399.765 570.928 c 0,15,16
 314.717 583.527 314.717 583.527 206.706 441.521 c 2,17,-1
 175.662 400.707 l 1,18,-1
 -7.78418 541.819 l 1,19,-1
 20.4512 581.811 l 2,20,21
 115.591 716.559 115.591 716.559 179.803 764.016 c 0,22,23
 321.042 868.387 321.042 868.387 511.213 816.767 c 0,24,25
 568.735 801.152 568.735 801.152 884.147 664.336 c 0,26,27
 1076.93 580.728 1076.93 580.728 1230.75 590.889 c 2,28,-1
 1294.95 595.13 l 1,29,-1
 1256.86 365.505 l 1,30,-1
 1223.75 357.742 l 2,31,32
 1192.03 350.304 1192.03 350.304 1057.37 290.243 c 1,33,34
 1119.96 271.88 1119.96 271.88 1243.32 271.88 c 2,35,-1
 1465.94 271.88 l 1,36,-1
 1465.94 -0.000976562 l 1,37,-1
 1221.92 -0.000976562 l 2,38,39
 904.624 -0.000976562 904.624 -0.000976562 808.226 175.147 c 1,0,1
EndSplineSet
EndChar

StartChar: uniFEAA
Encoding: 65194 65194 210
Width: 1138
VWidth: 2232
GlyphClass: 2
Flags: W
AnchorPoint: "Anchor-10" 582.99 1303.65 basechar 0
AnchorPoint: "Anchor-7" 501.5 -229 basechar 0
LayerCount: 2
Fore
SplineSet
636.626 484.771 m 2,0,-1
 451.834 909.958 l 1,1,-1
 695.216 1013.4 l 1,2,-1
 715.586 967.53 l 2,3,4
 777.787 827.465 777.787 827.465 938.105 457.878 c 1,5,6
 1008.44 298.269 1008.44 298.269 1119.04 271.38 c 1,7,-1
 1209.65 271.38 l 1,8,-1
 1209.65 0.5 l 1,9,-1
 1117.44 0.5 l 2,10,11
 964.615 0.5 964.615 0.5 864.658 98.916 c 1,12,13
 699.678 -40.6572 699.678 -40.6572 386.319 -24.707 c 0,14,15
 194.997 -14.9707 194.997 -14.9707 89.1797 58.1562 c 2,16,-1
 67.1748 73.3633 l 1,17,-1
 67.1748 364.53 l 1,18,-1
 142.915 322.512 l 2,19,20
 279.478 246.753 279.478 246.753 408.036 242.606 c 0,21,22
 524.026 238.91 524.026 238.91 594.059 253.077 c 128,-1,23
 664.091 267.243 664.091 267.243 678.479 285.355 c 0,24,25
 704.043 317.535 704.043 317.535 693.573 345.677 c 0,26,27
 672.709 401.755 672.709 401.755 636.626 484.771 c 2,0,-1
EndSplineSet
EndChar

StartChar: uniFEAE
Encoding: 65198 65198 214
Width: 1021
VWidth: 2237
GlyphClass: 2
Flags: W
AnchorPoint: "Anchor-10" 543 949 basechar 0
AnchorPoint: "Anchor-7" 487.925 -640.55 basechar 0
LayerCount: 2
Fore
SplineSet
518.916 534.078 m 1,0,-1
 748.549 699.516 l 1,1,-1
 764.533 622.574 l 2,2,3
 827.361 320.14 827.361 320.14 831.088 310.36 c 0,4,5
 846.095 270.98 846.095 270.98 985.84 270.98 c 2,6,-1
 1087.6 270.98 l 1,7,-1
 1087.6 0.00292969 l 1,8,-1
 1015.6 0.000976562 l 2,9,10
 991.441 0.000321227 991.441 0.000321227 990.611 0.0078125 c 0,11,12
 889.846 0.175781 889.846 0.175781 829.691 20.3389 c 1,13,14
 777.102 -237.53 777.102 -237.53 604.589 -370.3 c 128,-1,15
 432.083 -503.062 432.083 -503.062 152.368 -503.804 c 2,16,-1
 122.197 -503.884 l 1,17,-1
 0.489258 -283.734 l 1,18,-1
 81.7549 -278.861 l 2,19,20
 326.335 -264.195 326.335 -264.195 451.365 -164.83 c 0,21,22
 576.104 -65.6982 576.104 -65.6982 597.423 123.15 c 0,23,24
 607.825 215.289 607.825 215.289 528.476 499.8 c 2,25,-1
 518.916 534.078 l 1,0,-1
EndSplineSet
PairPos2: "'kern' Horizontal Kerning lookup 15-1" uniFB58 dx=70 dy=0 dh=70 dv=0 dx=0 dy=0 dh=0 dv=0
PairPos2: "'kern' Horizontal Kerning lookup 15-1" uniFEF3 dx=70 dy=0 dh=70 dv=0 dx=0 dy=0 dh=0 dv=0
PairPos2: "'kern' Horizontal Kerning lookup 15-1" uniFBFE dx=70 dy=0 dh=70 dv=0 dx=0 dy=0 dh=0 dv=0
PairPos2: "'kern' Horizontal Kerning lookup 15-1" uniFEDF dx=-150 dy=0 dh=-150 dv=0 dx=0 dy=0 dh=0 dv=0
PairPos2: "'kern' Horizontal Kerning lookup 15-1" uniFBAC dx=-150 dy=0 dh=-150 dv=0 dx=0 dy=0 dh=0 dv=0
PairPos2: "'kern' Horizontal Kerning lookup 15-1" uniFB90 dx=-150 dy=0 dh=-150 dv=0 dx=0 dy=0 dh=0 dv=0
PairPos2: "'kern' Horizontal Kerning lookup 15-1" uni06A9 dx=-150 dy=0 dh=-150 dv=0 dx=0 dy=0 dh=0 dv=0
PairPos2: "'kern' Horizontal Kerning lookup 15-1" uni0649 dx=-100 dy=0 dh=-100 dv=0 dx=0 dy=0 dh=0 dv=0
PairPos2: "'kern' Horizontal Kerning lookup 15-1" uni0647 dx=-150 dy=0 dh=-150 dv=0 dx=0 dy=0 dh=0 dv=0
PairPos2: "'kern' Horizontal Kerning lookup 15-1" uniFEE7 dx=-150 dy=0 dh=-150 dv=0 dx=0 dy=0 dh=0 dv=0
PairPos2: "'kern' Horizontal Kerning lookup 15-1" uniFEE3 dx=-150 dy=0 dh=-150 dv=0 dx=0 dy=0 dh=0 dv=0
PairPos2: "'kern' Horizontal Kerning lookup 15-1" uni0645 dx=-150 dy=0 dh=-150 dv=0 dx=0 dy=0 dh=0 dv=0
PairPos2: "'kern' Horizontal Kerning lookup 15-1" uniFEDB dx=-150 dy=0 dh=-150 dv=0 dx=0 dy=0 dh=0 dv=0
PairPos2: "'kern' Horizontal Kerning lookup 15-1" uniFED7 dx=-150 dy=0 dh=-150 dv=0 dx=0 dy=0 dh=0 dv=0
PairPos2: "'kern' Horizontal Kerning lookup 15-1" uniFED3 dx=-150 dy=0 dh=-150 dv=0 dx=0 dy=0 dh=0 dv=0
PairPos2: "'kern' Horizontal Kerning lookup 15-1" uni0641 dx=-150 dy=0 dh=-150 dv=0 dx=0 dy=0 dh=0 dv=0
PairPos2: "'kern' Horizontal Kerning lookup 15-1" uniFECF dx=-70 dy=0 dh=-70 dv=0 dx=0 dy=0 dh=0 dv=0
PairPos2: "'kern' Horizontal Kerning lookup 15-1" uniFECB dx=-70 dy=0 dh=-70 dv=0 dx=0 dy=0 dh=0 dv=0
PairPos2: "'kern' Horizontal Kerning lookup 15-1" uniFEC7 dx=-150 dy=0 dh=-150 dv=0 dx=0 dy=0 dh=0 dv=0
PairPos2: "'kern' Horizontal Kerning lookup 15-1" uni0638 dx=-150 dy=0 dh=-150 dv=0 dx=0 dy=0 dh=0 dv=0
PairPos2: "'kern' Horizontal Kerning lookup 15-1" uniFEC3 dx=-150 dy=0 dh=-150 dv=0 dx=0 dy=0 dh=0 dv=0
PairPos2: "'kern' Horizontal Kerning lookup 15-1" uni0637 dx=-150 dy=0 dh=-150 dv=0 dx=0 dy=0 dh=0 dv=0
PairPos2: "'kern' Horizontal Kerning lookup 15-1" uniFEBF dx=-150 dy=0 dh=-150 dv=0 dx=0 dy=0 dh=0 dv=0
PairPos2: "'kern' Horizontal Kerning lookup 15-1" uni0636 dx=-150 dy=0 dh=-150 dv=0 dx=0 dy=0 dh=0 dv=0
PairPos2: "'kern' Horizontal Kerning lookup 15-1" uniFEBB dx=-150 dy=0 dh=-150 dv=0 dx=0 dy=0 dh=0 dv=0
PairPos2: "'kern' Horizontal Kerning lookup 15-1" uni0635 dx=-150 dy=0 dh=-150 dv=0 dx=0 dy=0 dh=0 dv=0
PairPos2: "'kern' Horizontal Kerning lookup 15-1" uniFEB7 dx=-150 dy=0 dh=-150 dv=0 dx=0 dy=0 dh=0 dv=0
PairPos2: "'kern' Horizontal Kerning lookup 15-1" uni0634 dx=-150 dy=0 dh=-150 dv=0 dx=0 dy=0 dh=0 dv=0
PairPos2: "'kern' Horizontal Kerning lookup 15-1" uniFEB3 dx=-150 dy=0 dh=-150 dv=0 dx=0 dy=0 dh=0 dv=0
PairPos2: "'kern' Horizontal Kerning lookup 15-1" uni0633 dx=-150 dy=0 dh=-150 dv=0 dx=0 dy=0 dh=0 dv=0
PairPos2: "'kern' Horizontal Kerning lookup 15-1" uni0630 dx=-150 dy=0 dh=-150 dv=0 dx=0 dy=0 dh=0 dv=0
PairPos2: "'kern' Horizontal Kerning lookup 15-1" uni062F dx=-150 dy=0 dh=-150 dv=0 dx=0 dy=0 dh=0 dv=0
PairPos2: "'kern' Horizontal Kerning lookup 15-1" uniFEA7 dx=-70 dy=0 dh=-70 dv=0 dx=0 dy=0 dh=0 dv=0
PairPos2: "'kern' Horizontal Kerning lookup 15-1" uniFEA3 dx=-70 dy=0 dh=-70 dv=0 dx=0 dy=0 dh=0 dv=0
PairPos2: "'kern' Horizontal Kerning lookup 15-1" uniFE9F dx=-70 dy=0 dh=-70 dv=0 dx=0 dy=0 dh=0 dv=0
PairPos2: "'kern' Horizontal Kerning lookup 15-1" uniFE9B dx=-150 dy=0 dh=-150 dv=0 dx=0 dy=0 dh=0 dv=0
PairPos2: "'kern' Horizontal Kerning lookup 15-1" uni062B dx=-150 dy=0 dh=-150 dv=0 dx=0 dy=0 dh=0 dv=0
PairPos2: "'kern' Horizontal Kerning lookup 15-1" uniFE97 dx=-150 dy=0 dh=-150 dv=0 dx=0 dy=0 dh=0 dv=0
PairPos2: "'kern' Horizontal Kerning lookup 15-1" uni062A dx=-150 dy=0 dh=-150 dv=0 dx=0 dy=0 dh=0 dv=0
PairPos2: "'kern' Horizontal Kerning lookup 15-1" uni0629 dx=-150 dy=0 dh=-150 dv=0 dx=0 dy=0 dh=0 dv=0
PairPos2: "'kern' Horizontal Kerning lookup 15-1" uni0628 dx=-150 dy=0 dh=-150 dv=0 dx=0 dy=0 dh=0 dv=0
PairPos2: "'kern' Horizontal Kerning lookup 15-1" uni0627 dx=-170 dy=0 dh=-170 dv=0 dx=0 dy=0 dh=0 dv=0
PairPos2: "'kern' Horizontal Kerning lookup 15-1" uni0622 dx=-170 dy=0 dh=-170 dv=0 dx=0 dy=0 dh=0 dv=0
PairPos2: "'kern' Horizontal Kerning lookup 15-1" uniFB94 dx=-150 dy=0 dh=-150 dv=0 dx=0 dy=0 dh=0 dv=0
PairPos2: "'kern' Horizontal Kerning lookup 15-1" afii57509 dx=-150 dy=0 dh=-150 dv=0 dx=0 dy=0 dh=0 dv=0
PairPos2: "'kern' Horizontal Kerning lookup 15-1" uniFB56 dx=-150 dy=0 dh=-150 dv=0 dx=0 dy=0 dh=0 dv=0
PairPos2: "'kern' Horizontal Kerning lookup 15-1" afii57506 dx=-150 dy=0 dh=-150 dv=0 dx=0 dy=0 dh=0 dv=0
EndChar

StartChar: uniFEB2
Encoding: 65202 65202 218
Width: 2414
VWidth: 2237
GlyphClass: 2
Flags: W
AnchorPoint: "Anchor-10" 550 932.5 basechar 0
AnchorPoint: "Anchor-7" 360 -705.5 basechar 0
LayerCount: 2
Fore
SplineSet
1251.6 359.479 m 1,0,1
 1264.64 335.944 1264.64 335.944 1280.75 319.127 c 0,2,3
 1329.05 268.725 1329.05 268.725 1415.49 269.909 c 0,4,5
 1469.62 270.569 1469.62 270.569 1497.68 300.52 c 128,-1,6
 1525.73 330.47 1525.73 330.47 1534.97 406.187 c 2,7,-1
 1562.73 633.65 l 1,8,-1
 1776.08 633.65 l 1,9,-1
 1794.79 418.425 l 2,10,11
 1802.61 328.344 1802.61 328.344 1831.1 294.662 c 128,-1,12
 1859.59 260.98 1859.59 260.98 1913.5 262.487 c 0,13,14
 1947.14 263.427 1947.14 263.427 1966.92 291.976 c 128,-1,15
 1986.7 320.523 1986.7 320.523 1991.5 399.224 c 2,16,-1
 2010.26 706.36 l 1,17,-1
 2213.32 706.36 l 1,18,-1
 2246.59 404.093 l 2,19,20
 2261.19 271.38 2261.19 271.38 2407.46 271.38 c 6,21,-1
 2485.33 271.38 l 1,22,-1
 2485.33 0.5 l 1,23,-1
 2378.92 0.5 l 2,24,25
 2210.74 0.5 2210.74 0.5 2123.97 89.1152 c 1,26,27
 2037.56 -1.59668 2037.56 -1.59668 1890.96 0.00195312 c 0,28,29
 1749.9 1.22461 1749.9 1.22461 1669.06 93.3799 c 1,30,31
 1588.47 -0.868164 1588.47 -0.868164 1443.5 0.000976562 c 0,32,33
 1332.82 0.668945 1332.82 0.668945 1269.02 23.7324 c 1,34,35
 1242.08 -224.743 1242.08 -224.743 1086.88 -354.771 c 128,-1,36
 931.682 -484.801 931.682 -484.801 662.902 -488.246 c 0,37,38
 375.912 -491.925 375.912 -491.925 216.211 -352.589 c 128,-1,39
 56.5098 -213.253 56.5098 -213.253 40.4805 57.8428 c 0,40,41
 35.6553 139.456 35.6553 139.456 57.4023 251.545 c 0,42,43
 80.0986 368.524 80.0986 368.524 130.532 475.282 c 2,44,-1
 150.03 516.557 l 1,45,-1
 388.588 434.662 l 1,46,-1
 368.016 384.608 l 2,47,48
 284.617 181.699 284.617 181.699 301.342 55.3281 c 0,49,50
 320.667 -90.7041 320.667 -90.7041 405.849 -159.657 c 128,-1,51
 491.03 -228.611 491.03 -228.611 657.062 -229.072 c 0,52,53
 835.593 -229.558 835.593 -229.558 925.849 -159.755 c 128,-1,54
 1016.1 -89.9531 1016.1 -89.9531 1034.51 57.3262 c 0,55,56
 1058.79 251.538 1058.79 251.538 939.623 403.696 c 2,57,-1
 911.074 440.15 l 1,58,-1
 1131.12 649.651 l 1,59,-1
 1159.93 581.946 l 2,60,61
 1194.53 500.623 1194.53 500.623 1251.6 359.479 c 1,0,1
EndSplineSet
EndChar

StartChar: uniFEB3
Encoding: 65203 65203 219
Width: 1580
VWidth: 2232
GlyphClass: 2
Flags: W
AnchorPoint: "Anchor-10" 720.5 1069.5 basechar 0
AnchorPoint: "Anchor-7" 735.5 -229 basechar 0
LayerCount: 2
Fore
SplineSet
285.199 49.5791 m 0,0,1
 210.659 0 210.659 0 64.7002 0 c 2,2,-1
 -71.4004 0 l 1,3,-1
 -71.4004 270.98 l 1,4,-1
 5.84961 270.98 l 2,5,6
 123.026 270.98 123.026 270.98 174.416 308.031 c 128,-1,7
 225.806 345.081 225.806 345.081 231.701 423.089 c 2,8,-1
 246.966 625.07 l 1,9,-1
 450.411 625.07 l 1,10,-1
 469.954 424.273 l 2,11,12
 478.545 336.004 478.545 336.004 514.244 299.232 c 128,-1,13
 549.943 262.462 549.943 262.462 622.281 261.629 c 128,-1,14
 694.438 260.791 694.438 260.791 724.173 282.187 c 128,-1,15
 753.907 303.581 753.907 303.581 759.631 352.107 c 2,16,-1
 791.83 625.07 l 1,17,-1
 989.949 625.07 l 1,18,-1
 1016.91 373.632 l 2,19,20
 1024.67 301.191 1024.67 301.191 1052.17 277.077 c 128,-1,21
 1079.67 252.964 1079.67 252.964 1140.78 260.266 c 0,22,23
 1184.62 265.164 1184.62 265.164 1201.68 301.01 c 0,24,25
 1230.22 362.687 1230.22 362.687 1217.63 468.32 c 0,26,27
 1211.34 520.268 1211.34 520.268 1181.08 687.365 c 2,28,-1
 1173.11 731.372 l 1,29,-1
 1406.07 806.027 l 1,30,-1
 1422.42 759.035 l 2,31,32
 1464.03 639.429 1464.03 639.429 1474.13 500.062 c 0,33,34
 1490.96 255.714 1490.96 255.714 1399.76 128.81 c 0,35,36
 1309.42 1.54199 1309.42 1.54199 1121.06 0.500977 c 0,37,38
 1041.81 -0.0585938 1041.81 -0.0585938 996.708 19.8213 c 0,39,40
 931.602 48.2139 931.602 48.2139 890.836 95.4678 c 1,41,42
 800.934 -1.26074 800.934 -1.26074 590.079 0.00683594 c 0,43,44
 426.47 1.46191 426.47 1.46191 340.819 93.9688 c 1,45,46
 315.566 69.7764 315.566 69.7764 285.199 49.5791 c 0,0,1
EndSplineSet
EndChar

StartChar: uniFEB4
Encoding: 65204 65204 220
Width: 1738
VWidth: 2227
GlyphClass: 2
Flags: W
AnchorPoint: "Anchor-10" 720.5 999.5 basechar 0
AnchorPoint: "Anchor-7" 786.5 -244 basechar 0
LayerCount: 2
Fore
SplineSet
1148.83 2.12695 m 0,0,1
 991.77 0.222656 991.77 0.222656 916.418 101.678 c 1,2,3
 812.25 1.74609 812.25 1.74609 626.271 3.21191 c 0,4,5
 467.379 4.46289 467.379 4.46289 364.252 104.599 c 1,6,7
 341.777 85.1143 341.777 85.1143 309.579 63.6982 c 0,8,9
 213.81 -0 213.81 -0 63.207 0 c 2,10,-1
 -71.2744 0 l 1,11,-1
 -71.2744 270.979 l 1,12,-1
 55.4814 270.979 l 1,13,14
 225.09 272.409 225.09 272.409 239.858 382.021 c 2,15,-1
 272.913 627.36 l 1,16,-1
 468.304 627.36 l 1,17,-1
 497.53 419.484 l 2,18,19
 508.787 339.416 508.787 339.416 544.492 304.694 c 128,-1,20
 580.197 269.973 580.197 269.973 649.831 267.652 c 0,21,22
 721.625 265.463 721.625 265.463 754.865 292.573 c 128,-1,23
 788.105 319.683 788.105 319.683 797.321 386.427 c 2,24,-1
 830.592 627.36 l 1,25,-1
 1022.85 627.36 l 1,26,-1
 1056.31 371.416 l 2,27,28
 1064 312.62 1064 312.62 1087.08 290.221 c 128,-1,29
 1110.16 267.822 1110.16 267.822 1158.53 267.607 c 0,30,31
 1202.18 267.413 1202.18 267.413 1223.96 291.869 c 128,-1,32
 1245.75 316.325 1245.75 316.325 1252.19 384.115 c 2,33,-1
 1281.82 696 l 1,34,-1
 1479.27 696 l 1,35,-1
 1510.94 416.871 l 2,36,37
 1527.38 271.88 1527.38 271.88 1702.45 271.88 c 2,38,-1
 1809.64 271.88 l 1,39,-1
 1809.64 0 l 1,40,-1
 1657.66 0 l 2,41,42
 1477.42 0 1477.42 0 1387.37 91.7002 c 1,43,44
 1309.51 3.69531 1309.51 3.69531 1148.83 2.12695 c 0,0,1
EndSplineSet
EndChar

StartChar: uniFEBA
Encoding: 65210 65210 226
Width: 2530
VWidth: 2232
GlyphClass: 2
Flags: W
AnchorPoint: "Anchor-10" 578 1032.5 basechar 0
AnchorPoint: "Anchor-7" 344 -681.5 basechar 0
LayerCount: 2
Fore
SplineSet
1537.93 281.508 m 1,0,-1
 1607.66 281.508 l 2,1,2
 1897.2 281.508 1897.2 281.508 1997.99 320.987 c 0,3,4
 2084.43 354.843 2084.43 354.843 2098.45 413.565 c 1,5,6
 2104.05 462.22 2104.05 462.22 2084.14 489.324 c 0,7,8
 2059.77 523.139 2059.77 523.139 2004.71 531.128 c 0,9,10
 1891.36 547.471 1891.36 547.471 1770.82 472.524 c 1,11,12
 1640.87 393.186 1640.87 393.186 1537.93 281.508 c 1,0,-1
1390.64 -1.6543 m 2,13,14
 1323.36 -1.93652 1323.36 -1.93652 1269.7 30.166 c 1,15,16
 1244.43 -220.956 1244.43 -220.956 1088.97 -352.867 c 128,-1,17
 933.504 -484.777 933.504 -484.777 662.903 -488.246 c 0,18,19
 375.914 -491.925 375.914 -491.925 216.212 -352.589 c 128,-1,20
 56.5098 -213.253 56.5098 -213.253 40.4805 57.8428 c 0,21,22
 35.6553 139.456 35.6553 139.456 57.4033 251.545 c 0,23,24
 80.0996 368.524 80.0996 368.524 130.533 475.282 c 2,25,-1
 150.031 516.557 l 1,26,-1
 388.589 434.662 l 1,27,-1
 368.017 384.608 l 2,28,29
 284.618 181.699 284.618 181.699 301.343 55.3281 c 0,30,31
 320.668 -90.7041 320.668 -90.7041 405.85 -159.657 c 128,-1,32
 491.031 -228.611 491.031 -228.611 657.063 -229.072 c 0,33,34
 835.601 -229.558 835.601 -229.558 925.854 -159.756 c 128,-1,35
 1016.11 -89.9551 1016.11 -89.9551 1034.51 57.3262 c 0,36,37
 1058.79 251.538 1058.79 251.538 939.624 403.696 c 2,38,-1
 911.075 440.15 l 1,39,-1
 1131.12 649.651 l 1,40,-1
 1159.93 581.946 l 2,41,42
 1194.56 500.552 1194.56 500.552 1252.37 357.589 c 0,43,44
 1258.19 344.61 1258.19 344.61 1266.7 338.288 c 1,45,46
 1489.53 648.525 1489.53 648.525 1737.84 755.762 c 0,47,48
 1999.09 868.583 1999.09 868.583 2200.71 748.236 c 0,49,50
 2296.06 691.324 2296.06 691.324 2335.56 594.78 c 128,-1,51
 2375.07 498.235 2375.07 498.235 2358.09 372.733 c 0,52,53
 2355.36 352.111 2355.36 352.111 2350.03 331.48 c 1,54,55
 2409.1 270.881 2409.1 270.881 2495.25 270.881 c 2,56,-1
 2589.54 270.881 l 1,57,-1
 2589.54 -0.000976562 l 1,58,-1
 2473.85 -0.000976562 l 2,59,60
 2263.97 -0.000976562 2263.97 -0.000976562 2174.93 106.034 c 1,61,62
 2006.96 0.932617 2006.96 0.932617 1665.66 -0.5 c 2,63,-1
 1390.64 -1.6543 l 2,13,14
EndSplineSet
EndChar

StartChar: uniFEBB
Encoding: 65211 65211 227
Width: 1686
VWidth: 2232
GlyphClass: 2
Flags: W
AnchorPoint: "Anchor-10" 548.3 1120.8 basechar 0
AnchorPoint: "Anchor-7" 643.3 -233 basechar 0
LayerCount: 2
Fore
SplineSet
794.443 282.009 m 1,0,-1
 864.165 282.009 l 2,1,2
 1153.7 282.009 1153.7 282.009 1254.5 321.487 c 0,3,4
 1340.95 355.346 1340.95 355.346 1354.96 414.068 c 1,5,6
 1360.56 462.716 1360.56 462.716 1340.65 489.825 c 0,7,8
 1316.28 523.64 1316.28 523.64 1261.25 531.624 c 0,9,10
 1147.87 547.972 1147.87 547.972 1027.33 473.024 c 1,11,12
 897.402 393.698 897.402 393.698 794.443 282.009 c 1,0,-1
662.824 0.670898 m 2,13,14
 456.131 1.20605 456.131 1.20605 343.823 125.208 c 1,15,16
 224.371 0 224.371 0 60.9902 0 c 2,17,-1
 -71.4004 0 l 1,18,-1
 -71.4004 270.979 l 1,19,-1
 2.13965 270.979 l 2,20,21
 99.3252 270.979 99.3252 270.979 140.504 303.302 c 0,22,23
 216.457 362.935 216.457 362.935 219.247 438.254 c 2,24,-1
 226.461 633.04 l 1,25,-1
 471.055 633.04 l 1,26,-1
 479.486 417.18 l 2,27,28
 480.817 383.114 480.817 383.114 491.253 365.848 c 128,-1,29
 501.689 348.58 501.689 348.58 523.232 338.816 c 1,30,31
 745.998 649.004 745.998 649.004 994.352 756.264 c 0,32,33
 1255.59 869.088 1255.59 869.088 1457.22 748.737 c 0,34,35
 1552.57 691.824 1552.57 691.824 1592.07 595.281 c 128,-1,36
 1631.58 498.738 1631.58 498.738 1614.6 373.226 c 0,37,38
 1594.39 220.537 1594.39 220.537 1447.08 116.849 c 1,39,40
 1282.31 -0.93457 1282.31 -0.93457 921.816 0 c 2,41,-1
 662.824 0.670898 l 2,13,14
EndSplineSet
EndChar

StartChar: uniFEBC
Encoding: 65212 65212 228
Width: 1781
VWidth: 2232
GlyphClass: 2
Flags: W
AnchorPoint: "Anchor-10" 580.5 1185.5 basechar 0
AnchorPoint: "Anchor-7" 688.5 -225 basechar 0
LayerCount: 2
Fore
SplineSet
801.195 282.008 m 1,0,-1
 870.917 282.008 l 2,1,2
 1160.46 282.008 1160.46 282.008 1261.25 321.487 c 0,3,4
 1347.7 355.346 1347.7 355.346 1361.71 414.067 c 1,5,6
 1367.31 462.715 1367.31 462.715 1347.4 489.824 c 0,7,8
 1323.03 523.638 1323.03 523.638 1267.98 531.627 c 0,9,10
 1154.62 547.972 1154.62 547.972 1034.08 473.025 c 1,11,12
 904.155 393.699 904.155 393.699 801.195 282.008 c 1,0,-1
1438.29 106.413 m 1,13,14
 1270.33 -0.861328 1270.33 -0.861328 928.567 0 c 2,15,-1
 662.823 0.670898 l 2,16,17
 456.128 1.19336 456.128 1.19336 343.817 125.206 c 1,18,19
 224.367 0 224.367 0 60.9863 0 c 2,20,-1
 -71.4043 0 l 1,21,-1
 -71.4043 270.98 l 1,22,-1
 2.13574 270.98 l 2,23,24
 99.3223 270.98 99.3223 270.98 140.502 303.303 c 0,25,26
 216.453 362.935 216.453 362.935 219.243 438.254 c 2,27,-1
 226.457 633.04 l 1,28,-1
 471.051 633.04 l 1,29,-1
 479.482 417.181 l 2,30,31
 481.375 368.727 481.375 368.727 492.711 351.675 c 128,-1,32
 504.047 334.624 504.047 334.624 524.648 331.351 c 1,33,34
 749.654 647.667 749.654 647.667 1001.1 756.263 c 0,35,36
 1262.34 869.088 1262.34 869.088 1463.97 748.737 c 0,37,38
 1559.32 691.825 1559.32 691.825 1598.82 595.28 c 128,-1,39
 1638.32 498.736 1638.32 498.736 1621.35 373.233 c 0,40,41
 1618.62 352.607 1618.62 352.607 1613.28 331.98 c 1,42,43
 1672.35 271.38 1672.35 271.38 1758.51 271.38 c 2,44,-1
 1852.8 271.38 l 1,45,-1
 1852.8 0.5 l 1,46,-1
 1737.11 0.5 l 2,47,48
 1527.22 0.5 1527.22 0.5 1438.29 106.413 c 1,13,14
EndSplineSet
EndChar

StartChar: uniFEC2
Encoding: 65218 65218 234
Width: 1594
VWidth: 2232
GlyphClass: 2
Flags: W
AnchorPoint: "Anchor-7" 635.13 -259 basechar 0
AnchorPoint: "Anchor-10" 300.67 1536.79 basechar 0
LayerCount: 2
Fore
SplineSet
614.194 282.008 m 1,0,-1
 683.917 282.008 l 2,1,2
 973.455 282.008 973.455 282.008 1074.25 321.488 c 0,3,4
 1160.7 355.343 1160.7 355.343 1174.71 414.067 c 1,5,6
 1180.31 462.714 1180.31 462.714 1160.4 489.819 c 0,7,8
 1136.03 523.638 1136.03 523.638 1080.99 531.625 c 0,9,10
 967.619 547.971 967.619 547.971 847.078 473.025 c 1,11,12
 717.154 393.699 717.154 393.699 614.194 282.008 c 1,0,-1
414.714 432.694 m 1,13,14
 605.298 666.083 605.298 666.083 814.104 756.263 c 0,15,16
 1075.34 869.087 1075.34 869.087 1276.97 748.737 c 0,17,18
 1372.32 691.821 1372.32 691.821 1411.82 595.281 c 128,-1,19
 1451.32 498.742 1451.32 498.742 1434.35 373.217 c 0,20,21
 1431.62 352.62 1431.62 352.62 1426.29 331.981 c 1,22,23
 1485.36 271.38 1485.36 271.38 1571.51 271.38 c 2,24,-1
 1665.8 271.38 l 1,25,-1
 1665.8 0.5 l 1,26,-1
 1550.11 0.5 l 2,27,28
 1340.23 0.5 1340.23 0.5 1251.26 106.456 c 1,29,30
 1083.3 0 1083.3 0 741.7 0 c 2,31,-1
 40.5996 0 l 1,32,-1
 40.5996 270.98 l 1,33,-1
 193.229 270.98 l 1,34,-1
 148.903 1352.48 l 1,35,-1
 413.959 1470.37 l 1,36,-1
 414.714 432.694 l 1,13,14
EndSplineSet
EndChar

StartChar: uniFEC3
Encoding: 65219 65219 235
Width: 1511
VWidth: 2232
GlyphClass: 2
Flags: W
AnchorPoint: "Anchor-10" 277.57 1518.47 basechar 0
AnchorPoint: "Anchor-7" 543.57 -249 basechar 0
LayerCount: 2
Fore
SplineSet
599.394 282.009 m 1,0,-1
 669.115 282.009 l 2,1,2
 958.649 282.009 958.649 282.009 1059.45 321.487 c 0,3,4
 1145.89 355.346 1145.89 355.346 1159.91 414.066 c 1,5,6
 1165.5 462.714 1165.5 462.714 1145.6 489.825 c 0,7,8
 1121.23 523.64 1121.23 523.64 1066.17 531.628 c 0,9,10
 952.817 547.971 952.817 547.971 832.273 473.023 c 1,11,12
 702.341 393.687 702.341 393.687 599.394 282.009 c 1,0,-1
726.898 -0.00195312 m 2,13,-1
 -71.25 0 l 1,14,-1
 -71.25 270.979 l 1,15,-1
 180.479 270.98 l 1,16,-1
 138.064 1367.05 l 1,17,-1
 400.169 1470.98 l 1,18,-1
 400.028 432.834 l 1,19,20
 590.495 666.08 590.495 666.08 799.302 756.26 c 0,21,22
 1060.54 869.084 1060.54 869.084 1262.17 748.733 c 0,23,24
 1357.52 691.815 1357.52 691.815 1397.02 595.273 c 128,-1,25
 1436.52 498.732 1436.52 498.732 1419.55 373.228 c 0,26,27
 1399.34 220.533 1399.34 220.533 1251.95 116.791 c 0,28,29
 1087.2 -0.00283482 1087.2 -0.00283482 726.898 -0.00195312 c 2,13,-1
EndSplineSet
EndChar

StartChar: uniFEC4
Encoding: 65220 65220 236
Width: 1490
VWidth: 2232
GlyphClass: 2
Flags: W
AnchorPoint: "Anchor-10" 196.27 1517.79 basechar 0
AnchorPoint: "Anchor-7" 606.73 -251 basechar 0
LayerCount: 2
Fore
SplineSet
510.194 282.008 m 1,0,-1
 579.917 282.008 l 2,1,2
 869.457 282.008 869.457 282.008 970.253 321.488 c 0,3,4
 1056.7 355.345 1056.7 355.345 1070.71 414.067 c 1,5,6
 1076.31 462.714 1076.31 462.714 1056.4 489.82 c 0,7,8
 1032.03 523.638 1032.03 523.638 977.005 531.623 c 0,9,10
 863.619 547.971 863.619 547.971 743.078 473.025 c 1,11,12
 613.149 393.696 613.149 393.696 510.194 282.008 c 1,0,-1
310.96 432.996 m 1,13,14
 501.297 666.083 501.297 666.083 710.103 756.263 c 0,15,16
 971.34 869.087 971.34 869.087 1172.97 748.738 c 0,17,18
 1268.32 691.821 1268.32 691.821 1307.82 595.282 c 128,-1,19
 1347.32 498.742 1347.32 498.742 1330.35 373.217 c 0,20,21
 1327.62 352.62 1327.62 352.62 1322.29 331.981 c 1,22,23
 1381.36 271.38 1381.36 271.38 1467.51 271.38 c 2,24,-1
 1561.8 271.38 l 1,25,-1
 1561.8 0.5 l 1,26,-1
 1446.11 0.5 l 2,27,28
 1236.23 0.5 1236.23 0.5 1147.26 106.456 c 1,29,30
 979.301 0 979.301 0 637.7 0 c 2,31,-1
 -71.4004 0 l 1,32,-1
 -71.4004 270.98 l 1,33,-1
 89.2298 270.98 l 1,34,-1
 44.8975 1352.65 l 1,35,-1
 240.496 1438.58 l 2,36,37
 252.541 1443.72 252.541 1443.72 276.528 1454.4 c 128,-1,38
 300.517 1465.08 300.517 1465.08 312.085 1470.03 c 1,39,-1
 310.96 432.996 l 1,13,14
EndSplineSet
EndChar

StartChar: uniFECA
Encoding: 65226 65226 242
Width: 1283
VWidth: 2232
GlyphClass: 2
Flags: W
AnchorPoint: "Anchor-10" 581 1256.5 basechar 0
AnchorPoint: "Anchor-7" 368.69 -744.64 basechar 0
LayerCount: 2
Fore
SplineSet
568.662 755.999 m 0,0,1
 500.764 755.999 500.764 755.999 446.895 746.917 c 0,2,3
 374.509 734.873 374.509 734.873 341.991 719.416 c 1,4,5
 361.688 698.703 361.688 698.703 403.983 671.617 c 0,6,7
 486.556 618.737 486.556 618.737 569.017 578.796 c 1,8,9
 661.405 622.553 661.405 622.553 734.631 679.681 c 0,10,11
 763.37 702.102 763.37 702.102 772.474 716.383 c 1,12,13
 771.855 718.409 771.855 718.409 767.365 722.596 c 128,-1,14
 762.875 726.784 762.875 726.784 742.599 734.609 c 128,-1,15
 722.323 742.435 722.323 742.435 691.4 746.769 c 0,16,17
 625.543 755.999 625.543 755.999 568.662 755.999 c 0,0,1
769.641 435.44 m 1,18,19
 976.096 271.38 976.096 271.38 1158.5 271.38 c 2,20,-1
 1339.7 271.38 l 1,21,-1
 1339.7 0.5 l 1,22,-1
 1255.62 0.5 l 2,23,24
 855.863 0.5 855.863 0.5 553.752 290.395 c 1,25,26
 420.426 222.339 420.426 222.339 354.867 128.519 c 128,-1,27
 289.309 34.6988 289.309 34.6988 284.97 -90.2726 c 0,28,29
 282.706 -156.552 282.706 -156.552 307.317 -205.702 c 128,-1,30
 331.929 -254.852 331.929 -254.852 386.743 -293.273 c 0,31,32
 503.995 -375.988 503.995 -375.988 719.412 -355.737 c 1,33,34
 902.979 -339.841 902.979 -339.841 1119.85 -235.332 c 2,35,-1
 1178.32 -207.157 l 1,36,-1
 1232.58 -461.334 l 1,37,-1
 1198.85 -479.46 l 2,38,39
 1025.18 -572.801 1025.18 -572.801 856.075 -598.451 c 0,40,41
 698.538 -622.585 698.538 -622.585 575.429 -611.221 c 0,42,43
 273.39 -584.72 273.39 -584.72 136.292 -414.43 c 0,44,45
 22.5671 -273.526 22.5671 -273.526 40.5424 -43.1489 c 0,46,47
 59.6109 212.286 59.6109 212.286 350.967 436.443 c 1,48,49
 256.859 485.479 256.859 485.479 181.464 546.595 c 0,50,51
 72.3126 635.073 72.3126 635.073 81.0022 748.342 c 0,52,53
 89.7775 866.471 89.7775 866.471 249.493 939.81 c 0,54,55
 366.135 993.798 366.135 993.798 552.874 997.492 c 0,56,57
 643.228 999.234 643.228 999.234 724.788 991.004 c 0,58,59
 930.921 969.666 930.921 969.666 995.449 845.677 c 0,60,61
 1032.48 773.932 1032.48 773.932 1012.66 693.918 c 0,62,63
 995.458 624.802 995.458 624.802 934.204 561.749 c 128,-1,64
 872.951 498.695 872.951 498.695 769.641 435.44 c 1,18,19
EndSplineSet
EndChar

StartChar: uniFECB
Encoding: 65227 65227 243
Width: 1065
VWidth: 2232
GlyphClass: 2
Flags: W
AnchorPoint: "Anchor-10" 373.265 1267.23 basechar 0
AnchorPoint: "Anchor-7" 486.6 -245.5 basechar 0
LayerCount: 2
Fore
SplineSet
-71.3994 270.979 m 1,0,-1
 141.71 270.979 l 1,1,2
 20.5254 455.191 20.5254 455.191 112.432 669.902 c 0,3,4
 160.988 782.749 160.988 782.749 259.888 845.48 c 128,-1,5
 358.786 908.213 358.786 908.213 499.436 918.854 c 0,6,7
 726.225 936.081 726.225 936.081 889.97 781.677 c 2,8,-1
 916.868 756.312 l 1,9,-1
 821.446 553.518 l 1,10,-1
 772.657 584.274 l 2,11,12
 620.527 680.173 620.527 680.173 477.246 657.416 c 0,13,14
 345.217 636.354 345.217 636.354 325.364 512.858 c 0,15,16
 315.028 448.549 315.028 448.549 343.508 392.959 c 128,-1,17
 371.988 337.369 371.988 337.369 445.771 285.327 c 1,18,19
 452.046 282.892 452.046 282.892 472.726 282.535 c 128,-1,20
 493.405 282.18 493.405 282.18 534.51 286.289 c 128,-1,21
 575.613 290.398 575.613 290.398 623.015 299.587 c 2,22,-1
 977 368.2 l 1,23,-1
 977 114.77 l 1,24,-1
 938.716 104.912 l 2,25,26
 531.12 -0.0253906 531.12 -0.0253906 324.355 -0.015625 c 2,27,-1
 -71.3994 0.00195312 l 1,28,-1
 -71.3994 270.979 l 1,0,-1
EndSplineSet
EndChar

StartChar: uniFECC
Encoding: 65228 65228 244
Width: 1010
VWidth: 2232
GlyphClass: 2
Flags: W
AnchorPoint: "Anchor-10" 544.58 1111.5 basechar 0
AnchorPoint: "Anchor-7" 536.58 -229.5 basechar 0
LayerCount: 2
Fore
SplineSet
518.073 623.729 m 0,0,1
 450.162 623.729 450.162 623.729 396.289 614.645 c 0,2,3
 323.919 602.605 323.919 602.605 291.401 587.147 c 1,4,5
 311.098 566.434 311.098 566.434 353.393 539.348 c 0,6,7
 435.961 486.471 435.961 486.471 518.613 446.437 c 1,8,9
 588.503 479.527 588.503 479.527 675.114 540.391 c 0,10,11
 712.456 567.013 712.456 567.013 722.048 583.448 c 1,12,13
 721.644 585.391 721.644 585.391 717.895 589.476 c 128,-1,14
 714.146 593.56 714.146 593.56 693.762 601.748 c 128,-1,15
 673.378 609.936 673.378 609.936 640.811 614.5 c 0,16,17
 574.938 623.729 574.938 623.729 518.073 623.729 c 0,0,1
735.786 313.579 m 1,18,19
 839.234 270.324 839.234 270.324 960.586 270.98 c 2,20,-1
 1081.56 271.634 l 1,21,-1
 1081.56 0.5 l 1,22,-1
 937.3 0.5 l 2,23,24
 689.819 0.5 689.819 0.5 515.072 146.723 c 1,25,26
 339.693 -7.7313e-06 339.693 -7.7313e-06 89.8594 0 c 2,27,-1
 -71.4023 0 l 1,28,-1
 -71.4023 270.98 l 1,29,-1
 66.3184 270.98 l 2,30,31
 204.042 270.98 204.042 270.98 293.226 307.926 c 1,32,33
 203.586 355.38 203.586 355.38 130.874 414.324 c 0,34,35
 21.7234 502.807 21.7234 502.807 30.4123 616.071 c 0,36,37
 39.1881 734.201 39.1881 734.201 198.908 807.543 c 0,38,39
 315.562 861.529 315.562 861.529 502.284 865.222 c 0,40,41
 592.638 866.965 592.638 866.965 674.195 858.735 c 0,42,43
 880.326 837.397 880.326 837.397 944.857 713.409 c 0,44,45
 981.888 641.668 981.888 641.668 962.083 561.684 c 0,46,47
 931.118 437.297 931.118 437.297 735.786 313.579 c 1,18,19
EndSplineSet
EndChar

StartChar: uniFEDA
Encoding: 65242 65242 258
Width: 1840
VWidth: 2232
GlyphClass: 2
Flags: W
AnchorPoint: "Anchor-10" 539 1418.5 basechar 0
AnchorPoint: "Anchor-7" 406 -226.5 basechar 0
LayerCount: 2
Fore
SplineSet
751.117 0 m 0,0,1
 513.317 0.457031 513.317 0.457031 410.082 33.8535 c 0,2,3
 246.687 86.7119 246.687 86.7119 154.031 204.525 c 128,-1,4
 61.376 322.339 61.376 322.339 45.5908 496.555 c 0,5,6
 34.5696 614.422 34.5696 614.422 78.751 767.869 c 2,7,-1
 92.5498 815.794 l 1,8,-1
 315.14 757.062 l 1,9,-1
 306.643 710.618 l 2,10,11
 281.791 574.779 281.791 574.779 284.478 528.762 c 0,12,13
 288.668 425.686 288.668 425.686 355.711 366.023 c 128,-1,14
 422.754 306.361 422.754 306.361 569.196 284.836 c 0,15,16
 662.684 271.094 662.684 271.094 812.524 269.478 c 0,17,18
 1012.83 267.417 1012.83 267.417 1126.4 278.238 c 0,19,20
 1450.83 307.863 1450.83 307.863 1462.7 446.446 c 2,21,-1
 1466.33 488.844 l 1,22,-1
 1424.98 1393.03 l 1,23,-1
 1685.3 1520.81 l 5,24,-1
 1685.3 457.814 l 2,25,26
 1685.3 437.29 1685.3 437.29 1682.52 399.731 c 0,27,28
 1679.33 356.633 1679.33 356.633 1666.31 311.412 c 1,29,30
 1709.36 271.38 1709.36 271.38 1795.97 271.38 c 2,31,-1
 1911.22 271.38 l 1,32,-1
 1911.22 0.5 l 1,33,-1
 1737.12 0.5 l 2,34,35
 1626.9 0.5 1626.9 0.5 1496.26 99.7061 c 1,36,37
 1404.69 52.0029 1404.69 52.0029 1270.74 29.1875 c 0,38,39
 1085.51 -1.46777 1085.51 -1.46777 751.117 0 c 0,0,1
1096.77 1286.4 m 1,40,-1
 1096.77 1132.74 l 1,41,-1
 1049.51 1129.26 l 2,42,43
 987.002 1124.66 987.002 1124.66 955.382 1113 c 0,44,45
 935.38 1105.5 935.38 1105.5 919.909 1096.74 c 128,-1,46
 904.438 1087.98 904.438 1087.98 898.602 1083.03 c 128,-1,47
 892.764 1078.07 892.764 1078.07 891.334 1075.59 c 1,48,49
 891.605 1058.7 891.605 1058.7 898.26 1049.07 c 1,50,51
 914.426 1039.41 914.426 1039.41 963.711 1032.16 c 0,52,53
 1028.56 1022.62 1028.56 1022.62 1065.01 989.321 c 0,54,55
 1106.05 951.844 1106.05 951.844 1106.05 889.298 c 0,56,57
 1106.05 828.158 1106.05 828.158 1076.02 778.82 c 128,-1,58
 1045.98 729.482 1045.98 729.482 990.944 698.358 c 0,59,60
 910.612 652.928 910.612 652.928 802.926 651.929 c 0,61,62
 738.524 651.929 738.524 651.929 681.746 661.412 c 2,63,-1
 639.148 668.526 l 1,64,-1
 639.148 828.331 l 1,65,-1
 696.812 820.729 l 2,66,67
 754.256 813.158 754.256 813.158 793.059 813.158 c 0,68,69
 858.19 813.158 858.19 813.158 897.611 828.678 c 0,70,71
 949.45 848.587 949.45 848.587 949.45 867.898 c 1,72,73
 950.605 884.885 950.605 884.885 894.576 894.014 c 0,74,75
 821.173 905.199 821.173 905.199 778.499 948.845 c 0,76,77
 732.684 995.704 732.684 995.704 734.387 1074.08 c 0,78,79
 735.652 1125.26 735.652 1125.26 762.045 1165.93 c 128,-1,80
 788.438 1206.59 788.438 1206.59 834.85 1230.11 c 0,81,82
 924.539 1275.48 924.539 1275.48 1042.54 1282.96 c 2,83,-1
 1096.77 1286.4 l 1,40,-1
EndSplineSet
EndChar

StartChar: uniFEDB
Encoding: 65243 65243 259
Width: 831
VWidth: 2232
GlyphClass: 2
Flags: W
AnchorPoint: "Anchor-10" 201.5 1475 basechar 0
AnchorPoint: "Anchor-7" 314 -248 basechar 0
LayerCount: 2
Fore
SplineSet
-71.4004 270.977 m 1,0,-1
 252.369 271.004 l 2,1,2
 490.972 271.004 490.972 271.004 507.492 376.702 c 0,3,4
 516.354 433.403 516.354 433.403 497.828 477.114 c 128,-1,5
 479.303 520.826 479.303 520.826 429.191 558.988 c 2,6,-1
 68.5215 833.649 l 2,7,8
 -25.501 905.248 -25.501 905.248 -33.3066 996.106 c 0,9,10
 -36.0547 1028.16 -36.0547 1028.16 -31.6182 1057.43 c 0,11,12
 -14.623 1169.52 -14.623 1169.52 100.989 1230.09 c 6,13,-1
 817.249 1605.39 l 1,14,-1
 817.249 1324.55 l 1,15,-1
 248.12 1026.74 l 1,16,17
 463.999 860.486 463.999 860.486 611.626 739.439 c 0,18,19
 700.677 666.428 700.677 666.428 739.009 565.151 c 128,-1,20
 777.342 463.875 777.342 463.875 763.581 341.311 c 0,21,22
 744.553 171.829 744.553 171.829 602.985 78.4307 c 0,23,24
 484.106 -0 484.106 -0 293.699 0 c 2,25,-1
 -71.4004 0 l 1,26,-1
 -71.4004 270.977 l 1,0,-1
EndSplineSet
EndChar

StartChar: uniFEDC
Encoding: 65244 65244 260
Width: 1023
VWidth: 2232
GlyphClass: 2
Flags: W
AnchorPoint: "Anchor-10" 210.5 1430 basechar 0
AnchorPoint: "Anchor-7" 337 -257 basechar 0
LayerCount: 2
Fore
SplineSet
634.22 203.203 m 1,0,1
 539.584 0 539.584 0 157.875 0 c 2,2,-1
 -71.4004 0 l 1,3,-1
 -71.4004 270.951 l 1,4,-1
 237.846 271.13 l 2,5,6
 333.988 271.186 333.988 271.186 378.109 296.159 c 128,-1,7
 422.23 321.134 422.23 321.134 431.921 368.248 c 0,8,9
 442.873 421.504 442.873 421.504 382.98 487.998 c 2,10,-1
 122.023 777.717 l 2,11,12
 19.9541 891.039 19.9541 891.039 16.417 977.933 c 0,13,14
 15.3896 1003.25 15.3896 1003.25 19.3232 1026.95 c 0,15,16
 37.6436 1137.34 37.6436 1137.34 157.149 1201.85 c 2,17,-1
 907.25 1606.74 l 1,18,-1
 907.25 1324.08 l 1,19,-1
 278.142 983.051 l 1,20,-1
 850.433 347.775 l 2,21,22
 919.549 271.052 919.549 271.052 1009.58 271.291 c 2,23,-1
 1094.15 271.516 l 1,24,-1
 1094.15 0.5 l 1,25,-1
 979.41 0.5 l 2,26,27
 812.257 0.5 812.257 0.5 634.22 203.203 c 1,0,1
EndSplineSet
EndChar

StartChar: uniFEDE
Encoding: 65246 65246 262
Width: 1448
VWidth: 2232
GlyphClass: 2
Flags: W
AnchorPoint: "Anchor-10" 452.5 931.5 basechar 0
AnchorPoint: "Anchor-7" 342.974 -718.619 basechar 0
LayerCount: 2
Fore
SplineSet
1205.98 43.9082 m 1,0,1
 1185.63 -124.087 1185.63 -124.087 1151.03 -199.222 c 0,2,3
 1022.44 -483.515 1022.44 -483.515 623.097 -499.956 c 0,4,5
 316.042 -512.598 316.042 -512.598 162.66 -350.13 c 1,6,7
 22.4258 -203.524 22.4258 -203.524 26.3779 42.8428 c 0,8,9
 29.8476 275.839 29.8476 275.839 119.197 453.307 c 2,10,-1
 137.484 489.629 l 1,11,-1
 392.772 426.636 l 1,12,-1
 364.406 369.646 l 2,13,14
 275.767 191.562 275.767 191.562 280.032 46.6152 c 0,15,16
 284.042 -104.343 284.042 -104.343 362.136 -172.55 c 0,17,18
 459.092 -256.837 459.092 -256.837 638.747 -247.02 c 0,19,20
 781.656 -239.831 781.656 -239.831 877.968 -169.78 c 0,21,22
 989.166 -88.6091 989.166 -88.6091 991.542 158.31 c 2,23,-1
 993.122 322.54 l 1,24,-1
 957.296 1353.32 l 5,25,-1
 1218.28 1470.69 l 5,26,-1
 1218.28 451.31 l 2,27,28
 1218.28 351.554 1218.28 351.554 1261.04 308.797 c 0,29,30
 1298.46 271.38 1298.46 271.38 1380.72 271.38 c 2,31,-1
 1492.97 271.38 l 1,32,-1
 1492.97 0.5 l 1,33,-1
 1394.87 0.5 l 2,34,35
 1296.46 0.5 1296.46 0.5 1205.98 43.9082 c 1,0,1
EndSplineSet
EndChar

StartChar: uniFEDF
Encoding: 65247 65247 263
Width: 582
VWidth: 2232
GlyphClass: 2
Flags: W
AnchorPoint: "Anchor-10" 303.73 1547 basechar 0
AnchorPoint: "Anchor-7" 263.73 -278.5 basechar 0
LayerCount: 2
Fore
SplineSet
444.17 487.69 m 2,0,1
 444.17 229.551 444.17 229.551 319.738 101.627 c 0,2,3
 220.885 0 220.885 0 61.7002 0 c 2,4,-1
 -71.4004 0 l 1,5,-1
 -71.4004 270.98 l 1,6,-1
 12.8506 270.98 l 2,7,8
 127.494 270.98 127.494 270.98 176.137 331.759 c 0,9,10
 227.087 395.43 227.087 395.43 222.339 498.309 c 2,11,-1
 182.823 1354.56 l 1,12,-1
 444.17 1470.43 l 5,13,-1
 444.17 487.69 l 2,0,1
EndSplineSet
EndChar

StartChar: uniFEE0
Encoding: 65248 65248 264
Width: 618
VWidth: 2232
GlyphClass: 2
Flags: W
AnchorPoint: "Anchor-10" 307.73 1517 basechar 0
AnchorPoint: "Anchor-7" 240.73 -238.5 basechar 0
LayerCount: 2
Fore
SplineSet
287.285 86.7402 m 1,0,1
 195.391 0 195.391 0 80.7002 0 c 2,2,-1
 -71.4014 0 l 1,3,-1
 -71.4014 270.98 l 1,4,-1
 21.8486 270.98 l 2,5,6
 108.234 270.98 108.234 270.98 152.431 310.598 c 0,7,8
 200.554 353.796 200.554 353.796 196.329 449.321 c 2,9,-1
 155.983 1361.47 l 5,10,-1
 416.17 1474.56 l 1,11,-1
 416.17 451.31 l 2,12,13
 416.17 353.545 416.17 353.545 460.933 308.796 c 0,14,15
 498.75 270.98 498.75 270.98 594.61 270.98 c 2,16,-1
 686.86 270.98 l 1,17,-1
 686.86 0.000976562 l 1,18,-1
 535.759 0.000976562 l 2,19,20
 385.073 0.000976562 385.073 0.000976562 287.285 86.7402 c 1,0,1
EndSplineSet
EndChar

StartChar: uniFEE2
Encoding: 65250 65250 266
Width: 1128
VWidth: 2334
GlyphClass: 2
Flags: W
AnchorPoint: "Anchor-10" 555.5 1144 basechar 0
AnchorPoint: "Anchor-7" 202.188 -713.422 basechar 0
LayerCount: 2
Fore
SplineSet
512.943 414.743 m 1,0,1
 524.4 259.259 524.4 259.259 611.6 195.985 c 1,2,3
 662.517 160.283 662.517 160.283 721.785 178.566 c 0,4,5
 734.672 182.541 734.672 182.541 743.889 200.063 c 128,-1,6
 753.105 217.586 753.105 217.586 758.295 263.95 c 128,-1,7
 763.483 310.314 763.483 310.314 749.415 388.527 c 0,8,9
 742.812 429.966 742.812 429.966 726.781 444.871 c 128,-1,10
 710.75 459.776 710.75 459.776 675.208 460.5 c 0,11,12
 573.906 462.525 573.906 462.525 512.943 414.743 c 1,0,1
999.515 312.505 m 1,13,14
 1033.88 270.912 1033.88 270.912 1108.68 270.713 c 2,15,-1
 1198.99 270.472 l 1,16,-1
 1198.99 0.709961 l 1,17,-1
 1094.5 0.709961 l 2,18,19
 991.202 0.709961 991.202 0.709961 925.506 39.6641 c 1,20,21
 876.762 -52.1299 876.762 -52.1299 767.313 -69.3408 c 0,22,23
 642.208 -88.6982 642.208 -88.6982 539.598 -47.8682 c 0,24,25
 438.664 -7.44727 438.664 -7.44727 376.72 77.415 c 128,-1,26
 314.776 162.277 314.776 162.277 293.676 284.287 c 1,27,28
 287.819 273.146 287.819 273.146 282.585 260.612 c 0,29,30
 259.91 205.187 259.91 205.187 268.348 73.3516 c 2,31,-1
 307.507 -538.621 l 1,32,-1
 47.9141 -668.561 l 1,33,-1
 47.9141 129.511 l 2,34,35
 47.9141 419.598 47.9141 419.598 244.065 561.338 c 0,36,37
 401.331 674.979 401.331 674.979 590.226 697.669 c 0,38,39
 744.48 717.083 744.48 717.083 835.823 663.604 c 1,40,41
 940.028 604.143 940.028 604.143 974.121 469.903 c 0,42,43
 988.797 412.1 988.797 412.1 999.515 312.505 c 1,13,14
EndSplineSet
EndChar

StartChar: uniFEE3
Encoding: 65251 65251 267
Width: 979
VWidth: 2334
GlyphClass: 2
Flags: W
AnchorPoint: "Anchor-10" 376.69 1176.5 basechar 0
AnchorPoint: "Anchor-7" 382.69 -266.5 basechar 0
LayerCount: 2
Fore
SplineSet
864.522 137.013 m 4,0,1
 816.39 -47.2441 816.39 -47.2441 543.94 -23.8506 c 4,2,3
 381.432 -10.5898 381.432 -10.5898 253.506 77.0605 c 5,4,5
 178.938 0 178.938 0 35.9805 0 c 6,6,-1
 -71.4014 0 l 5,7,-1
 -71.4014 270.979 l 5,8,-1
 50.96 270.979 l 6,9,10
 75.6826 270.979 75.6826 270.979 89.6357 275.204 c 132,-1,11
 103.59 279.43 103.59 279.43 106.554 283.443 c 132,-1,12
 109.517 287.456 109.517 287.456 111.246 294.312 c 4,13,14
 140.031 408.424 140.031 408.424 162.596 477.592 c 4,15,16
 202.58 598.349 202.58 598.349 273.751 673.095 c 132,-1,17
 344.923 747.841 344.923 747.841 445.769 768.997 c 4,18,19
 573.161 795.55 573.161 795.55 669.778 730.586 c 132,-1,20
 766.396 665.623 766.396 665.623 822.825 523.282 c 4,21,22
 909.152 305.982 909.152 305.982 864.522 137.013 c 4,0,1
465.012 246.177 m 4,23,24
 533.047 220.356 533.047 220.356 576.18 227.444 c 4,25,26
 641.736 237.328 641.736 237.328 628.979 321.692 c 4,27,28
 623.294 361.986 623.294 361.986 588.823 433.326 c 4,29,30
 555.248 504.222 555.248 504.222 511.021 509.264 c 4,31,32
 468.636 514.336 468.636 514.336 421.81 450.172 c 4,33,34
 395.264 414.16 395.264 414.16 363.904 298.862 c 5,35,36
 404.625 270.211 404.625 270.211 465.012 246.177 c 4,23,24
EndSplineSet
EndChar

StartChar: uniFEE4
Encoding: 65252 65252 268
Width: 1026
VWidth: 2232
GlyphClass: 2
Flags: W
AnchorPoint: "Anchor-10" 500.79 1047.5 basechar 0
AnchorPoint: "Anchor-7" 465.79 -239.5 basechar 0
LayerCount: 2
Fore
SplineSet
493.228 220.65 m 0,0,1
 572.752 196.255 572.752 196.255 605.405 215.565 c 0,2,3
 668.367 254.667 668.367 254.667 586.706 411.258 c 0,4,5
 541.153 497.719 541.153 497.719 487.901 493.221 c 0,6,7
 398.072 485.634 398.072 485.634 368.902 288.397 c 1,8,9
 433.793 239.573 433.793 239.573 493.228 220.65 c 0,0,1
583.958 -49.7616 m 0,10,11
 380.025 -49.5336 380.025 -49.5336 248.018 68.9984 c 1,12,13
 148.978 3.8823e-06 148.978 3.8823e-06 17.5996 0 c 2,14,-1
 -72.4004 0 l 1,15,-1
 -72.4004 270.979 l 1,16,-1
 24.0195 270.979 l 2,17,18
 65.7567 270.979 65.7567 270.979 93.4692 276.628 c 128,-1,19
 121.182 282.278 121.182 282.278 128.656 287.784 c 1,20,21
 131.07 305.892 131.07 305.892 144.934 384.729 c 0,22,23
 174.306 547.801 174.306 547.801 241.84 627.702 c 0,24,25
 353.134 759.38 353.134 759.38 510.596 745.098 c 0,26,27
 734.14 724.822 734.14 724.822 851.595 419.286 c 0,28,29
 882.399 339.219 882.399 339.219 920.531 305.154 c 128,-1,30
 958.662 271.09 958.662 271.09 1006.28 271.09 c 2,31,-1
 1097.18 271.09 l 1,32,-1
 1097.18 0.209961 l 1,33,-1
 947.43 0.209961 l 2,34,35
 864.891 0.209961 864.891 0.209961 796.821 63.8771 c 1,36,37
 766.342 7.43601 766.342 7.43601 710.974 -21.203 c 128,-1,38
 655.607 -49.8419 655.607 -49.8419 583.958 -49.7616 c 0,10,11
EndSplineSet
EndChar

StartChar: uniFEEA
Encoding: 65258 65258 274
Width: 1132
VWidth: 2232
GlyphClass: 2
Flags: W
AnchorPoint: "Anchor-10" 449.95 1384.81 basechar 0
AnchorPoint: "Anchor-7" 442.88 -155 basechar 0
LayerCount: 2
Fore
SplineSet
668.892 476.341 m 5,0,1
 659.005 574.86 659.005 574.86 647.794 653.722 c 5,2,3
 546.863 643.343 546.863 643.343 473.782 625.986 c 132,-1,4
 400.7 608.631 400.7 608.631 363.854 588.434 c 132,-1,5
 327.009 568.236 327.009 568.236 311.123 549.346 c 132,-1,6
 295.238 530.454 295.238 530.454 296.448 511.806 c 4,7,8
 297.824 491.418 297.824 491.418 304.994 483.335 c 132,-1,9
 312.163 475.252 312.163 475.252 334.083 470.2 c 4,10,11
 459.458 443.734 459.458 443.734 668.892 476.341 c 5,0,1
701.647 235.03 m 5,12,13
 538.41 214.26 538.41 214.26 412.16 219.159 c 132,-1,14
 285.909 224.06 285.909 224.06 196.254 266.088 c 132,-1,15
 106.599 308.117 106.599 308.117 64.6074 387.724 c 4,16,17
 43.8428 427.09 43.8428 427.09 40.6797 482.306 c 4,18,19
 35.9629 572.07 35.9629 572.07 73.7725 642.873 c 132,-1,20
 111.581 713.677 111.581 713.677 188.057 762.812 c 132,-1,21
 264.532 811.946 264.532 811.946 371.293 842.963 c 132,-1,22
 478.053 873.979 478.053 873.979 616.997 888.397 c 5,23,24
 613.625 917.561 613.625 917.561 607.605 959.846 c 6,25,-1
 601.096 1005.58 l 5,26,-1
 845.679 1065.47 l 5,27,-1
 851.779 1007.36 l 6,28,29
 864.676 884.549 864.676 884.549 910.958 483.552 c 4,30,31
 918.202 420.185 918.202 420.185 932.041 373.957 c 4,32,33
 962.83 271.101 962.83 271.101 1121.33 271 c 6,34,-1
 1198.26 270.951 l 5,35,-1
 1198.26 0 l 5,36,-1
 1100.34 0 l 6,37,38
 942.831 0 942.831 0 839.539 58.832 c 132,-1,39
 736.247 117.665 736.247 117.665 701.647 235.03 c 5,12,13
EndSplineSet
EndChar

StartChar: uniFEEB
Encoding: 65259 65259 275
Width: 1191
VWidth: 2232
GlyphClass: 2
Flags: W
AnchorPoint: "Anchor-10" 480.801 1292.23 basechar 0
AnchorPoint: "Anchor-7" 372.542 -195.946 basechar 0
LayerCount: 2
Fore
SplineSet
745.953 491.466 m 1,0,1
 741.846 431.348 741.846 431.348 716.409 379.722 c 0,2,3
 680.01 304.779 680.01 304.779 595.516 237.754 c 1,4,5
 645.955 221.851 645.955 221.851 687.796 214.91 c 0,6,7
 850.91 187.85 850.91 187.85 871.249 311.422 c 0,8,9
 882.286 378.815 882.286 378.815 745.953 491.466 c 1,0,1
312.787 786.864 m 1,10,-1
 401.273 990.632 l 1,11,-1
 773.207 754.435 l 1,12,13
 924.561 653.341 924.561 653.341 1006.75 557.213 c 128,-1,14
 1088.94 461.085 1088.94 461.085 1099.45 362.592 c 0,15,16
 1116.82 207.211 1116.82 207.211 1042.77 113.234 c 128,-1,17
 968.73 19.2568 968.73 19.2568 815.158 2.93652 c 0,18,19
 634.246 -16.2871 634.246 -16.2871 397.752 88.0762 c 1,20,21
 185.527 0 185.527 0 -56.3701 0 c 2,22,-1
 -70.4004 0 l 5,23,-1
 -70.4004 270.98 l 5,24,-1
 44.0898 270.98 l 2,25,26
 44.1028 270.98 44.1028 270.98 102.604 275.39 c 1,27,28
 74.7051 345.141 74.7051 345.141 78.6309 431.272 c 0,29,30
 82.9473 539.126 82.9473 539.126 143.846 635.487 c 1,31,32
 210.82 739.546 210.82 739.546 312.787 786.864 c 1,10,-1
562.645 463.991 m 1,33,34
 599.983 559.315 599.983 559.315 557.924 595.188 c 0,35,36
 462.632 676.188 462.632 676.188 360.395 562.711 c 0,37,38
 310.137 506.928 310.137 506.928 302.131 456.101 c 0,39,40
 292.053 394.201 292.053 394.201 309.998 359.778 c 128,-1,41
 327.944 325.357 327.944 325.357 378.535 304.452 c 1,42,43
 523.858 379.364 523.858 379.364 562.645 463.991 c 1,33,34
EndSplineSet
EndChar

StartChar: uniFEEC
Encoding: 65260 65260 276
Width: 985
VWidth: 2232
GlyphClass: 2
Flags: W
AnchorPoint: "Anchor-7" 268.88 -698.244 basechar 0
AnchorPoint: "Anchor-10" 381.76 1170.74 basechar 0
LayerCount: 2
Fore
SplineSet
348.161 273.508 m 1,0,1
 393.866 278.297 393.866 278.297 418.104 313.42 c 0,2,3
 477.688 403.952 477.688 403.952 477.688 525.296 c 0,4,5
 477.688 585.59 477.688 585.59 469 604.072 c 1,6,7
 461.867 614.268 461.867 614.268 456.653 617.134 c 128,-1,8
 451.439 620 451.439 620 442.352 620 c 0,9,10
 435.029 620 435.029 620 427.095 615.376 c 128,-1,11
 419.161 610.751 419.161 610.751 408.726 598.919 c 128,-1,12
 398.291 587.087 398.291 587.087 387.332 561.053 c 128,-1,13
 376.374 535.019 376.374 535.019 367.177 497.704 c 0,14,15
 338.221 367.491 338.221 367.491 348.161 273.508 c 1,0,1
423 -298 m 1,16,17
 530.966 276.07 530.966 276.07 947.88 271.982 c 26,18,-1
 1056.64 270.916 l 1,19,-1
 1056.64 0.583008 l 1,20,-1
 854.472 0 l 2,21,22
 759.97 -0.272523 759.97 -0.272523 675.343 -123.019 c 128,-1,23
 590.681 -245.815 590.681 -245.815 529.144 -523.286 c 2,24,-1
 516.715 -579.327 l 1,25,-1
 462.526 -560.389 l 2,26,27
 164.516 -456.236 164.516 -456.236 123.487 0 c 1,28,-1
 -71.9355 0 l 1,29,-1
 -71.9355 270.966 l 1,30,-1
 116.547 271.023 l 1,31,32
 111.984 536.206 111.984 536.206 167.156 661.65 c 0,33,34
 252.989 859.796 252.989 859.796 443.723 858.504 c 0,35,36
 726.082 856.426 726.082 856.426 726.082 551.893 c 0,37,38
 726.082 301.381 726.082 301.381 613.72 172.466 c 0,39,40
 487.102 27.1953 487.102 27.1953 367.54 3.55566 c 1,41,42
 341.177 -169 341.177 -169 423 -298 c 1,16,17
EndSplineSet
EndChar

StartChar: uniFEEE
Encoding: 65262 65262 278
Width: 961
VWidth: 2283
GlyphClass: 2
Flags: W
AnchorPoint: "Anchor-10" 376 1161 basechar 0
AnchorPoint: "Anchor-7" 475.515 -683.238 basechar 0
LayerCount: 2
Fore
SplineSet
487.212 514.654 m 0,0,1
 438.951 513.569 438.951 513.569 408.502 486.999 c 128,-1,2
 378.053 460.428 378.053 460.428 358.716 397.084 c 0,3,4
 350.216 369.766 350.216 369.766 348.531 348.021 c 0,5,6
 345.243 305.599 345.243 305.599 368.147 285.119 c 0,7,8
 392.286 263.535 392.286 263.535 462.801 259.105 c 0,9,10
 527.885 254.676 527.885 254.676 597.836 259.886 c 1,11,12
 595.589 336.405 595.589 336.405 583.58 394.863 c 0,13,14
 569.502 465.119 569.502 465.119 546.083 490.441 c 128,-1,15
 522.663 515.762 522.663 515.762 487.212 514.654 c 0,0,1
671.692 -304.225 m 0,16,17
 498.433 -505.988 498.433 -505.988 145.291 -506.139 c 2,18,-1
 114.199 -506.152 l 1,19,-1
 -0.922001 -282.993 l 1,20,-1
 77.1665 -278.233 l 2,21,22
 288.588 -265.344 288.588 -265.344 410.169 -194.908 c 128,-1,23
 531.751 -124.471 531.751 -124.471 575.087 1.36386 c 1,24,-1
 471.893 1.2393 l 2,25,26
 271.018 0.984082 271.018 0.984082 181.365 104.404 c 0,27,28
 89.1422 211.99 89.1422 211.99 106.961 358.271 c 1,29,30
 128.253 546.668 128.253 546.668 252.872 666.155 c 0,31,32
 367.395 777.121 367.395 777.121 504.301 768.724 c 0,33,34
 593.068 763.193 593.068 763.193 660.388 716.878 c 128,-1,35
 727.708 670.564 727.708 670.564 766.927 588.701 c 0,36,37
 824.78 469.293 824.78 469.293 837.835 311.632 c 0,38,39
 839.82 287.881 839.82 287.881 841.27 270.693 c 1,40,-1
 1032.66 271.594 l 1,41,-1
 1032.66 0.5 l 1,42,-1
 823.366 0.5 l 1,43,44
 787.276 -169.627 787.276 -169.627 671.692 -304.225 c 0,16,17
EndSplineSet
EndChar

StartChar: uniFEF0
Encoding: 65264 65264 280
Width: 1523
VWidth: 2232
GlyphClass: 2
Flags: W
AnchorPoint: "Anchor-10" 630.857 719.69 basechar 0
AnchorPoint: "Anchor-7" 304.067 -830.505 basechar 0
LayerCount: 2
Fore
SplineSet
1040.82 243.669 m 0,0,1
 1091.65 271.541 1091.65 271.541 1191.78 271.539 c 2,2,-1
 1506.97 271.534 l 1,3,-1
 1594.89 271.057 l 5,4,-1
 1594.89 0.489258 l 5,5,-1
 1346.86 0.544922 l 1,6,-1
 1286.45 0.341797 l 1,7,8
 1352.08 -15.2305 1352.08 -15.2305 1389.18 -60.9111 c 128,-1,9
 1426.28 -106.592 1426.28 -106.592 1426.28 -172.426 c 0,10,11
 1426.28 -257.993 1426.28 -257.993 1375.52 -333.008 c 0,12,13
 1283.33 -469.244 1283.33 -469.244 1088.46 -563.352 c 0,14,15
 864.391 -671.558 864.391 -671.558 586.12 -656.727 c 0,16,17
 380.58 -645.771 380.58 -645.771 247.273 -562.158 c 128,-1,18
 113.967 -478.546 113.967 -478.546 64.9238 -323.012 c 0,19,20
 17.0225 -172.162 17.0225 -172.162 67.6309 2.41211 c 0,21,22
 129.655 218.001 129.655 218.001 263.589 382.76 c 2,23,-1
 292.247 418.014 l 1,24,-1
 490.746 291.553 l 1,25,-1
 460.85 248.033 l 2,26,27
 371.879 118.521 371.879 118.521 325.665 -31.0049 c 0,28,29
 281.824 -172.852 281.824 -172.852 332.985 -268.972 c 0,30,31
 391.243 -377.564 391.243 -377.564 596.854 -393.146 c 0,32,33
 820.764 -410.113 820.764 -410.113 995.235 -335.53 c 0,34,35
 1087.45 -296.112 1087.45 -296.112 1156.26 -236.832 c 0,36,37
 1175.85 -219.96 1175.85 -219.96 1147.59 -214.571 c 0,38,39
 1094.5 -204.444 1094.5 -204.444 1055.14 -191.545 c 0,40,41
 985.474 -168.717 985.474 -168.717 945.091 -119.029 c 128,-1,42
 904.708 -69.3428 904.708 -69.3428 903.039 -0.504883 c 0,43,44
 900.532 78.8906 900.532 78.8906 936.074 141.98 c 128,-1,45
 971.616 205.07 971.616 205.07 1040.82 243.669 c 0,0,1
EndSplineSet
EndChar

StartChar: uniFEFB
Encoding: 65275 65275 291
Width: 1131
VWidth: 2232
GlyphClass: 3
Flags: W
AnchorPoint: "Anchor-9" 900.69 1581 baselig 0
AnchorPoint: "Anchor-6" 908.69 -226.5 baselig 0
AnchorPoint: "Anchor-6" 204.5 -275.908 baselig 1
AnchorPoint: "Anchor-9" 196.565 1475.84 baselig 1
LayerCount: 2
Fore
SplineSet
725.848 458.878 m 1,0,1
 557.997 290.038 557.997 290.038 350.162 191.545 c 1,2,3
 421.312 192.419 421.312 192.419 506.645 197.467 c 0,4,5
 584.981 202.077 584.981 202.077 649.012 213.935 c 128,-1,6
 713.041 225.791 713.041 225.791 740.312 235.457 c 128,-1,7
 767.583 245.126 767.583 245.126 772.97 250.854 c 0,8,9
 816.157 311.683 816.157 311.683 725.848 458.878 c 1,0,1
1028.08 1001.72 m 2,10,11
 1027.58 980.216 1027.58 980.216 1002.66 828.721 c 0,12,13
 982.433 707.704 982.433 707.704 885.735 577.616 c 1,14,15
 999.678 407.645 999.678 407.645 983.074 249.804 c 0,16,17
 972.286 144.893 972.286 144.893 907.991 81.5244 c 0,18,19
 855.419 30.5908 855.419 30.5908 756.182 10.7715 c 128,-1,20
 656.944 -9.04883 656.944 -9.04883 499.988 -7.93262 c 0,21,22
 293.817 -6.48242 293.817 -6.48242 205.05 17.916 c 2,23,-1
 200.822 19.0781 l 1,24,-1
 196.855 20.9443 l 2,25,26
 100.944 66.0635 100.944 66.0635 60.9951 164.12 c 1,27,28
 31.5264 239.134 31.5264 239.134 57.1445 303.862 c 2,29,-1
 66.3184 327.041 l 1,30,-1
 90.2432 334.041 l 2,31,32
 350.471 410.179 350.471 410.179 563.737 592.66 c 1,33,-1
 59.5732 1106.13 l 1,34,-1
 206.095 1338.55 l 1,35,-1
 718.314 762.222 l 1,36,37
 761.501 838.266 761.501 838.266 773.462 935.717 c 0,38,39
 786.225 1043.78 786.225 1043.78 776.818 1322.28 c 2,40,-1
 775.642 1357.12 l 1,41,-1
 1039.1 1470.2 l 1,42,-1
 1028.08 1001.72 l 2,10,11
EndSplineSet
LCarets2: 1 0 
Ligature2: "'rlig' Required Ligatures in Arabic lookup 16 subtable" uniFEDF uniFE8E
EndChar

StartChar: uniFEFC
Encoding: 65276 65276 292
Width: 1236
VWidth: 2232
GlyphClass: 3
Flags: W
AnchorPoint: "Anchor-9" 886.69 1539 baselig 0
AnchorPoint: "Anchor-6" 847.69 -225.5 baselig 0
AnchorPoint: "Anchor-6" 212 -279 baselig 1
AnchorPoint: "Anchor-9" 120.5 1410.5 baselig 1
LayerCount: 2
Fore
SplineSet
793.361 175.934 m 0,0,1
 634.484 0.5 634.484 0.5 333.99 0.5 c 0,2,3
 166.413 0.499998 166.413 0.499998 114.887 9.94336 c 2,4,-1
 73.0801 17.6055 l 1,5,-1
 73.0801 290.481 l 1,6,-1
 133.521 279.095 l 2,7,8
 287.41 250.105 287.41 250.105 431.987 269.303 c 1,9,-1
 39.4043 1170.12 l 1,10,-1
 261.053 1342.92 l 1,11,-1
 629.081 358.319 l 1,12,13
 695.894 426.488 695.894 426.488 736.351 553.044 c 1,14,15
 781.341 729.347 781.341 729.347 772.498 877.76 c 2,16,-1
 744.106 1354.25 l 1,17,-1
 1005.13 1470.71 l 1,18,-1
 1005.13 683.5 l 2,19,20
 1005.13 519.706 1005.13 519.706 1040 417.403 c 0,21,22
 1089.77 271.38 1089.77 271.38 1193.59 271.38 c 2,23,-1
 1307.94 271.38 l 1,24,-1
 1307.94 0.5 l 1,25,-1
 1194.91 0.5 l 2,26,27
 1073.25 0.5 1073.25 0.5 984.369 65.4092 c 128,-1,28
 895.492 130.318 895.492 130.318 847.029 251.403 c 1,29,30
 821.887 208.041 821.887 208.041 793.361 175.934 c 0,0,1
EndSplineSet
LCarets2: 1 0 
Ligature2: "'rlig' Required Ligatures in Arabic lookup 16 subtable" uniFEE0 uniFE8E
EndChar

StartChar: arabic_dot
Encoding: 65536 -1 293
Width: 150
GlyphClass: 2
Flags: W
LayerCount: 2
Fore
SplineSet
101.75 183.59 m 2,0,-1
 180.25 105.09 l 2,1,2
 202.84 82.5 202.84 82.5 180.75 60.41 c 2,3,-1
 98.75 -21.59 l 2,4,5
 74.5 -45.84 74.5 -45.84 50.75 -22.09 c 2,6,-1
 -31.25 59.91 l 2,7,8
 -53.84 82.5 -53.84 82.5 -28.25 108.09 c 2,9,-1
 48.25 184.59 l 2,10,11
 74.5 210.84 74.5 210.84 101.75 183.59 c 2,0,-1
EndSplineSet
EndChar

StartChar: arabic_2dots
Encoding: 65537 -1 294
Width: 452
GlyphClass: 2
Flags: W
LayerCount: 2
Fore
SplineSet
394.75 183.59 m 6,0,-1
 473.25 105.09 l 6,1,2
 495.84 82.5 495.84 82.5 473.75 60.4102 c 6,3,-1
 391.75 -21.5898 l 6,4,5
 367.5 -45.8398 367.5 -45.8398 343.75 -22.0898 c 6,6,-1
 261.75 59.9102 l 6,7,8
 239.16 82.5 239.16 82.5 264.75 108.09 c 6,9,-1
 341.25 184.59 l 6,10,11
 367.5 210.84 367.5 210.84 394.75 183.59 c 6,0,-1
111.75 183.59 m 6,12,-1
 190.25 105.09 l 6,13,14
 212.84 82.5 212.84 82.5 190.75 60.4102 c 6,15,-1
 108.75 -21.5898 l 6,16,17
 84.5 -45.8398 84.5 -45.8398 60.75 -22.0898 c 6,18,-1
 -21.25 59.9102 l 6,19,20
 -43.8398 82.5 -43.8398 82.5 -18.25 108.09 c 6,21,-1
 58.25 184.59 l 6,22,23
 84.5 210.84 84.5 210.84 111.75 183.59 c 6,12,-1
EndSplineSet
EndChar

StartChar: arabic_3dots
Encoding: 65538 -1 295
Width: 455
GlyphClass: 2
Flags: W
LayerCount: 2
Fore
SplineSet
253.666 396 m 2,0,-1
 332.166 317.5 l 2,1,2
 354.756 294.91 354.756 294.91 332.666 272.82 c 2,3,-1
 250.666 190.82 l 2,4,5
 226.416 166.57 226.416 166.57 202.666 190.32 c 2,6,-1
 120.666 272.32 l 2,7,8
 98.0762 294.91 98.0762 294.91 123.666 320.5 c 2,9,-1
 200.166 397 l 2,10,11
 226.416 423.25 226.416 423.25 253.666 396 c 2,0,-1
395.75 171.59 m 2,12,-1
 474.25 93.0898 l 2,13,14
 496.84 70.5 496.84 70.5 474.75 48.4102 c 2,15,-1
 392.75 -33.5898 l 2,16,17
 368.5 -57.8398 368.5 -57.8398 344.75 -34.0898 c 2,18,-1
 262.75 47.9102 l 2,19,20
 240.16 70.5 240.16 70.5 265.75 96.0898 c 2,21,-1
 342.25 172.59 l 2,22,23
 368.5 198.84 368.5 198.84 395.75 171.59 c 2,12,-1
112.75 171.59 m 2,24,-1
 191.25 93.0898 l 2,25,26
 213.84 70.5 213.84 70.5 191.75 48.4102 c 2,27,-1
 109.75 -33.5898 l 2,28,29
 85.5 -57.8398 85.5 -57.8398 61.75 -34.0898 c 2,30,-1
 -20.25 47.9102 l 2,31,32
 -42.8398 70.5 -42.8398 70.5 -17.25 96.0898 c 2,33,-1
 59.25 172.59 l 2,34,35
 85.5 198.84 85.5 198.84 112.75 171.59 c 2,24,-1
EndSplineSet
EndChar

StartChar: arabic_3dots_a
Encoding: 65539 -1 296
Width: 454
GlyphClass: 2
Flags: W
LayerCount: 2
Fore
SplineSet
248 -16.5479 m 6,0,-1
 326.5 -95.0479 l 6,1,2
 349.09 -117.638 349.09 -117.638 327 -139.728 c 6,3,-1
 245 -221.728 l 6,4,5
 220.75 -245.978 220.75 -245.978 197 -222.228 c 6,6,-1
 115 -140.228 l 6,7,8
 92.4102 -117.638 92.4102 -117.638 118 -92.0479 c 6,9,-1
 194.5 -15.5479 l 6,10,11
 220.75 10.7021 220.75 10.7021 248 -16.5479 c 6,0,-1
395.75 191.59 m 6,12,-1
 474.25 113.09 l 6,13,14
 496.84 90.5 496.84 90.5 474.75 68.4102 c 6,15,-1
 392.75 -13.5898 l 6,16,17
 368.5 -37.8398 368.5 -37.8398 344.75 -14.0898 c 6,18,-1
 262.75 67.9102 l 6,19,20
 240.16 90.5 240.16 90.5 265.75 116.09 c 6,21,-1
 342.25 192.59 l 6,22,23
 368.5 218.84 368.5 218.84 395.75 191.59 c 6,12,-1
112.75 191.59 m 6,24,-1
 191.25 113.09 l 6,25,26
 213.84 90.5 213.84 90.5 191.75 68.4102 c 6,27,-1
 109.75 -13.5898 l 6,28,29
 85.5 -37.8398 85.5 -37.8398 61.75 -14.0898 c 6,30,-1
 -20.25 67.9102 l 6,31,32
 -42.8398 90.5 -42.8398 90.5 -17.25 116.09 c 6,33,-1
 59.25 192.59 l 6,34,35
 85.5 218.84 85.5 218.84 112.75 191.59 c 6,24,-1
EndSplineSet
EndChar

StartChar: uni066E.fina
Encoding: 65540 -1 297
Width: 2051
VWidth: 2232
GlyphClass: 2
Flags: W
AnchorPoint: "Anchor-10" 703 1111.5 basechar 0
AnchorPoint: "Anchor-7" 703 -128 basechar 0
LayerCount: 2
Fore
SplineSet
359.331 70.3232 m 0,0,1
 218.717 129.1 218.717 129.1 138.948 237.435 c 128,-1,2
 59.1807 345.77 59.1807 345.77 45.5898 496.569 c 0,3,4
 34.5693 614.426 34.5693 614.426 78.751 767.869 c 2,5,-1
 92.5498 815.794 l 1,6,-1
 313.657 757.453 l 1,7,-1
 306.916 712.27 l 2,8,9
 288.13 586.341 288.13 586.341 290.496 528.318 c 0,10,11
 294.658 426.3 294.658 426.3 360.487 366.646 c 128,-1,12
 426.316 306.991 426.316 306.991 569.569 284.779 c 0,13,14
 642.171 273.559 642.171 273.559 805.23 273.017 c 0,15,16
 1250.38 271.909 1250.38 271.909 1399.09 342.434 c 0,17,18
 1483 382.392 1483 382.392 1528.28 444.17 c 128,-1,19
 1573.56 505.949 1573.56 505.949 1584.71 595.123 c 2,20,-1
 1590.29 639.795 l 1,21,-1
 1791.37 639.795 l 1,22,-1
 1795.05 592.775 l 2,23,24
 1800.37 524.811 1800.37 524.811 1810.58 466.545 c 0,25,26
 1821.91 401.795 1821.91 401.795 1838.84 360.884 c 0,27,28
 1875.9 271.38 1875.9 271.38 2004.97 271.38 c 2,29,-1
 2122.17 271.38 l 1,30,-1
 2122.17 0.5 l 1,31,-1
 1960.03 0.5 l 2,32,33
 1854.02 0.5 1854.02 0.5 1771.29 45.6572 c 128,-1,34
 1688.56 90.8135 1688.56 90.8135 1636.88 177.188 c 1,35,36
 1582.64 136.034 1582.64 136.034 1492.71 93.7305 c 0,37,38
 1293.46 -0 1293.46 -0 857.779 0 c 0,39,40
 527.57 0 527.57 0 359.331 70.3232 c 0,0,1
EndSplineSet
EndChar

StartChar: uni06A1.fina
Encoding: 65543 -1 300
Width: 1884
VWidth: 2232
GlyphClass: 2
Flags: W
AnchorPoint: "Anchor-10" 537 1218.5 basechar 0
AnchorPoint: "Anchor-7" 644 -172.5 basechar 0
LayerCount: 2
Fore
SplineSet
854.876 0 m 1,0,1
 528.57 0 528.57 0 360.331 70.3232 c 0,2,3
 219.717 129.1 219.717 129.1 139.948 237.435 c 128,-1,4
 60.1807 345.77 60.1807 345.77 46.5898 496.569 c 0,5,6
 35.5693 614.425 35.5693 614.425 79.751 767.868 c 2,7,-1
 93.5498 815.793 l 1,8,-1
 315.134 757.326 l 1,9,-1
 307.833 711.731 l 2,10,11
 286.816 580.477 286.816 580.477 289.484 528.586 c 0,12,13
 293.687 425.532 293.687 425.532 359.853 365.933 c 128,-1,14
 426.019 306.332 426.019 306.332 570.301 284.819 c 0,15,16
 614.769 278.188 614.769 278.188 807.471 272.997 c 0,17,18
 921.254 269.932 921.254 269.932 1033.11 279.236 c 0,19,20
 1107.41 285.802 1107.41 285.802 1158.25 294.266 c 1,21,22
 1141.55 311.231 1141.55 311.231 1127.9 328.834 c 0,23,24
 987.379 510.107 987.379 510.107 1067.81 709.092 c 1,25,26
 1134.5 857.07 1134.5 857.07 1287.85 909.574 c 0,27,28
 1457.88 968.252 1457.88 968.252 1613.72 883.839 c 0,29,30
 1767.26 799.749 1767.26 799.749 1799 630.428 c 0,31,32
 1834.54 439.598 1834.54 439.598 1692.02 303.184 c 1,33,34
 1749.94 271.379 1749.94 271.379 1832.89 271.379 c 2,35,-1
 1955.6 271.379 l 1,36,-1
 1955.6 0.499023 l 1,37,-1
 1825.22 0.499023 l 2,38,39
 1621.36 0.499023 1621.36 0.499023 1445.67 137.335 c 1,40,41
 1332.07 64.9219 1332.07 64.9219 1241.02 39.6826 c 1,42,43
 1096.3 -3.08691 1096.3 -3.08691 854.876 0 c 1,0,1
1291.06 555.84 m 128,-1,45
 1291.06 499.935 1291.06 499.935 1330.63 460.359 c 128,-1,46
 1370.21 420.782 1370.21 420.782 1426.12 420.782 c 128,-1,47
 1482.03 420.782 1482.03 420.782 1521.61 460.357 c 128,-1,48
 1561.18 499.926 1561.18 499.926 1561.18 555.84 c 128,-1,49
 1561.18 611.754 1561.18 611.754 1521.61 651.319 c 128,-1,50
 1482.03 690.896 1482.03 690.896 1426.12 690.896 c 128,-1,51
 1370.21 690.896 1370.21 690.896 1330.63 651.322 c 128,-1,44
 1291.06 611.741 1291.06 611.741 1291.06 555.84 c 128,-1,45
EndSplineSet
EndChar

StartChar: uni06A1.init
Encoding: 65544 -1 301
Width: 864
VWidth: 2283
GlyphClass: 2
Flags: W
AnchorPoint: "Anchor-10" 405.53 1318.5 basechar 0
AnchorPoint: "Anchor-7" 390.53 -244 basechar 0
LayerCount: 2
Fore
SplineSet
409.62 848.156 m 0,0,1
 369.588 847.01 369.588 847.01 342.446 819.082 c 128,-1,2
 315.306 791.154 315.306 791.154 298.011 722.254 c 0,3,4
 295.264 711.181 295.264 711.181 293.53 700.969 c 0,5,6
 284.303 646.581 284.303 646.581 298.075 628.401 c 0,7,8
 316.849 602.483 316.849 602.483 366.741 595.404 c 0,9,10
 471.703 582.387 471.703 582.387 535.365 627.113 c 1,11,12
 533.981 655.097 533.981 655.097 524.21 707.979 c 0,13,14
 509.11 788.578 509.11 788.578 481.248 819.003 c 128,-1,15
 453.386 849.429 453.386 849.429 409.62 848.156 c 0,0,1
773.951 665.354 m 0,16,17
 787.78 542.314 787.78 542.314 765.867 370.679 c 0,18,19
 740.941 166.154 740.941 166.154 586.638 67.9717 c 0,20,21
 528.957 31.2695 528.957 31.2695 433.755 15.6348 c 128,-1,22
 338.553 0 338.553 0 196.229 0 c 2,23,-1
 -71.4004 0 l 1,24,-1
 -71.4004 270.98 l 1,25,-1
 82 270.98 l 2,26,27
 177.42 270.98 177.42 270.98 257.345 273.103 c 128,-1,28
 337.269 275.226 337.269 275.226 380.156 278.318 c 128,-1,29
 423.044 281.41 423.044 281.41 431.95 283.902 c 4,30,31
 488.773 306.522 488.773 306.522 511.996 365.87 c 1,32,33
 457.629 351.764 457.629 351.764 381.985 350.378 c 0,34,35
 197.474 347.111 197.474 347.111 111.807 461.269 c 0,36,37
 37.1582 560.744 37.1582 560.744 54.2891 707.782 c 0,38,39
 74.665 888.137 74.665 888.137 177.835 996.442 c 0,40,41
 241.903 1063.7 241.903 1063.7 319.969 1090.1 c 128,-1,42
 398.035 1116.5 398.035 1116.5 483.525 1098.52 c 0,43,44
 608.11 1072.32 608.11 1072.32 684.061 945.525 c 0,45,46
 754.896 826.996 754.896 826.996 773.951 665.354 c 0,16,17
EndSplineSet
EndChar

StartChar: uni06A1.medi
Encoding: 65545 -1 302
Width: 1034
VWidth: 2232
GlyphClass: 2
Flags: W
AnchorPoint: "Anchor-10" 554.26 1058 basechar 0
AnchorPoint: "Anchor-7" 554.26 -119 basechar 0
LayerCount: 2
Fore
SplineSet
372.427 539.602 m 128,-1,1
 372.427 484.63 372.427 484.63 412.473 445.482 c 0,2,3
 453.18 405.689 453.18 405.689 511.033 405.689 c 128,-1,4
 568.884 405.689 568.884 405.689 609.591 445.482 c 0,5,6
 649.636 484.629 649.636 484.629 649.636 539.602 c 128,-1,7
 649.636 594.568 649.636 594.568 609.591 633.715 c 0,8,9
 568.883 673.509 568.883 673.509 511.033 673.509 c 128,-1,10
 453.183 673.509 453.183 673.509 412.471 633.713 c 0,11,0
 372.427 594.573 372.427 594.573 372.427 539.602 c 128,-1,1
703.062 882.931 m 4,12,13
 855.734 811.868 855.734 811.868 897.605 644.878 c 0,14,15
 924.308 538.215 924.308 538.215 883.988 408.085 c 0,16,17
 861.632 335.931 861.632 335.931 798.257 275.688 c 1,18,19
 861.235 270.659 861.235 270.659 949.86 270.982 c 2,20,-1
 1105.92 271.552 l 1,21,-1
 1105.92 0.595703 l 1,22,-1
 813.825 0.00195312 l 2,23,24
 663 -0.304633 663 -0.304633 509.592 97.7754 c 1,25,26
 349.271 0.00195312 349.271 0.00195312 207.792 0.00195312 c 2,27,-1
 -71.3984 0.00195312 l 1,28,-1
 -71.3984 270.982 l 1,29,-1
 70.4922 270.982 l 2,30,31
 160.217 270.982 160.217 270.982 223.342 277.856 c 1,32,33
 173.956 330.824 173.956 330.824 143.821 397.897 c 0,34,35
 91.9883 511.645 91.9883 511.645 128.533 647.412 c 0,36,37
 176.339 821.101 176.339 821.101 346.72 889.632 c 0,38,39
 420.95 919.956 420.95 919.956 515.258 920.515 c 0,40,41
 621.976 921.09 621.976 921.09 703.062 882.931 c 4,12,13
EndSplineSet
EndChar

StartChar: uni066F.fina
Encoding: 65546 -1 303
Width: 1527
VWidth: 2232
GlyphClass: 2
Flags: W
AnchorPoint: "Anchor-10" 386 951 basechar 0
AnchorPoint: "Anchor-7" 433.645 -751.82 basechar 0
LayerCount: 2
Fore
SplineSet
1100.07 521.65 m 0,0,1
 1009.12 519.574 1009.12 519.574 971.713 397.074 c 4,2,3
 963.217 369.77 963.217 369.77 961.531 348.021 c 0,4,5
 958.244 305.615 958.244 305.615 981.156 285.126 c 128,-1,6
 1004.07 264.637 1004.07 264.637 1075.7 259.112 c 0,7,8
 1138.92 254.282 1138.92 254.282 1217.83 259.947 c 1,9,10
 1215.5 336.793 1215.5 336.793 1203.6 394.745 c 0,11,12
 1188.51 468.179 1188.51 468.179 1163.31 495.403 c 128,-1,13
 1138.11 522.628 1138.11 522.628 1100.07 521.65 c 0,0,1
1206.3 1.64453 m 1,14,15
 1162.11 1.32227 1162.11 1.32227 1084.89 1.23926 c 0,16,17
 884.018 0.984375 884.018 0.984375 794.359 104.408 c 0,18,19
 702.143 211.988 702.143 211.988 719.975 358.396 c 0,20,21
 743.133 554.235 743.133 554.235 865.774 673.062 c 0,22,23
 980.39 784.122 980.39 784.122 1117.2 775.731 c 0,24,25
 1209.18 770.259 1209.18 770.259 1278.42 724.092 c 128,-1,26
 1347.66 677.924 1347.66 677.924 1386.99 595.568 c 0,27,28
 1444.08 476.167 1444.08 476.167 1457.84 311.462 c 0,29,30
 1459.62 288.572 1459.62 288.572 1461.02 271.417 c 1,31,-1
 1491.59 271.38 l 1,32,-1
 1598.96 271.38 l 1,33,-1
 1598.96 0.0498047 l 1,34,-1
 1457.88 1.28906 l 1,35,36
 1430.17 -250.814 1430.17 -250.814 1267.05 -400.482 c 1,37,38
 1056.51 -591.493 1056.51 -591.493 686.693 -582.733 c 0,39,40
 366.525 -575.423 366.525 -575.423 208.951 -414.54 c 0,41,42
 56.2432 -260.005 56.2432 -260.005 44.7148 -9.63281 c 1,43,-1
 41.9443 -9.63281 l 1,44,-1
 41.9443 92.3672 l 1,45,-1
 45.6553 92.3672 l 1,46,47
 57.4062 283.433 57.4062 283.433 141.958 458.39 c 2,48,-1
 160.079 495.887 l 1,49,-1
 405.499 433.501 l 1,50,-1
 385.086 380 l 2,51,52
 302.949 164.728 302.949 164.728 303.781 37.4316 c 0,53,54
 305.081 -152.783 305.081 -152.783 407.329 -241.465 c 128,-1,55
 509.576 -330.146 509.576 -330.146 732.002 -327.857 c 0,56,57
 1004.49 -325.446 1004.49 -325.446 1126.11 -182.326 c 0,58,59
 1192.21 -104.558 1192.21 -104.558 1206.3 1.64453 c 1,14,15
EndSplineSet
EndChar

StartChar: arabic_ring
Encoding: 65549 -1 306
Width: 438
GlyphClass: 2
Flags: W
LayerCount: 2
Fore
SplineSet
316 220 m 0,0,1
 316 260 316 260 288 288 c 0,2,3
 260 317 260 317 219 317 c 128,-1,4
 178 317 178 317 150 289 c 128,-1,5
 122 261 122 261 122 220 c 0,6,7
 122 178 122 178 150 150 c 0,8,9
 178 123 178 123 219 123 c 128,-1,10
 260 123 260 123 288 151 c 128,-1,11
 316 179 316 179 316 220 c 0,0,1
438 220 m 128,-1,13
 438 128 438 128 375 64 c 0,14,15
 311 0 311 0 219 0 c 128,-1,16
 127 0 127 0 64 64 c 0,17,18
 0 128 0 128 0 220 c 128,-1,19
 0 312 0 312 64 376 c 0,20,21
 127 439 127 439 219 439 c 128,-1,22
 311 439 311 439 375 376 c 1,23,12
 438 312 438 312 438 220 c 128,-1,13
EndSplineSet
EndChar

StartChar: arabic_gaf_bar
Encoding: 65550 -1 307
Width: 674
GlyphClass: 2
Flags: W
LayerCount: 2
Fore
SplineSet
666 1673 m 1,0,-1
 0 1321 l 1,1,-1
 0 1430 l 1,2,-1
 666 1782 l 1,3,-1
 666 1673 l 1,0,-1
EndSplineSet
EndChar

StartChar: uni066E.init.math
Encoding: 65560 -1 317
Width: 877
VWidth: 2232
GlyphClass: 2
Flags: W
LayerCount: 2
Fore
SplineSet
612.672 112.26 m 0,0,1
 525.089 8.5 525.089 8.5 342.4 8.5 c 2,2,-1
 -54.4004 8.5 l 1,3,-1
 -54.4004 271.38 l 1,4,-1
 283.55 271.38 l 2,5,6
 375.812 271.38 375.812 271.38 413.225 308.795 c 0,7,8
 455.99 351.558 455.99 351.558 455.99 451.31 c 2,9,-1
 455.99 716.5 l 1,10,-1
 718.87 716.5 l 1,11,-1
 718.87 451.31 l 2,12,13
 718.87 239.879 718.87 239.879 612.672 112.26 c 0,0,1
EndSplineSet
EndChar

StartChar: guillemotleft
Encoding: 171 171 318
Width: 1323
Flags: W
LayerCount: 2
Fore
SplineSet
641 1042.96 m 1,0,-1
 641 825.983 l 1,1,-1
 341.394 600 l 1,2,-1
 641 374.017 l 1,3,-1
 641 156.976 l 1,4,-1
 168 511.006 l 1,5,-1
 168 687.01 l 1,6,-1
 641 1042.96 l 1,0,-1
1120 1042.96 m 1,7,-1
 1120 825.973 l 1,8,-1
 821.43 600 l 1,9,-1
 1120 374.027 l 1,10,-1
 1120 156.976 l 1,11,-1
 647 511.006 l 1,12,-1
 647 687.01 l 1,13,-1
 1120 1042.96 l 1,7,-1
EndSplineSet
EndChar

StartChar: guillemotright
Encoding: 187 187 319
Width: 1323
Flags: W
LayerCount: 2
Fore
SplineSet
682 1042.96 m 1,0,-1
 1155 687.01 l 1,1,-1
 1155 511.006 l 1,2,-1
 682 156.976 l 1,3,-1
 682 374.017 l 1,4,-1
 981.606 600 l 1,5,-1
 682 825.983 l 1,6,-1
 682 1042.96 l 1,0,-1
203 1042.91 m 1,7,-1
 674 687.022 l 1,8,-1
 674 510.994 l 1,9,-1
 203 157.024 l 1,10,-1
 203 374.027 l 1,11,-1
 501.57 600 l 1,12,-1
 203 825.973 l 1,13,-1
 203 1042.91 l 1,7,-1
EndSplineSet
EndChar

StartChar: zero
Encoding: 48 48 320
Width: 1385
Flags: W
LayerCount: 2
Fore
SplineSet
872.922 344.845 m 0,0,1
 925.324 462.818 925.324 462.818 925.324 748 c 0,2,3
 925.324 1030.18 925.324 1030.18 873.403 1146.67 c 0,4,5
 819.768 1267 819.768 1267 692.986 1267 c 128,-1,6
 566.229 1267 566.229 1267 512.098 1146.7 c 0,7,8
 459.676 1030.2 459.676 1030.2 459.676 748 c 0,9,10
 459.676 462.818 459.676 462.818 512.078 344.845 c 0,11,12
 566.199 223 566.199 223 692.986 223 c 0,13,14
 818.801 223 818.801 223 872.922 344.845 c 0,0,1
1129.17 1312.28 m 0,15,16
 1287 1113.52 1287 1113.52 1287 745 c 0,17,18
 1287 377.495 1287 377.495 1129.17 178.719 c 0,19,20
 974.102 -19 974.102 -19 692.986 -19 c 0,21,22
 410.905 -19 410.905 -19 255.831 178.719 c 0,23,24
 98 377.485 98 377.485 98 745 c 0,25,26
 98 1113.53 98 1113.53 255.831 1312.28 c 0,27,28
 410.917 1510 410.917 1510 692.986 1510 c 4,29,30
 974.091 1510 974.091 1510 1129.17 1312.28 c 0,15,16
EndSplineSet
EndChar

StartChar: one
Encoding: 49 49 321
Width: 1385
Flags: W
LayerCount: 2
Fore
SplineSet
240 10 m 1,0,-1
 240 256 l 1,1,-1
 576.187 256 l 1,2,-1
 576.187 1243.27 l 1,3,-1
 231 1171.27 l 1,4,-1
 231 1412.86 l 1,5,-1
 565.618 1483 l 1,6,-1
 907.481 1483 l 1,7,-1
 907.481 256 l 1,8,-1
 1244 256 l 1,9,-1
 1244 10 l 1,10,-1
 240 10 l 1,0,-1
EndSplineSet
EndChar

StartChar: two
Encoding: 50 50 322
Width: 1385
Flags: W
LayerCount: 2
Fore
SplineSet
875.501 570.516 m 2,0,-1
 548.367 273 l 1,1,-1
 1207 273 l 1,2,-1
 1207 10 l 1,3,-1
 162 10 l 1,4,-1
 162 278.488 l 1,5,-1
 693.344 756.544 l 1,6,7
 765.026 823.696 765.026 823.696 799.583 888.144 c 0,8,9
 834.577 953.406 834.577 953.406 834.577 1024 c 0,10,11
 834.577 1133.43 834.577 1133.43 763.372 1200.4 c 0,12,13
 692.567 1267 692.567 1267 575.923 1267 c 0,14,15
 487.36 1267 487.36 1267 381.615 1227.91 c 0,16,17
 280.693 1191.59 280.693 1191.59 166 1121.9 c 1,18,-1
 166 1424.76 l 1,19,20
 292.248 1465.95 292.248 1465.95 414.501 1487.65 c 0,21,22
 536.245 1510 536.245 1510 653.133 1510 c 0,23,24
 908.401 1510 908.401 1510 1052.28 1394.17 c 0,25,26
 1197 1279.19 1197 1279.19 1197 1073 c 0,27,28
 1197 953.761 1197 953.761 1135.41 850.627 c 0,29,30
 1073.23 746.488 1073.23 746.488 875.501 570.516 c 2,0,-1
EndSplineSet
EndChar

StartChar: three
Encoding: 51 51 323
Width: 1385
Flags: W
LayerCount: 2
Fore
SplineSet
886.561 805.122 m 1,0,-1
 923.284 795.317 l 2,1,2
 1069.31 757.143 1069.31 757.143 1145.74 663.189 c 0,3,4
 1222 569.453 1222 569.453 1222 424 c 0,5,6
 1222 207.295 1222 207.295 1056.38 94.7715 c 0,7,8
 891.77 -19 891.77 -19 579.374 -19 c 0,9,10
 468.894 -19 468.894 -19 357.082 -0.625977 c 0,11,12
 246.271 17.123 246.271 17.123 137 52.2656 c 1,13,-1
 137 325.935 l 1,14,15
 238.951 276.652 238.951 276.652 339 250.817 c 0,16,17
 444.643 223 444.643 223 545.515 223 c 0,18,19
 696.396 223 696.396 223 777.645 277.617 c 0,20,21
 860.887 333.574 860.887 333.574 860.887 438 c 0,22,23
 860.887 545.522 860.887 545.522 775.584 600.966 c 0,24,25
 692.449 655 692.449 655 531.972 655 c 2,26,-1
 392.666 655 l 1,27,-1
 392.666 883 l 1,28,-1
 539.711 883 l 2,29,30
 682.819 883 682.819 883 753.889 930.08 c 0,31,32
 827.028 978.532 827.028 978.532 827.028 1077 c 0,33,34
 827.028 1168.29 827.028 1168.29 756.05 1218.26 c 0,35,36
 686.838 1267 686.838 1267 561.961 1267 c 0,37,38
 470.947 1267 470.947 1267 377.842 1245.76 c 0,39,40
 289.126 1226.16 289.126 1226.16 201 1189.16 c 1,41,-1
 201 1448.4 l 1,42,43
 310.833 1478.73 310.833 1478.73 417.252 1494.1 c 0,44,45
 524.878 1510 524.878 1510 628.712 1510 c 0,46,47
 907.329 1510 907.329 1510 1046.99 1416.16 c 0,48,49
 1187 1323.61 1187 1323.61 1187 1137 c 0,50,51
 1187 1009.6 1187 1009.6 1120.29 928.87 c 0,52,53
 1053.38 847.894 1053.38 847.894 923.34 814.697 c 2,54,-1
 886.561 805.122 l 1,0,-1
EndSplineSet
EndChar

StartChar: four
Encoding: 52 52 324
Width: 1385
Flags: W
LayerCount: 2
Fore
SplineSet
742.557 541 m 1,0,-1
 742.557 1208.68 l 1,1,-1
 303.182 541 l 1,2,-1
 742.557 541 l 1,0,-1
92 598.955 m 1,3,-1
 675.777 1483 l 1,4,-1
 1078 1483 l 1,5,-1
 1078 541 l 1,6,-1
 1291 541 l 1,7,-1
 1291 282 l 1,8,-1
 1078 282 l 1,9,-1
 1078 10 l 1,10,-1
 742.557 10 l 1,11,-1
 742.557 282 l 1,12,-1
 92 282 l 1,13,-1
 92 598.955 l 1,3,-1
EndSplineSet
EndChar

StartChar: five
Encoding: 53 53 325
Width: 1385
Flags: W
LayerCount: 2
Fore
SplineSet
217 667.928 m 1,0,-1
 217 1483 l 1,1,-1
 1134 1483 l 1,2,-1
 1134 1220 l 1,3,-1
 500.727 1220 l 1,4,-1
 500.727 965.907 l 1,5,-1
 512.945 969.353 l 2,6,7
 554.957 981.196 554.957 981.196 597.408 987.602 c 128,-1,8
 639.761 994 639.761 994 685.49 994 c 0,9,10
 945.87 994 945.87 994 1093.32 860.06 c 0,11,12
 1242 726.539 1242 726.539 1242 487 c 0,13,14
 1242 249.713 1242 249.713 1080.12 115.703 c 0,15,16
 919.983 -19 919.983 -19 639.057 -19 c 0,17,18
 517.145 -19 517.145 -19 397.431 5.31152 c 0,19,20
 277.213 28.9697 277.213 28.9697 158 76.7461 c 1,21,-1
 158 355.838 l 1,22,23
 272.855 291.591 272.855 291.591 376.455 258.475 c 0,24,25
 484.702 223 484.702 223 580.049 223 c 0,26,27
 719.037 223 719.037 223 799.618 293.884 c 0,28,29
 880.894 365.379 880.894 365.379 880.894 487 c 0,30,31
 880.894 609.64 880.894 609.64 799.591 680.64 c 0,32,33
 719.02 751 719.02 751 580.049 751 c 0,34,35
 498.668 751 498.668 751 406.673 729.248 c 0,36,37
 318.166 708.982 318.166 708.982 217 667.928 c 1,0,-1
EndSplineSet
EndChar

StartChar: six
Encoding: 54 54 326
Width: 1385
Flags: W
LayerCount: 2
Fore
SplineSet
876.086 677.605 m 0,0,1
 824.163 747 824.163 747 720.409 747 c 0,2,3
 617.625 747 617.625 747 565.702 677.605 c 0,4,5
 514.676 609.41 514.676 609.41 514.676 475 c 128,-1,6
 514.676 340.593 514.676 340.593 565.702 272.395 c 0,7,8
 617.623 203 617.623 203 720.409 203 c 0,9,10
 824.165 203 824.165 203 876.086 272.395 c 0,11,12
 927.111 340.593 927.111 340.593 927.111 475 c 128,-1,13
 927.111 609.41 927.111 609.41 876.086 677.605 c 0,0,1
994.432 1492.13 m 0,14,15
 1085.64 1476.92 1085.64 1476.92 1177 1446.79 c 1,16,-1
 1177 1193.7 l 1,17,18
 1088.75 1234.16 1088.75 1234.16 1011.03 1254.19 c 0,19,20
 928.323 1276 928.323 1276 849.477 1276 c 0,21,22
 678.562 1276 678.562 1276 582.556 1177.59 c 0,23,24
 486.873 1079.51 486.873 1079.51 471.042 887.848 c 2,25,-1
 469.217 865.752 l 1,26,-1
 486.496 878.971 l 2,27,28
 549.238 926.974 549.238 926.974 622.426 950.971 c 128,-1,29
 695.71 975 695.71 975 782.517 975 c 0,30,31
 1000.87 975 1000.87 975 1137.6 843.764 c 0,32,33
 1275 712.713 1275 712.713 1275 500 c 0,34,35
 1275 264.377 1275 264.377 1121.23 122.857 c 0,36,37
 968.925 -19 968.925 -19 716.527 -19 c 0,38,39
 438.752 -19 438.752 -19 284.264 173.802 c 0,40,41
 127 367.548 127 367.548 127 725 c 0,42,43
 127 1091.23 127 1091.23 311 1299.89 c 0,44,45
 490.923 1508 490.923 1508 801.925 1508 c 0,46,47
 901.065 1508 901.065 1508 994.432 1492.13 c 0,14,15
EndSplineSet
EndChar

StartChar: seven
Encoding: 55 55 327
Width: 1385
Flags: W
LayerCount: 2
Fore
SplineSet
137 1220 m 1,0,-1
 137 1483 l 1,1,-1
 1222 1483 l 1,2,-1
 1222 1278.17 l 1,3,-1
 654.416 10 l 1,4,-1
 310.542 10 l 1,5,-1
 845.933 1220 l 1,6,-1
 137 1220 l 1,0,-1
EndSplineSet
EndChar

StartChar: eight
Encoding: 56 56 328
Width: 1385
Flags: W
LayerCount: 2
Fore
SplineSet
858.942 616.479 m 128,-1,1
 800.811 678 800.811 678 692.955 678 c 0,2,3
 584.154 678 584.154 678 525.058 616.011 c 128,-1,4
 466.03 554.092 466.03 554.092 466.03 440 c 128,-1,5
 466.03 325.886 466.03 325.886 525.087 264.459 c 128,-1,6
 584.176 203 584.176 203 692.955 203 c 0,7,8
 800.809 203 800.809 203 858.942 264.521 c 128,-1,9
 916.97 325.932 916.97 325.932 916.97 440 c 0,10,0
 916.97 555.065 916.97 555.065 858.942 616.479 c 128,-1,1
455.394 794.582 m 1,11,-1
 423.25 804.574 l 2,12,13
 291.831 844.687 291.831 844.687 224.764 927.303 c 0,14,15
 158 1009.54 158 1009.54 158 1133 c 0,16,17
 158 1316.81 158 1316.81 294.746 1412.82 c 0,18,19
 431.285 1510 431.285 1510 692.955 1510 c 0,20,21
 952.69 1510 952.69 1510 1089.27 1413.3 c 0,22,23
 1226 1317.8 1226 1317.8 1226 1133 c 0,24,25
 1226 1009.58 1226 1009.58 1158.76 927.33 c 0,26,27
 1091.2 844.694 1091.2 844.694 959.75 804.574 c 2,28,-1
 927.606 794.582 l 1,29,-1
 959.967 785.361 l 2,30,31
 1107.28 744.201 1107.28 744.201 1182.77 652.158 c 0,32,33
 1258 560.425 1258 560.425 1258 420 c 0,34,35
 1258 202.929 1258 202.929 1114.4 92.4248 c 0,36,37
 970.895 -19 970.895 -19 692.955 -19 c 0,38,39
 414.032 -19 414.032 -19 269.572 92.4453 c 0,40,41
 125 202.946 125 202.946 125 420 c 0,42,43
 125 560.42 125 560.42 200.232 652.158 c 0,44,45
 275.713 744.2 275.713 744.2 423.033 785.361 c 2,46,-1
 455.394 794.582 l 1,11,-1
548.982 1237.18 m 128,-1,48
 498.032 1186.23 498.032 1186.23 498.032 1094 c 0,49,50
 498.032 1000.77 498.032 1000.77 548.982 949.821 c 128,-1,51
 599.804 899 599.804 899 692.955 899 c 0,52,53
 784.191 899 784.191 899 834.538 949.856 c 128,-1,54
 884.968 1000.8 884.968 1000.8 884.968 1094 c 128,-1,55
 884.968 1187.23 884.968 1187.23 834.501 1237.68 c 128,-1,56
 784.163 1288 784.163 1288 692.955 1288 c 0,57,47
 599.804 1288 599.804 1288 548.982 1237.18 c 128,-1,48
EndSplineSet
EndChar

StartChar: nine
Encoding: 57 57 329
Width: 1385
Flags: W
LayerCount: 2
Fore
SplineSet
383.623 -3.62793 m 0,0,1
 293.337 11.1064 293.337 11.1064 205 40.2061 c 1,2,-1
 205 293.394 l 1,3,4
 290.375 254.813 290.375 254.813 368.025 234.812 c 0,5,6
 450.728 213 450.728 213 531.523 213 c 0,7,8
 702.447 213 702.447 213 798.444 311.41 c 0,9,10
 894.102 409.474 894.102 409.474 910.924 601.1 c 2,11,-1
 912.864 623.205 l 1,12,-1
 895.511 610.057 l 2,13,14
 830.779 561.01 830.779 561.01 757.549 536.512 c 128,-1,15
 684.281 512 684.281 512 598.483 512 c 0,16,17
 380.123 512 380.123 512 243.389 642.749 c 0,18,19
 106 773.298 106 773.298 106 987 c 0,20,21
 106 1223.62 106 1223.62 259.297 1365.66 c 0,22,23
 411.104 1508 411.104 1508 662.532 1508 c 0,24,25
 941.27 1508 941.27 1508 1096.24 1314.7 c 0,26,27
 1254 1120.46 1254 1120.46 1254 764 c 0,28,29
 1254 397.795 1254 397.795 1069.51 189.124 c 0,30,31
 889.129 -19 889.129 -19 577.134 -19 c 0,32,33
 476.016 -19 476.016 -19 383.623 -3.62793 c 0,0,1
505.428 811.356 m 0,34,35
 557.838 742 557.838 742 660.591 742 c 128,-1,36
 763.345 742 763.345 742 815.755 811.356 c 0,37,38
 867.294 879.562 867.294 879.562 867.294 1014 c 0,39,40
 867.294 1147.42 867.294 1147.42 815.777 1216.11 c 0,41,42
 763.368 1286 763.368 1286 660.591 1286 c 128,-1,43
 557.814 1286 557.814 1286 505.406 1216.11 c 0,44,45
 453.889 1147.42 453.889 1147.42 453.889 1014 c 0,46,47
 453.889 879.562 453.889 879.562 505.428 811.356 c 0,34,35
EndSplineSet
EndChar

StartChar: NameMe.336
Encoding: 65562 -1 336
Width: 615
Flags: W
LayerCount: 2
Fore
SplineSet
287.283 86.7383 m 1,0,1
 195.39 0 195.39 0 80.7002 -0 c 2,2,-1
 -71.4014 -0 l 1,3,-1
 -71.4014 270.98 l 1,4,-1
 21.8486 270.98 l 2,5,6
 108.233 270.98 108.233 270.98 152.438 310.605 c 0,7,8
 201.681 354.806 201.681 354.806 196.349 448.844 c 2,9,-1
 155.662 1166.32 l 5,10,-1
 416.169 1279.56 l 1,11,-1
 416.169 451.31 l 2,12,13
 416.169 399.291 416.169 399.291 422.865 363.983 c 0,14,15
 440.501 270.98 440.501 270.98 594.609 270.98 c 2,16,-1
 686.859 270.98 l 1,17,-1
 686.859 -0 l 1,18,-1
 535.759 -0 l 2,19,20
 385.068 0 385.068 0 287.283 86.7383 c 1,0,1
EndSplineSet
EndChar

StartChar: NameMe.337
Encoding: 65563 -1 337
Width: 532
Flags: W
LayerCount: 2
Fore
SplineSet
444.17 487.69 m 2,0,1
 444.17 233.233 444.17 233.233 324.992 104.583 c 1,2,3
 216.149 0 216.149 0 54.7002 0 c 2,4,-1
 -71.4004 0 l 1,5,-1
 -71.4004 270.98 l 1,6,-1
 12.8496 270.98 l 2,7,8
 127.492 270.98 127.492 270.98 176.136 331.759 c 4,9,10
 227.533 395.988 227.533 395.988 222.338 498.304 c 2,11,-1
 182.819 1276.55 l 1,12,-1
 444.169 1392.43 l 1,13,-1
 444.17 487.69 l 2,0,1
EndSplineSet
EndChar

